<svg width="406" height="456" viewBox="0 0 406 456" fill="none" xmlns="http://www.w3.org/2000/svg">
<path d="M0.5 0L38.5 409.5L205 456L365.5 409.5L405.5 0H0.5Z" fill="#E5A228"/>
<path d="M335.5 384.5L202.5 421V32.5H366.5L335.5 384.5Z" fill="#F1BF26"/>
<path d="M99 340.5L92.5 260.5L142 259L145 302L202 316.5L258.5 302L264 236H91.5L109 50.5H310L319 159.5H271L265 106.5L205 104.5L155.5 106.5L148 184.5H320.5L306 340.5L200.5 371L99 340.5Z" fill="white"/>
<path d="M99 340.5L92.5 260.5L142 259L145 302L202 316.5L202.5 316.372V370.422L200.5 371L99 340.5Z" fill="#EFEFEF"/>
<path d="M155.5 106.5L148 184.5H202.5V236H91.5L109 50.5H202.5V104.5L155.5 106.5Z" fill="#EFEFEF"/>
</svg>
