<svg width="414" height="222" viewBox="0 0 414 222" fill="none" xmlns="http://www.w3.org/2000/svg">
<path d="M192.686 149.92L124.881 205.632L118.85 171.663L162.057 137.585L192.686 149.92Z" fill="#8ED6FB"/>
<path d="M33.5854 177.662L116.425 206.626L110.393 172.657L58.0946 155.537L33.5854 177.662Z" fill="#8ED6FB"/>
<path d="M176.877 46.5922L90.9646 14.6198L96.9962 48.5885L151.701 67.8207L176.877 46.5922Z" fill="#8ED6FB"/>
<path d="M12.4494 75.7886L82.6829 16.5982L88.7145 50.5668L42.4105 87.2267L12.4494 75.7886Z" fill="#8ED6FB"/>
<path d="M156.109 72.6241L166.686 132.192L196.964 142.558L180.88 51.9753L156.109 72.6241Z" fill="#8ED6FB"/>
<path d="M39.926 93.2539L50.5032 152.822L25.6442 172.979L9.55999 82.3955L39.926 93.2539Z" fill="#8ED6FB"/>
<path d="M116.959 163.874L108.13 114.152L150.003 78.2786L159.182 129.97L116.959 163.874Z" fill="#1C78C0"/>
<path d="M100.253 115.55L109.082 165.273L57.768 147.977L48.5895 96.286L100.253 115.55Z" fill="#1C78C0"/>
<path d="M145.508 72.9829L103.143 108.943L50.9867 89.7665L93.527 54.7905L145.508 72.9829Z" fill="#1C78C0"/>
<g clip-path="url(#clip0)">
<path d="M381.25 97.1052C374.252 97.6373 368.308 99.7388 363.4 102.59C361.262 99.0215 359.157 95.9196 358.675 93.5265C358.125 90.7463 357.574 89.062 357.769 85.6816C357.963 82.3005 359.584 77.4099 359.556 77.0203C359.492 76.6724 358.98 74.9858 354.95 75.2303C350.919 75.4749 347.496 76.538 347.179 77.6175C346.862 78.6969 346.249 81.1674 345.916 83.6965C345.47 87.4082 339.031 100.899 335.326 108.011C333.771 105.459 332.433 103.204 332.066 101.35C331.517 98.5699 330.966 96.8856 331.161 93.5052C331.355 90.1241 332.976 85.2338 332.949 84.8442C332.885 84.4964 332.373 82.8097 328.343 83.0542C324.311 83.2988 320.889 84.362 320.572 85.4414C320.255 86.5208 320 89.0444 319.309 91.5205C318.658 93.9938 310.405 116.343 308.261 122.171C307.173 125.145 306.201 127.523 305.489 129.139C304.778 130.756 305.458 129.259 305.391 129.42C304.78 130.795 304.441 131.562 304.441 131.562L304.444 131.602C303.965 132.614 303.444 133.59 303.17 133.609C302.975 133.623 302.4 131.04 302.812 127.41C303.73 119.789 306.425 107.815 306.356 107.389C306.342 107.194 306.861 105.082 303.854 104.237C300.925 103.386 300.032 105.211 299.797 105.227C299.562 105.244 299.411 105.881 299.411 105.881C299.411 105.881 301.649 92.4511 292.419 93.1008C286.631 93.5082 279.094 100.342 275.547 106.347C273.14 107.887 268.025 111.144 262.61 114.618C260.541 115.939 258.399 117.342 256.367 118.621L255.904 118.183C243.883 107.087 222.602 100.129 222.338 84.0948C222.242 78.2679 223.198 62.8139 259.281 41.6377C288.834 24.2883 313.649 26.7309 318.564 35.7031C325.558 48.5225 308.128 74.4934 276.543 80.2794C264.515 82.4963 257.811 78.27 256.085 76.6297C254.274 74.917 254.034 74.8556 253.433 75.2503C252.455 75.8673 253.195 77.4595 253.655 78.4059C254.766 80.7943 258.984 84.8824 265.787 86.5961C271.748 88.095 286.058 88.1448 302.799 80.3106C321.556 71.5123 335.16 49.8042 329.526 32.8565C323.791 15.6026 294.132 11.8957 267.171 23.6207C251.117 30.6235 233.925 40.9951 221.939 53.8584C207.685 69.1131 206.132 81.6727 207.511 86.7437C212.362 104.843 238.585 115.017 249.376 123.145C248.886 123.453 248.436 123.758 248.023 124.023C243.114 126.874 224.465 138.327 220.367 149.343C215.742 161.806 222.689 170.048 226.995 170.919C240.313 173.623 253.23 166.175 259.711 154.952C266.152 143.732 264.313 129.884 260.542 123.768L260.408 123.543L264.233 120.924C266.707 119.223 269.15 117.642 271.294 116.277C270.282 119.754 269.664 123.83 269.607 129.707C269.542 136.603 272.983 145.287 276.945 148.532C278.695 149.935 280.653 149.837 281.865 149.752C286.167 149.449 287.873 145.765 289.725 141.368C292.02 135.999 293.944 129.834 293.944 129.834C293.944 129.834 292.154 146.287 300.172 145.722C303.105 145.516 305.772 141.53 306.964 139.489L306.967 139.528C306.967 139.528 307.037 139.405 307.174 139.122C307.322 138.868 307.461 138.611 307.592 138.349L307.586 138.271C308.617 136.162 310.911 131.342 314.281 123.392C318.63 113.141 322.607 100.411 322.607 100.411C322.607 100.411 323.291 103.416 325.089 108.301C326.157 111.202 328.262 114.303 329.931 117.357C328.873 119.076 328.235 120.061 328.235 120.061L328.277 120.097C327.426 121.41 326.463 122.809 325.462 124.21C321.807 129.244 317.417 134.996 316.901 136.598C316.287 138.481 316.539 139.834 318.063 140.823C319.174 141.528 321.062 141.551 323.046 141.255C326.627 140.768 329.067 139.696 330.28 139.062C332.186 138.223 334.341 137.014 336.383 135.305C340.091 132.147 342.188 127.888 341.57 122.451C341.241 119.459 340.055 116.567 338.645 113.847C338.962 113.316 339.278 112.784 339.592 112.214C345.137 102.78 349.212 92.5486 349.212 92.5486C349.212 92.5486 349.895 95.5544 351.693 100.439C352.614 102.919 354.296 105.581 355.817 108.215C350.361 113.336 347.108 119.046 346.108 122.719C344.267 129.504 346.277 132.377 349.729 132.839C351.276 133.043 353.417 132.188 355.01 131.371C356.997 130.566 359.381 129.262 361.532 127.428C365.24 124.269 368.712 119.992 368.135 114.591C367.843 112.106 367.005 109.698 365.941 107.424C370.726 105.051 377.018 103.434 385.182 103.838C402.728 104.639 406.932 115.227 406.586 119.793C406.239 124.359 402.778 127.108 401.62 127.973C400.46 128.798 400.088 129.099 400.243 129.636C400.457 130.443 401.002 130.366 402.047 130.136C403.478 129.8 410.938 125.79 410.664 117.432C410.379 106.683 399.349 95.7141 381.25 97.1052V97.1052ZM250.201 151.628C244.894 158.305 236.966 161.252 233.382 159.468C229.515 157.587 230.312 148.252 236.922 141.091C240.939 136.737 246.268 132.603 249.783 130.046C250.568 129.482 251.768 128.654 253.191 127.653C253.415 127.481 253.565 127.391 253.565 127.391C253.828 127.216 254.127 126.999 254.427 126.783C257.716 136.104 255.8 144.618 250.201 151.628V151.628ZM290.239 120.19C288.587 125.2 285.244 138.003 282.652 137.481C280.42 137.051 278.425 127.677 280.856 118.11C282.088 113.285 285.018 107.442 286.82 105.122C289.741 101.393 293.1 99.9816 294.062 101.362C295.211 103.161 291.276 117.063 290.239 120.19ZM326.091 134.267C325.261 134.756 324.501 135.123 324.132 134.914C323.847 134.778 324.432 134.149 324.432 134.149C324.432 134.149 328.446 129.208 330.016 126.944C330.906 125.629 331.978 124.104 333.114 122.38L333.147 122.847C333.543 128.457 328.409 132.577 326.091 134.267ZM352.413 126.306C351.755 125.883 351.732 124.436 353.525 119.768C354.221 117.918 355.886 114.786 358.932 111.714C359.406 112.855 359.72 113.968 359.755 115.023C360.21 122.038 355.387 125.001 352.413 126.306Z" fill="#CF649A"/>
</g>
<defs>
<clipPath id="clip0">
<rect width="200.732" height="149.972" fill="white" transform="translate(202.887 23.2906) rotate(-4.02631)"/>
</clipPath>
</defs>
</svg>
