<svg width="631" height="432" viewBox="0 0 631 432" fill="none" xmlns="http://www.w3.org/2000/svg">
<path d="M47.0404 317.548L8.17167 176.714L111.854 112.419L131.999 116.344L236.298 237.058L238.33 285.431L150.647 354.347L47.0404 317.548Z" fill="#DE0031"/>
<path d="M238.33 285.431L150.647 354.347L111.854 112.419L131.999 116.344L236.298 237.058L238.33 285.431Z" fill="#C3002F"/>
<path fill-rule="evenodd" clip-rule="evenodd" d="M72.9947 308.928L116.134 141.538L214.537 285.163L187.295 289.737L166.34 257.329L108.073 267.112L99.645 304.453L72.9947 308.928ZM124.785 193.062L153.554 237.554L113.215 244.327L124.785 193.062Z" fill="white"/>
<path d="M316 188.5L271 114.5H201.5L316 303V188.5Z" fill="#35495D"/>
<path d="M132 114.5H204.5L316.5 303.5L316 431.5L132 114.5Z" fill="#41B783"/>
<path d="M316 189L361 115H430.5L316 303.5V189Z" fill="#35495D"/>
<path d="M500 115H427.5L316 303V432L500 115Z" fill="#41B783"/>
<g clip-path="url(#clip0)">
<path d="M361.221 113.733C358.349 132.731 374.219 153.272 401.956 167.69C391.671 196.211 392.882 220.635 407.498 232.29C422.522 244.269 448.034 241.406 474.382 224.582C494.116 247.533 515.882 258.681 533.279 251.839C551.16 244.806 559.988 220.255 558.569 189.027C590.556 183.56 609.882 171.013 612.792 151.764C615.598 133.206 599.439 114.341 572.087 100.046C583.322 69.4487 581.342 45.4969 566.121 33.3602C551.446 21.6595 527.031 26.2333 500.984 42.7861C480.252 17.9027 458.268 7.93913 440.152 15.0647C422.686 21.9334 414.455 45.3703 415.787 76.2041C386.037 81.7851 364.015 95.249 361.221 113.733Z" fill="white"/>
<path d="M564.485 108.987C562.287 107.838 560 106.721 557.635 105.633C558.292 104.036 558.913 102.455 559.488 100.895C568.927 75.2914 568.586 53.4634 557.491 44.6164C546.851 36.1332 526.731 40.2595 504.947 54.1027C502.852 55.4339 500.738 56.8589 498.612 58.3659C497.555 56.9963 496.493 55.6668 495.427 54.3874C477.96 33.4234 458.878 22.8171 445.672 28.0111C433.009 32.9915 426.535 52.4847 427.65 78.2707C427.757 80.7613 427.937 83.3153 428.183 85.9217C425.198 86.3014 422.304 86.7499 419.521 87.2716C394.62 91.9425 377.56 102.583 375.533 115.99C373.44 129.836 387.557 146.175 410.921 158.32C412.765 159.279 414.688 160.212 416.676 161.123C415.591 163.738 414.602 166.311 413.716 168.833C405.323 192.737 406.018 212.83 416.618 221.284C427.568 230.015 448.774 225.948 470.968 211.776C472.722 210.656 474.494 209.455 476.279 208.184C478.004 210.434 479.742 212.579 481.486 214.608C498.004 233.818 515.76 243.251 528.377 238.288C541.409 233.162 548.477 212.759 547.282 186.454C547.191 184.445 547.043 182.384 546.845 180.28C548.322 180.075 549.775 179.854 551.196 179.61C578.092 174.996 596.83 163.796 598.951 149.765C600.985 136.31 587.359 120.941 564.485 108.987Z" fill="#53C1DE"/>
<path d="M549.564 170.096C548.281 170.316 546.969 170.517 545.634 170.703C544.16 161.324 541.783 151.229 538.599 140.689C544.507 131.763 549.596 122.92 553.689 114.442C555.874 115.449 557.987 116.482 560.014 117.541C579.612 127.784 590.633 140.214 589.407 148.322C588.101 156.959 572.786 166.112 549.564 170.096ZM537.639 186.892C538.168 198.524 536.943 208.783 534.256 216.541C531.841 223.512 528.442 227.89 524.843 229.305C517.186 232.316 502.93 224.742 488.804 208.314C487.185 206.43 485.568 204.437 483.961 202.342C491.297 196.409 498.799 189.356 506.283 181.395C517.229 182.069 527.67 182.045 537.247 181.304C537.425 183.212 537.557 185.076 537.639 186.892ZM438.396 215.516C431.15 216.905 425.661 216.147 422.637 213.736C416.205 208.606 415.647 192.473 422.825 172.031C423.647 169.689 424.566 167.296 425.577 164.86C434.423 168.267 444.332 171.255 455.026 173.769C459.893 183.402 465.158 192.376 470.623 200.363C468.989 201.524 467.372 202.619 465.773 203.64C455.96 209.907 446.46 213.969 438.396 215.516ZM415.373 149.756C405.042 144.385 396.777 138.186 391.409 131.973C386.585 126.39 384.499 121.255 385.077 117.432C386.307 109.297 400.005 100.754 421.3 96.7592C423.884 96.2745 426.575 95.8564 429.356 95.5019C430.777 105.019 433.007 115.081 435.979 125.365C430.021 134.445 424.841 143.542 420.627 152.316C418.809 151.482 417.054 150.629 415.373 149.756ZM437.293 77.8538C436.338 55.761 441.574 39.9953 449.205 36.9942C457.334 33.797 472.929 42.4653 488.011 60.5665C488.975 61.7235 489.936 62.9273 490.895 64.1673C483.35 70.1561 475.737 77.1218 468.302 84.8427C457.648 84.2281 447.353 84.272 437.788 84.969C437.561 82.5423 437.393 80.1667 437.293 77.8538ZM530.068 116.22C528.435 112.067 526.729 107.996 524.963 104.019C531.955 105.998 538.604 108.227 544.797 110.66C541.938 116.541 538.563 122.63 534.738 128.818C533.293 124.664 531.736 120.46 530.068 116.22ZM496.554 71.9997C500.236 77.4346 503.839 83.4261 507.302 89.8591C502.964 88.9921 498.556 88.216 494.096 87.5417C489.678 86.8737 485.271 86.3149 480.897 85.8612C486.103 80.7936 491.354 76.1481 496.554 71.9997ZM451.206 104.365C448.418 107.861 445.731 111.401 443.152 114.965C441.369 107.953 439.971 101.112 438.975 94.5594C445.565 94.0966 452.539 93.9578 459.756 94.1446C456.856 97.4497 454 100.86 451.206 104.364L451.206 104.365ZM449.636 162.466C442.441 160.543 435.709 158.394 429.546 156.043C432.482 149.971 435.913 143.718 439.769 137.414C441.185 141.579 442.714 145.758 444.356 149.932L444.356 149.932C446.028 154.183 447.794 158.368 449.636 162.466ZM478.306 194.5C474.52 188.935 470.824 182.854 467.295 176.381C471.548 177.195 475.896 177.941 480.328 178.611C484.882 179.299 489.4 179.877 493.86 180.35C488.616 185.604 483.406 190.347 478.306 194.5ZM531.488 150.929C533.446 158.186 534.967 165.152 536.019 171.716C529.318 172.215 522.144 172.348 514.641 172.118C517.516 168.794 520.379 165.347 523.219 161.787C526.091 158.184 528.85 154.558 531.488 150.929ZM515.672 155.769C511.264 161.296 506.805 166.535 502.34 171.441C495.638 170.913 488.752 170.122 481.771 169.066C474.819 168.015 468.088 166.777 461.64 165.37C458.689 159.269 455.902 152.917 453.338 146.399L453.339 146.399C450.781 139.897 448.507 133.387 446.527 126.956C450.321 121.384 454.411 115.829 458.754 110.382L458.753 110.383C463.108 104.922 467.611 99.7012 472.193 94.7748C478.914 95.277 485.767 96.045 492.653 97.086L492.653 97.086C499.57 98.1317 506.352 99.4271 512.918 100.938C515.788 106.95 518.525 113.246 521.084 119.753C523.673 126.334 525.985 132.816 528.006 139.135C524.2 144.677 520.074 150.248 515.672 155.769ZM551.473 52.1642C558.303 57.6097 558.581 75.4497 550.432 97.556C549.912 98.9666 549.35 100.398 548.756 101.846C539.81 98.3059 529.985 95.1927 519.597 92.611C514.779 82.9407 509.619 74.0313 504.274 66.1853C506.24 64.7933 508.193 63.4776 510.125 62.2496C528.789 50.3888 545.062 47.052 551.473 52.1642Z" fill="white"/>
<path d="M490.258 112.927C501.276 114.593 508.858 124.875 507.193 135.893C505.527 146.911 495.244 154.493 484.226 152.828C473.208 151.162 465.626 140.879 467.292 129.861C468.958 118.843 479.24 111.261 490.258 112.927Z" fill="#53C1DE"/>
</g>
<defs>
<clipPath id="clip0">
<rect width="256" height="230" fill="white" transform="translate(377.628 0.158936) rotate(8.59664)"/>
</clipPath>
</defs>
</svg>
