<svg width="748" height="644" viewBox="0 0 748 644" fill="none" xmlns="http://www.w3.org/2000/svg">
<path d="M267.808 276C258.128 276 249.551 274.013 242.077 270.04C234.603 266.067 228.721 260.409 224.433 253.065C220.144 245.6 218 236.751 218 226.518V147.418H239.871V227.962C239.871 233.26 240.974 238.136 243.18 242.59C245.508 246.925 248.755 250.416 252.921 253.065C257.209 255.713 262.172 257.038 267.808 257.038C273.567 257.038 278.529 255.713 282.695 253.065C286.984 250.416 290.231 246.925 292.436 242.59C294.642 238.136 295.745 233.26 295.745 227.962V147.418H317.8V227.962C317.8 233.26 318.903 238.136 321.108 242.59C323.436 246.925 326.683 250.416 330.849 253.065C335.015 255.713 339.978 257.038 345.736 257.038C351.495 257.038 356.458 255.713 360.624 253.065C364.79 250.416 367.975 246.925 370.181 242.59C372.509 238.136 373.673 233.26 373.673 227.962V147.418H395.544V226.518C395.544 236.751 393.4 245.6 389.112 253.065C384.823 260.409 378.942 266.067 371.467 270.04C363.993 274.013 355.416 276 345.736 276C340.345 276 335.138 275.278 330.114 273.833C325.213 272.388 320.802 270.161 316.881 267.151C312.96 264.141 309.59 260.529 306.772 256.315C304.077 260.529 300.707 264.141 296.664 267.151C292.62 270.04 288.148 272.268 283.247 273.833C278.468 275.278 273.322 276 267.808 276Z" fill="#3A3A3A"/>
<path d="M467.537 273.833C456.999 273.833 447.748 271.907 439.784 268.054C431.942 264.081 425.816 258.663 421.405 251.801C416.994 244.818 414.788 236.811 414.788 227.782C414.788 218.27 416.749 209.903 420.67 202.679C424.59 195.456 429.982 189.797 436.843 185.704C443.705 181.61 451.608 179.563 460.553 179.563C470.6 179.563 478.871 181.67 485.365 185.884C491.859 190.098 496.637 195.757 499.701 202.86C502.886 209.963 504.479 217.909 504.479 226.698C504.479 227.902 504.418 229.287 504.296 230.852C504.173 232.417 503.989 233.621 503.744 234.464H437.211C437.946 239.279 439.723 243.313 442.541 246.563C445.359 249.694 448.912 252.102 453.201 253.787C457.489 255.352 462.268 256.135 467.537 256.135H492.717V273.833H467.537ZM437.027 220.377H483.343C483.221 218.09 482.853 215.802 482.24 213.515C481.75 211.227 480.892 209.06 479.667 207.013C478.564 204.967 477.094 203.221 475.256 201.776C473.541 200.211 471.458 199.007 469.007 198.164C466.557 197.201 463.738 196.72 460.553 196.72C456.877 196.72 453.63 197.442 450.812 198.887C447.993 200.211 445.604 202.017 443.644 204.305C441.683 206.472 440.152 209 439.049 211.889C438.069 214.659 437.395 217.488 437.027 220.377Z" fill="#3A3A3A"/>
<path d="M572.19 276C562.633 276 554.178 274.013 546.826 270.04C539.475 266.067 533.716 260.409 529.55 253.065C525.506 245.6 523.485 236.811 523.485 226.698V142H544.621V195.636H544.805C546.765 192.385 549.338 189.556 552.524 187.148C555.71 184.74 559.263 182.874 563.184 181.55C567.105 180.226 571.271 179.563 575.682 179.563C584.627 179.563 592.468 181.55 599.208 185.523C606.069 189.376 611.399 194.793 615.198 201.776C619.119 208.759 621.079 216.946 621.079 226.337C621.079 233.681 619.915 240.423 617.587 246.563C615.381 252.583 612.134 257.82 607.846 262.275C603.68 266.73 598.595 270.161 592.591 272.569C586.587 274.856 579.787 276 572.19 276ZM572.19 258.302C577.581 258.302 582.36 257.038 586.526 254.509C590.692 251.861 593.939 248.249 596.267 243.674C598.595 239.099 599.759 233.801 599.759 227.782C599.759 221.882 598.595 216.645 596.267 212.07C593.939 207.495 590.692 203.883 586.526 201.235C582.482 198.586 577.765 197.261 572.374 197.261C566.982 197.261 562.204 198.586 558.038 201.235C553.872 203.763 550.625 207.314 548.297 211.889C545.969 216.465 544.805 221.762 544.805 227.782C544.805 233.801 545.969 239.099 548.297 243.674C550.625 248.249 553.872 251.861 558.038 254.509C562.204 257.038 566.921 258.302 572.19 258.302Z" fill="#3A3A3A"/>
<path d="M641.065 273.833V181.73H662.201V273.833H641.065ZM651.541 168.908C647.865 168.908 644.68 167.584 641.984 164.935C639.288 162.287 637.941 159.156 637.941 155.544C637.941 151.933 639.288 148.802 641.984 146.154C644.68 143.505 647.865 142.181 651.541 142.181C655.34 142.181 658.525 143.505 661.099 146.154C663.794 148.802 665.142 151.933 665.142 155.544C665.142 159.156 663.794 162.287 661.099 164.935C658.525 167.584 655.34 168.908 651.541 168.908Z" fill="#3A3A3A"/>
<path d="M215.55 525.914V507.659H268.563C271.968 507.659 274.904 506.848 277.369 505.225C279.953 503.602 281.949 501.516 283.358 498.966C284.884 496.301 285.647 493.519 285.647 490.621C285.647 487.492 284.943 484.652 283.534 482.102C282.125 479.553 280.129 477.524 277.545 476.018C275.08 474.511 272.203 473.757 268.915 473.757H246.9C239.972 473.757 233.749 472.367 228.231 469.585C222.83 466.687 218.544 462.689 215.374 457.589C212.204 452.489 210.618 446.462 210.618 439.508C210.618 432.554 212.145 426.469 215.198 421.253C218.25 415.922 222.419 411.749 227.702 408.736C232.986 405.722 238.974 404.216 245.667 404.216H298.68V422.47H247.604C244.552 422.47 241.792 423.224 239.327 424.73C236.861 426.237 234.924 428.208 233.515 430.642C232.223 433.075 231.577 435.683 231.577 438.465C231.577 441.363 232.223 444.028 233.515 446.462C234.924 448.78 236.802 450.693 239.15 452.199C241.616 453.59 244.375 454.286 247.428 454.286H269.972C277.487 454.286 283.945 455.734 289.346 458.632C294.864 461.53 299.091 465.528 302.027 470.628C305.08 475.728 306.606 481.581 306.606 488.187C306.606 495.953 305.021 502.675 301.851 508.354C298.798 513.918 294.571 518.264 289.17 521.394C283.886 524.407 277.898 525.914 271.205 525.914H215.55Z" fill="#3A3A3A"/>
<path d="M368.946 525.914C359.67 525.914 351.392 523.943 344.112 520.003C336.832 516.062 331.079 510.788 326.852 504.182C322.625 497.46 320.511 489.926 320.511 481.581C320.511 473.236 322.625 465.76 326.852 459.154C331.079 452.431 336.832 447.1 344.112 443.159C351.392 439.218 359.67 437.248 368.946 437.248H379.865V454.286H368.593C363.192 454.286 358.378 455.503 354.151 457.937C350.042 460.255 346.813 463.5 344.464 467.673C342.116 471.845 340.942 476.481 340.942 481.581C340.942 486.681 342.116 491.317 344.464 495.489C346.813 499.662 350.042 502.965 354.151 505.399C358.378 507.717 363.192 508.876 368.593 508.876H379.865V525.914H368.946Z" fill="#3A3A3A"/>
<path d="M397.513 525.914V399H417.768V446.115C421.408 442.29 425.635 439.508 430.449 437.77C435.263 436.031 440.135 435.162 445.067 435.162C453.286 435.162 460.272 436.9 466.026 440.377C471.896 443.739 476.358 448.433 479.411 454.46C482.464 460.371 483.99 467.151 483.99 474.801V525.914H463.912V474.974C463.912 470.454 462.797 466.513 460.566 463.152C458.452 459.675 455.634 457.009 452.112 455.155C448.707 453.185 444.891 452.199 440.664 452.199C436.672 452.199 432.914 453.127 429.392 454.981C425.869 456.836 423.051 459.443 420.938 462.805C418.824 466.166 417.768 469.991 417.768 474.279V525.914H397.513Z" fill="#3A3A3A"/>
<path d="M551.077 528C541.801 528 533.582 525.972 526.42 521.915C519.257 517.743 513.563 512.179 509.336 505.225C505.226 498.155 503.171 490.274 503.171 481.581C503.171 472.888 505.226 465.065 509.336 458.111C513.563 451.04 519.257 445.477 526.42 441.42C533.582 437.248 541.801 435.162 551.077 435.162C560.235 435.162 568.396 437.248 575.558 441.42C582.721 445.477 588.357 451.04 592.466 458.111C596.693 465.065 598.807 472.888 598.807 481.581C598.807 490.274 596.693 498.155 592.466 505.225C588.357 512.179 582.721 517.743 575.558 521.915C568.396 525.972 560.235 528 551.077 528ZM551.077 510.962C556.596 510.962 561.41 509.687 565.519 507.137C569.629 504.472 572.799 500.937 575.03 496.532C577.261 492.012 578.376 487.028 578.376 481.581C578.376 476.133 577.261 471.208 575.03 466.803C572.799 462.283 569.629 458.748 565.519 456.198C561.41 453.532 556.596 452.199 551.077 452.199C545.441 452.199 540.568 453.532 536.459 456.198C532.467 458.748 529.296 462.283 526.948 466.803C524.717 471.208 523.602 476.133 523.602 481.581C523.602 487.028 524.717 492.012 526.948 496.532C529.296 500.937 532.467 504.472 536.459 507.137C540.568 509.687 545.441 510.962 551.077 510.962Z" fill="#3A3A3A"/>
<path d="M660.81 528C651.535 528 643.315 525.972 636.153 521.915C628.991 517.743 623.296 512.179 619.069 505.225C614.959 498.155 612.905 490.274 612.905 481.581C612.905 472.888 614.959 465.065 619.069 458.111C623.296 451.04 628.991 445.477 636.153 441.42C643.315 437.248 651.535 435.162 660.81 435.162C669.969 435.162 678.129 437.248 685.292 441.42C692.454 445.477 698.09 451.04 702.2 458.111C706.427 465.065 708.54 472.888 708.54 481.581C708.54 490.274 706.427 498.155 702.2 505.225C698.09 512.179 692.454 517.743 685.292 521.915C678.129 525.972 669.969 528 660.81 528ZM660.81 510.962C666.329 510.962 671.143 509.687 675.253 507.137C679.362 504.472 682.532 500.937 684.763 496.532C686.994 492.012 688.11 487.028 688.11 481.581C688.11 476.133 686.994 471.208 684.763 466.803C682.532 462.283 679.362 458.748 675.253 456.198C671.143 453.532 666.329 452.199 660.81 452.199C655.174 452.199 650.302 453.532 646.192 456.198C642.2 458.748 639.03 462.283 636.681 466.803C634.451 471.208 633.335 476.133 633.335 481.581C633.335 487.028 634.451 492.012 636.681 496.532C639.03 500.937 642.2 504.472 646.192 507.137C650.302 509.687 655.174 510.962 660.81 510.962Z" fill="#3A3A3A"/>
<path d="M727.746 525.914V399H748V525.914H727.746Z" fill="#3A3A3A"/>
<path d="M11.4 331.68C44.04 325.6 60.36 308.8 60.36 281.28C60.36 269.12 58.76 248.32 55.56 218.88C52.36 187.52 50.76 164.8 50.76 150.72C50.76 127.68 57.16 110.08 69.96 97.92C83.08 85.76 100.52 79.68 122.28 79.68H150.12V117.6H130.44C117.96 117.6 108.68 120.48 102.6 126.24C96.52 131.68 93.48 140.8 93.48 153.6C93.48 162.88 94.12 174.4 95.4 188.16C96.68 201.6 97.48 210.72 97.8 215.52C101 246.24 102.6 268.64 102.6 282.72C102.6 299.68 98.28 313.92 89.64 325.44C81.32 336.64 68.36 344.16 50.76 348V348.96C68.36 352.8 81.32 360.48 89.64 372C98.28 383.52 102.6 397.76 102.6 414.72C102.6 428.8 101 451.2 97.8 481.92C97.48 486.72 96.68 496 95.4 509.76C94.12 523.2 93.48 534.56 93.48 543.84C93.48 556.64 96.52 565.76 102.6 571.2C108.68 576.96 117.96 579.84 130.44 579.84H150.12V617.76H122.28C100.52 617.76 83.08 611.68 69.96 599.52C57.16 587.36 50.76 569.76 50.76 546.72C50.76 532.64 52.36 509.92 55.56 478.56C58.76 449.12 60.36 428.32 60.36 416.16C60.36 388.64 44.04 371.84 11.4 365.76V331.68Z" fill="#EBB811"/>
</svg>
