<?xml version="1.0" encoding="utf-8"?>
<!-- Generator: Adobe Illustrator 24.2.3, SVG Export Plug-In . SVG Version: 6.00 Build 0)  -->
<svg version="1.1" id="Layer_1" xmlns="http://www.w3.org/2000/svg" xmlns:xlink="http://www.w3.org/1999/xlink" x="0px" y="0px"
	 viewBox="0 0 200 200" style="enable-background:new 0 0 200 200;" xml:space="preserve">
<style type="text/css">
	.st0{fill:#B2B2B2;}
</style>
<g>
	<g>
		<path class="st0" d="M154.9,156c-26.8,0-46.3-20.7-46.3-49.3c0-28.5,19.4-49.1,46.3-49.1c26.7,0,46.1,20.6,46.1,49.1v3.8h-67
			l0.1,0.8c1.3,14.1,10.1,24.3,20.9,24.3c10.1,0,17.1-6.7,19.6-18.9c0.1-0.4,0.4-0.7,0.8-0.7h24c0.2,0,0.5,0.1,0.6,0.3
			s0.2,0.4,0.2,0.7C196.6,134.8,186,156,154.9,156z M154.9,78.1c-9.9,0-17.8,7.1-19.6,17.6l-0.1,0.8h39.3l-0.2-0.8
			C172.2,85,164.6,78.1,154.9,78.1z M5.8,156c-0.4,0-0.8-0.4-0.8-0.8V25.8C5,25.4,5.3,25,5.8,25h60.7c17,0,30.9,14.8,30.9,33.1
			c0,10.6-4.8,20.6-13,26.8l-0.9,0.7l1.1,0.5c11.6,5.3,19.1,17.2,19.1,30.4c0,21.8-16.6,39.5-37.1,39.5H5.8z M30.3,129.1h33
			c4,0,8-1.8,10.8-4.9c2.7-3,4.2-6.9,4.1-11c-0.5-15-15-15.8-17.9-15.8h-30V129.1z M30.3,77.1h30c3.6,0,6.9-1.7,9.2-4.7
			c2.3-3,3.1-6.8,2.4-10.6c-1.1-5.8-6.2-10-12.2-10H30.2C30.2,51.9,30.2,77.1,30.3,77.1z M127.8,51.9c-0.4,0-0.8-0.4-0.8-0.8V32.3
			c0-0.5,0.3-0.8,0.8-0.8h54.1c0.4,0,0.8,0.4,0.8,0.8v18.8c0,0.5-0.4,0.8-0.8,0.8H127.8z"/>
	</g>
</g>
</svg>
