<?xml version="1.0" encoding="utf-8"?>
<!-- Generator: Adobe Illustrator 24.2.3, SVG Export Plug-In . SVG Version: 6.00 Build 0)  -->
<svg version="1.1" xmlns="http://www.w3.org/2000/svg" xmlns:xlink="http://www.w3.org/1999/xlink" x="0px" y="0px"
	 viewBox="0 0 200 200" style="enable-background:new 0 0 200 200;" xml:space="preserve">
<style type="text/css">
	.st0{display:none;}
	.st1{display:inline;}
	.st2{display:inline;fill:#B2B2B2;stroke:#1C1C1C;stroke-width:4;stroke-miterlimit:10;}
	.st3{fill:#B2B2B2;}
	.st4{fill:#FFFFFF;}
</style>
<g id="Layer_1" class="st0">
	<g class="st1">
		<g class="st0">
			<path class="st2" d="M100,200L100,200C44.8,200,0,155.2,0,100l0,0C0,44.8,44.8,0,100,0l0,0c55.2,0,100,44.8,100,100l0,0
				C200,155.2,155.2,200,100,200z"/>
		</g>
		<g>
			<g>
				<path class="st3" d="M144.9,0H55.1C24.7,0,0,24.7,0,55.1v89.7C0,175.3,24.7,200,55.1,200h89.7c30.4,0,55.1-24.7,55.1-55.1V55.1
					C200,24.7,175.3,0,144.9,0z M183.8,144.6c0,21.6-17.6,39.2-39.2,39.2H55.4c-21.7,0-39.2-17.6-39.2-39.2V55.4
					c0-21.7,17.5-39.2,39.2-39.2h89.3c21.6,0,39.2,17.5,39.2,39.2v89.2H183.8z"/>
				<path class="st3" d="M100,47.3c-29.1,0-52.7,23.6-52.7,52.7s23.6,52.7,52.7,52.7s52.7-23.6,52.7-52.7S129.1,47.3,100,47.3z
					 M100,134.4c-19,0-34.4-15.4-34.4-34.4S81,65.6,100,65.6S134.4,81,134.4,100S119,134.4,100,134.4z"/>
				<path class="st3" d="M166.3,45.5c0,6.5-5.3,11.8-11.8,11.8s-11.8-5.3-11.8-11.8s5.3-11.8,11.8-11.8S166.3,39,166.3,45.5z"/>
			</g>
		</g>
	</g>
</g>
<g id="Layer_2">
	<path id="surface1" class="st4" d="M73.5,17.5c0,0-27.7,1.9-45.8,16.4c-0.1,0-0.2,0.1-0.3,0.1c-3.1,2.9-5.5,7.4-8.4,13.9
		c-2.9,6.5-6,14.8-8.8,24C4.6,90.6,0,113.4,0,134.9c0,0.8,0.2,1.5,0.5,2.2c6.3,11.2,18,17.9,28.9,22.1c10.9,4.2,21,5.9,26.1,6.1
		c1.4,0.1,2.8-0.6,3.7-1.8l10.6-14.7c8.5,2,18.6,3.4,30.2,3.4s21.6-1.4,30.2-3.4l10.6,14.7c0.8,1.2,2.2,1.8,3.7,1.8
		c5.1-0.2,15.2-1.9,26.1-6.1c10.9-4.2,22.6-11,28.9-22.1c0.4-0.7,0.6-1.4,0.5-2.2c0-21.5-4.6-44.3-10.2-62.9
		c-2.8-9.3-5.9-17.6-8.8-24c-2.9-6.5-5.3-11-8.4-13.9c-0.1-0.1-0.2-0.1-0.3-0.1c-18.1-14.5-45.8-16.4-45.8-16.4c-0.3,0-0.6,0-1,0
		c-1.5,0.2-2.8,1.2-3.4,2.6c0,0-1.5,3.2-2.4,7.9c-8.5-1.4-15.6-1.8-19.7-1.8S88.8,26.6,80.3,28c-1-4.6-2.4-7.9-2.4-7.9
		C77.1,18.4,75.4,17.3,73.5,17.5z M70.8,26.9c0.3,0.9,0.5,1.7,0.8,2.7c-9.8,2.3-20.5,6-30.6,12.2c-1.6,0.7-2.6,2.2-2.7,3.9
		c0,1.7,0.9,3.3,2.5,4c1.5,0.7,3.4,0.5,4.7-0.6C65.7,36.7,91.3,34.9,100,34.9s34.3,1.8,54.5,14.3c1.3,1.1,3.1,1.3,4.7,0.6
		c1.5-0.7,2.5-2.3,2.5-4c0-1.7-1.1-3.2-2.7-3.9c-10-6.2-20.8-10-30.6-12.2c0.3-1,0.5-1.8,0.8-2.7c5,0.6,24.2,3.2,37.4,13.6
		c0.9,0.8,3.8,5.1,6.5,11.1c2.7,6,5.6,13.8,8.3,22.8c5.3,17.5,9.6,39.1,9.8,59c-4.9,8-14.2,13.9-23.8,17.7
		c-8.7,3.4-16.8,4.9-21.1,5.3l-7.3-9.9c3.4-1.1,6.8-2.4,10.1-3.8c11-4.8,16.8-9.9,16.8-9.9c1.8-1.7,1.8-4.4,0.2-6.2
		c-1.6-1.7-4.2-1.8-6-0.3c0,0-4.6,4.2-14.5,8.6c-3.7,1.6-8.1,3.2-13.2,4.6c-1.2-0.1-2.3,0.2-3.3,1c-8.1,2-17.7,3.3-29.1,3.3
		c-11.4,0-21.1-1.4-29.2-3.4c-0.9-0.6-2-0.9-3.1-0.7c-4.5-1.3-8.9-2.9-13.2-4.8c-10-4.4-14.5-8.6-14.5-8.6c-1-0.9-2.3-1.3-3.7-1.1
		c-1.8-1.6-4.6-1.3-6.1,0.5c-1.6,1.8-1.3,4.6,0.5,6.1c1,0.8,2.2,1.2,3.4,1c0,0,5.9,5.1,16.8,9.9c3,1.3,6.3,2.6,10.1,3.8l-7.3,9.9
		c-4.2-0.4-12.4-1.9-21.1-5.3c-9.6-3.7-18.8-9.7-23.8-17.7c0.2-19.8,4.5-41.4,9.8-59c2.7-9,5.6-16.8,8.3-22.8
		c2.7-6,5.7-10.4,6.5-11.1C46.6,30.1,65.8,27.5,70.8,26.9z M71.7,78.4c-11.1,0-19.6,10.1-19.6,21.7s8.5,21.7,19.6,21.7
		s19.6-10.1,19.6-21.7S82.8,78.4,71.7,78.4z M128.3,78.4c-11.1,0-19.6,10.1-19.6,21.7s8.5,21.7,19.6,21.7s19.6-10.1,19.6-21.7
		S139.3,78.4,128.3,78.4z M71.7,87.1c5.7,0,10.9,5.5,10.9,13s-5.1,13-10.9,13s-10.9-5.5-10.9-13S66,87.1,71.7,87.1z M128.3,87.1
		c5.7,0,10.9,5.5,10.9,13s-5.1,13-10.9,13c-5.7,0-10.9-5.5-10.9-13S122.5,87.1,128.3,87.1z"/>
</g>
</svg>
