<?xml version="1.0" encoding="utf-8"?>
<!-- Generator: Adobe Illustrator 24.2.3, SVG Export Plug-In . SVG Version: 6.00 Build 0)  -->
<svg version="1.1" id="Capa_1" xmlns="http://www.w3.org/2000/svg" xmlns:xlink="http://www.w3.org/1999/xlink" x="0px" y="0px"
	 viewBox="0 0 49.5 49.5" style="enable-background:new 0 0 49.5 49.5;" xml:space="preserve">
<style type="text/css">
	.st0{fill:#969696;}
</style>
<g>
	<path class="st0" d="M25.1,9.8c-4.4,0-8.1,2.9-9.1,7.2c0,0.2,0,0.4,0.1,0.6s0.3,0.3,0.4,0.3l5.1,1.3c0.4,0.1,0.7-0.1,0.9-0.5
		c0.4-1.1,1.4-2.3,2.6-2.3c1.9,0,2.5,1.2,2.5,2.3c0,1.1,0,2.6-4.9,2.6c-0.4,0-0.7,0.3-0.7,0.7v7.6c0,0.4,0.3,0.7,0.7,0.7h5.2
		c0.4,0,0.7-0.3,0.7-0.7v-2.7c3.4-0.8,6.1-4.1,6.1-7.6C34.6,13.5,30.9,9.8,25.1,9.8z M27.7,25.6c-0.4,0-0.6,0.4-0.6,0.7v2.6h-3.7
		v-6.2c4-0.1,5.6-1.3,5.6-4c0-2.2-1.6-3.7-4-3.7c-2.1,0-3.3,1.9-3.7,2.7l-3.8-0.9c1.1-3.3,4.1-5.4,7.5-5.4c5,0,8.1,3.1,8.1,8
		C33.2,22.4,30.7,25.2,27.7,25.6z"/>
	<path class="st0" d="M25,31.7c-2.2,0-3.9,1.7-3.9,3.9c0,2.2,1.7,3.8,3.9,3.8c2.2,0,3.9-1.7,3.9-3.8C28.9,33.3,27.2,31.7,25,31.7z
		 M25,37.9c-1.4,0-2.4-1-2.4-2.4c0-1.4,1-2.4,2.4-2.4c1.4,0,2.4,1,2.4,2.4C27.4,36.9,26.4,37.9,25,37.9z"/>
</g>
</svg>
