<?xml version="1.0" encoding="utf-8"?>
<!-- Generator: Adobe Illustrator 24.2.3, SVG Export Plug-In . SVG Version: 6.00 Build 0)  -->
<svg version="1.1" id="Layer_2" xmlns="http://www.w3.org/2000/svg" xmlns:xlink="http://www.w3.org/1999/xlink" x="0px" y="0px"
	 viewBox="0 0 200 200" style="enable-background:new 0 0 200 200;" xml:space="preserve">
<style type="text/css">
	.st0{fill:#B2B2B2;}
</style>
<path class="st0" d="M73.3,87.7c-8.5,0-15.4,8.1-15.4,18s6.9,18,15.4,18s15.4-8.1,15.4-18S81.8,87.7,73.3,87.7z M73.3,118.5
	c-5.7,0-10.3-5.8-10.3-12.8c0-7.1,4.6-12.8,10.3-12.8c5.7,0,10.3,5.8,10.3,12.8C83.5,112.7,78.9,118.5,73.3,118.5z M124.6,87.7
	c-8.5,0-15.4,8.1-15.4,18s6.9,18,15.4,18s15.4-8.1,15.4-18S133.1,87.7,124.6,87.7z M124.6,118.5c-5.7,0-10.3-5.8-10.3-12.8
	c0-7.1,4.6-12.8,10.3-12.8s10.3,5.8,10.3,12.8C134.9,112.7,130.3,118.5,124.6,118.5z"/>
<path class="st0" d="M179.4,129.2c-2.9-26.7-9.2-52.1-17.7-71.4c-1.1-2.5-3.1-4.6-5.5-5.9c-9.7-5.2-20.3-9.1-31.4-11.5
	c-4.1-0.9-8.1,1.6-9.1,5.7l-1.1,4.4c-4.7-0.8-9.9-1.3-15.6-1.3S88,49.7,83.3,50.5L82.2,46c-1-4.1-5-6.5-9.1-5.7
	C62,42.8,51.4,46.6,41.7,51.9c-2.4,1.3-4.4,3.4-5.5,6c-8.5,19.3-14.8,44.6-17.7,71.4c-0.5,4.2,1.2,8.4,4.5,11.2
	c9.8,8.3,21.2,14.8,33.7,19.5c0.9,0.3,1.8,0.5,2.7,0.5c2.9,0,5.6-1.6,6.9-4.3l6.1-12.2c8.6,1.9,17.4,2.9,26.5,2.9s17.9-1,26.5-2.9
	l6.1,12.2c1.3,2.7,4,4.3,6.9,4.3c0.9,0,1.8-0.2,2.7-0.5c12.5-4.6,23.9-11.2,33.7-19.5C178.1,137.5,179.8,133.4,179.4,129.2z
	 M171.5,136.4c-9.4,7.9-20.2,14.2-32.2,18.6c-1.3,0.5-2.7-0.1-3.3-1.2l-5.5-11.1c6.2-1.7,12.3-3.8,18.2-6.5c1.3-0.6,1.9-2.1,1.3-3.4
	c-0.6-1.3-2.1-1.9-3.4-1.3c-14.9,6.7-31,10.1-47.7,10.1s-32.8-3.4-47.7-10.1c-1.3-0.6-2.8,0-3.4,1.3c-0.6,1.3,0,2.8,1.3,3.4
	c5.9,2.7,12,4.8,18.2,6.5l-5.5,11.1c-0.6,1.2-2,1.7-3.3,1.2c-12-4.4-22.8-10.7-32.2-18.6c-2-1.7-3-4.2-2.7-6.7
	c2.8-26.2,9-51,17.3-69.8c0.7-1.5,1.8-2.7,3.2-3.5c9.3-5,19.4-8.7,30-11c1.4-0.3,2.7,0.5,3.1,1.9l1,4.2c-13.6,3.1-21.4,8.4-21.8,8.7
	c-1.2,0.8-1.5,2.4-0.7,3.6c0.5,0.7,1.3,1.1,2.1,1.1c0.5,0,1-0.1,1.4-0.4c0.2-0.1,15.1-10.1,39.6-10.1s39.5,10,39.6,10.1
	c1.2,0.8,2.8,0.5,3.6-0.7c0.8-1.2,0.5-2.8-0.7-3.6c-0.5-0.3-8.3-5.5-21.8-8.7l1-4.2c0.3-1.4,1.7-2.2,3.1-1.9c10.6,2.3,20.7,6,30,11
	c1.4,0.8,2.6,2,3.2,3.5c8.3,18.8,14.5,43.6,17.3,69.8C174.5,132.2,173.5,134.7,171.5,136.4z"/>
</svg>
