<?xml version="1.0" encoding="utf-8"?>
<!-- Generator: Adobe Illustrator 24.2.3, SVG Export Plug-In . SVG Version: 6.00 Build 0)  -->
<svg version="1.1" id="Layer_1" xmlns="http://www.w3.org/2000/svg" xmlns:xlink="http://www.w3.org/1999/xlink" x="0px" y="0px"
	 viewBox="0 0 200 200" style="enable-background:new 0 0 200 200;" xml:space="preserve">
<style type="text/css">
	.st0{display:none;}
	.st1{display:inline;fill:#B2B2B2;stroke:#1C1C1C;stroke-width:4;stroke-miterlimit:10;}
	.st2{fill:#B2B2B2;}
</style>
<g>
	<g class="st0">
		<path class="st1" d="M100,200L100,200C44.8,200,0,155.2,0,100l0,0C0,44.8,44.8,0,100,0l0,0c55.2,0,100,44.8,100,100l0,0
			C200,155.2,155.2,200,100,200z"/>
	</g>
	<g>
		<g>
			<path class="st2" d="M144.9,0H55.1C24.7,0,0,24.7,0,55.1v89.7C0,175.3,24.7,200,55.1,200h89.7c30.4,0,55.1-24.7,55.1-55.1V55.1
				C200,24.7,175.3,0,144.9,0z M183.8,144.6c0,21.6-17.6,39.2-39.2,39.2H55.4c-21.7,0-39.2-17.6-39.2-39.2V55.4
				c0-21.7,17.5-39.2,39.2-39.2h89.3c21.6,0,39.2,17.5,39.2,39.2V144.6z"/>
			<path class="st2" d="M100,47.3c-29.1,0-52.7,23.6-52.7,52.7s23.6,52.7,52.7,52.7s52.7-23.6,52.7-52.7
				C152.7,70.9,129.1,47.3,100,47.3z M100,134.4c-19,0-34.4-15.4-34.4-34.4S81,65.6,100,65.6S134.4,81,134.4,100
				S119,134.4,100,134.4z"/>
			<path class="st2" d="M166.3,45.5c0,6.5-5.3,11.8-11.8,11.8c-6.5,0-11.8-5.3-11.8-11.8s5.3-11.8,11.8-11.8
				C161,33.7,166.3,39,166.3,45.5z"/>
		</g>
	</g>
</g>
</svg>
