<svg enable-background="new 0 0 543.059 543.059" version="1.1" viewBox="0 0 543.06 543.06" xml:space="preserve" xmlns="http://www.w3.org/2000/svg"><path d="m346.44 468.14h-18.727v-297.08c0-5.062-1.855-9.456-5.557-13.17-3.709-3.703-8.098-5.557-13.164-5.557h-112.37c-5.073 0-9.461 1.854-13.17 5.557-3.708 3.715-5.563 8.103-5.563 13.17v37.454c0 5.074 1.854 9.462 5.563 13.17 3.703 3.715 8.091 5.569 13.17 5.569h18.727v240.88h-18.727c-5.073 0-9.461 1.855-13.17 5.557-3.708 3.715-5.563 8.104-5.563 13.17v37.455c0 5.074 1.854 9.461 5.563 13.17 3.703 3.715 8.091 5.57 13.17 5.57h149.82c5.074 0 9.461-1.855 13.17-5.57 3.703-3.701 5.564-8.09 5.564-13.17v-37.455c0-5.061-1.855-9.455-5.564-13.17-3.709-3.709-8.101-5.556-13.169-5.556z"/><circle cx="267.67" cy="62.92" r="62.92"/></svg>