<svg width="175" height="348" viewBox="0 0 175 348" fill="none" xmlns="http://www.w3.org/2000/svg">
<g clip-path="url(#clip0)">
<rect width="175" height="348" rx="28" fill="#F2F5FA"/>
<rect y="319.868" width="175" height="28.1317" fill="white"/>
<rect x="63.5" y="332.904" width="48" height="2.05937" rx="1.02968" fill="#E9E9E9"/>
<path d="M102.953 249.569C183.45 225.569 202.901 267.569 202.564 291.569L220.483 -698.431L78.4178 -660.931H9.86646L-168.679 -635.931L-182.004 -87.4311L-168.679 291.569C-142.95 243.069 -66.5692 214.269 -27.5335 243.069C21.261 279.069 2.33133 279.569 102.953 249.569Z" fill="url(#paint0_linear)"/>
<path d="M24.1514 28.2517V33.8277H23.4234V31.2997H20.5834V33.8277H19.8554V28.2517H20.5834V30.6997H23.4234V28.2517H24.1514ZM27.3065 33.8997C26.8958 33.8997 26.5225 33.8064 26.1865 33.6197C25.8558 33.433 25.5945 33.169 25.4025 32.8277C25.2158 32.481 25.1225 32.081 25.1225 31.6277C25.1225 31.1797 25.2185 30.785 25.4105 30.4437C25.6078 30.097 25.8745 29.833 26.2105 29.6517C26.5465 29.465 26.9225 29.3717 27.3385 29.3717C27.7545 29.3717 28.1305 29.465 28.4665 29.6517C28.8025 29.833 29.0665 30.0944 29.2585 30.4357C29.4558 30.777 29.5545 31.1744 29.5545 31.6277C29.5545 32.081 29.4532 32.481 29.2505 32.8277C29.0532 33.169 28.7838 33.433 28.4425 33.6197C28.1012 33.8064 27.7225 33.8997 27.3065 33.8997ZM27.3065 33.2597C27.5678 33.2597 27.8132 33.1984 28.0425 33.0757C28.2718 32.953 28.4558 32.769 28.5945 32.5237C28.7385 32.2784 28.8105 31.9797 28.8105 31.6277C28.8105 31.2757 28.7412 30.977 28.6025 30.7317C28.4638 30.4864 28.2825 30.305 28.0585 30.1877C27.8345 30.065 27.5918 30.0037 27.3305 30.0037C27.0638 30.0037 26.8185 30.065 26.5945 30.1877C26.3758 30.305 26.1998 30.4864 26.0665 30.7317C25.9332 30.977 25.8665 31.2757 25.8665 31.6277C25.8665 31.985 25.9305 32.2864 26.0585 32.5317C26.1918 32.777 26.3678 32.961 26.5865 33.0837C26.8052 33.201 27.0452 33.2597 27.3065 33.2597ZM35.7837 29.3637C36.125 29.3637 36.429 29.4357 36.6957 29.5797C36.9623 29.7184 37.173 29.929 37.3277 30.2117C37.4823 30.4944 37.5597 30.8384 37.5597 31.2437V33.8277H36.8397V31.3477C36.8397 30.9104 36.7303 30.577 36.5117 30.3477C36.2983 30.113 36.0077 29.9957 35.6397 29.9957C35.261 29.9957 34.9597 30.1184 34.7357 30.3637C34.5117 30.6037 34.3997 30.953 34.3997 31.4117V33.8277H33.6797V31.3477C33.6797 30.9104 33.5703 30.577 33.3517 30.3477C33.1383 30.113 32.8477 29.9957 32.4797 29.9957C32.101 29.9957 31.7997 30.1184 31.5757 30.3637C31.3517 30.6037 31.2397 30.953 31.2397 31.4117V33.8277H30.5117V29.4437H31.2397V30.0757C31.3837 29.8464 31.5757 29.6704 31.8157 29.5477C32.061 29.425 32.3303 29.3637 32.6237 29.3637C32.9917 29.3637 33.317 29.4464 33.5997 29.6117C33.8823 29.777 34.093 30.0197 34.2317 30.3397C34.3543 30.0304 34.557 29.7904 34.8397 29.6197C35.1223 29.449 35.437 29.3637 35.7837 29.3637ZM42.7539 31.4677C42.7539 31.6064 42.7459 31.753 42.7299 31.9077H39.2259C39.2525 32.3397 39.3992 32.6784 39.6659 32.9237C39.9379 33.1637 40.2659 33.2837 40.6499 33.2837C40.9645 33.2837 41.2259 33.2117 41.4339 33.0677C41.6472 32.9184 41.7965 32.721 41.8819 32.4757H42.6659C42.5485 32.897 42.3139 33.241 41.9619 33.5077C41.6099 33.769 41.1725 33.8997 40.6499 33.8997C40.2339 33.8997 39.8605 33.8064 39.5299 33.6197C39.2045 33.433 38.9485 33.169 38.7619 32.8277C38.5752 32.481 38.4819 32.081 38.4819 31.6277C38.4819 31.1744 38.5725 30.777 38.7539 30.4357C38.9352 30.0944 39.1885 29.833 39.5139 29.6517C39.8445 29.465 40.2232 29.3717 40.6499 29.3717C41.0659 29.3717 41.4339 29.4624 41.7539 29.6437C42.0739 29.825 42.3192 30.0757 42.4899 30.3957C42.6659 30.7104 42.7539 31.0677 42.7539 31.4677ZM42.0019 31.3157C42.0019 31.0384 41.9405 30.801 41.8179 30.6037C41.6952 30.401 41.5272 30.249 41.3139 30.1477C41.1059 30.041 40.8739 29.9877 40.6179 29.9877C40.2499 29.9877 39.9352 30.105 39.6739 30.3397C39.4179 30.5744 39.2712 30.8997 39.2339 31.3157H42.0019Z" fill="#F2F5FA"/>
<path d="M77.6004 32.5877H75.1684L74.7204 33.8277H73.9524L75.9684 28.2837H76.8084L78.8164 33.8277H78.0484L77.6004 32.5877ZM77.3924 31.9957L76.3844 29.1797L75.3764 31.9957H77.3924ZM80.4231 30.2597C80.5724 29.9984 80.7911 29.785 81.0791 29.6197C81.3671 29.4544 81.6951 29.3717 82.0631 29.3717C82.4577 29.3717 82.8124 29.465 83.1271 29.6517C83.4417 29.8384 83.6897 30.1024 83.8711 30.4437C84.0524 30.7797 84.1431 31.1717 84.1431 31.6197C84.1431 32.0624 84.0524 32.457 83.8711 32.8037C83.6897 33.1504 83.4391 33.4197 83.1191 33.6117C82.8044 33.8037 82.4524 33.8997 82.0631 33.8997C81.6844 33.8997 81.3511 33.817 81.0631 33.6517C80.7804 33.4864 80.5671 33.2757 80.4231 33.0197V33.8277H79.6951V27.9077H80.4231V30.2597ZM83.3991 31.6197C83.3991 31.289 83.3324 31.001 83.1991 30.7557C83.0657 30.5104 82.8844 30.3237 82.6551 30.1957C82.4311 30.0677 82.1831 30.0037 81.9111 30.0037C81.6444 30.0037 81.3964 30.0704 81.1671 30.2037C80.9431 30.3317 80.7617 30.521 80.6231 30.7717C80.4897 31.017 80.4231 31.3024 80.4231 31.6277C80.4231 31.9584 80.4897 32.249 80.6231 32.4997C80.7617 32.745 80.9431 32.9344 81.1671 33.0677C81.3964 33.1957 81.6444 33.2597 81.9111 33.2597C82.1831 33.2597 82.4311 33.1957 82.6551 33.0677C82.8844 32.9344 83.0657 32.745 83.1991 32.4997C83.3324 32.249 83.3991 31.9557 83.3991 31.6197ZM87.0133 33.8997C86.6027 33.8997 86.2293 33.8064 85.8933 33.6197C85.5627 33.433 85.3013 33.169 85.1093 32.8277C84.9227 32.481 84.8293 32.081 84.8293 31.6277C84.8293 31.1797 84.9253 30.785 85.1173 30.4437C85.3147 30.097 85.5813 29.833 85.9173 29.6517C86.2533 29.465 86.6293 29.3717 87.0453 29.3717C87.4613 29.3717 87.8373 29.465 88.1733 29.6517C88.5093 29.833 88.7733 30.0944 88.9653 30.4357C89.1627 30.777 89.2613 31.1744 89.2613 31.6277C89.2613 32.081 89.16 32.481 88.9573 32.8277C88.76 33.169 88.4907 33.433 88.1493 33.6197C87.808 33.8064 87.4293 33.8997 87.0133 33.8997ZM87.0133 33.2597C87.2747 33.2597 87.52 33.1984 87.7493 33.0757C87.9787 32.953 88.1627 32.769 88.3013 32.5237C88.4453 32.2784 88.5173 31.9797 88.5173 31.6277C88.5173 31.2757 88.448 30.977 88.3093 30.7317C88.1707 30.4864 87.9893 30.305 87.7653 30.1877C87.5413 30.065 87.2987 30.0037 87.0373 30.0037C86.7707 30.0037 86.5253 30.065 86.3013 30.1877C86.0827 30.305 85.9067 30.4864 85.7733 30.7317C85.64 30.977 85.5733 31.2757 85.5733 31.6277C85.5733 31.985 85.6373 32.2864 85.7653 32.5317C85.8987 32.777 86.0747 32.961 86.2933 33.0837C86.512 33.201 86.752 33.2597 87.0133 33.2597ZM94.1065 29.4437V33.8277H93.3785V33.1797C93.2398 33.4037 93.0452 33.5797 92.7945 33.7077C92.5492 33.8304 92.2772 33.8917 91.9785 33.8917C91.6372 33.8917 91.3305 33.8224 91.0585 33.6837C90.7865 33.5397 90.5705 33.3264 90.4105 33.0437C90.2558 32.761 90.1785 32.417 90.1785 32.0117V29.4437H90.8985V31.9157C90.8985 32.3477 91.0078 32.681 91.2265 32.9157C91.4452 33.145 91.7438 33.2597 92.1225 33.2597C92.5118 33.2597 92.8185 33.1397 93.0425 32.8997C93.2665 32.6597 93.3785 32.3104 93.3785 31.8517V29.4437H94.1065ZM96.2237 30.0437V32.6277C96.2237 32.841 96.269 32.993 96.3597 33.0837C96.4504 33.169 96.6077 33.2117 96.8317 33.2117H97.3677V33.8277H96.7117C96.3064 33.8277 96.0024 33.7344 95.7997 33.5477C95.597 33.361 95.4957 33.0544 95.4957 32.6277V30.0437H94.9277V29.4437H95.4957V28.3397H96.2237V29.4437H97.3677V30.0437H96.2237Z" fill="#F2F5FA"/>
<path d="M130.305 33.8997C129.969 33.8997 129.668 33.8437 129.401 33.7317C129.134 33.6144 128.924 33.4544 128.769 33.2517C128.614 33.0437 128.529 32.8064 128.513 32.5397H129.265C129.286 32.7584 129.388 32.937 129.569 33.0757C129.756 33.2144 129.998 33.2837 130.297 33.2837C130.574 33.2837 130.793 33.2224 130.953 33.0997C131.113 32.977 131.193 32.8224 131.193 32.6357C131.193 32.4437 131.108 32.3024 130.937 32.2117C130.766 32.1157 130.502 32.0224 130.145 31.9317C129.82 31.8464 129.553 31.761 129.345 31.6757C129.142 31.585 128.966 31.4544 128.817 31.2837C128.673 31.1077 128.601 30.8784 128.601 30.5957C128.601 30.3717 128.668 30.1664 128.801 29.9797C128.934 29.793 129.124 29.6464 129.369 29.5397C129.614 29.4277 129.894 29.3717 130.209 29.3717C130.694 29.3717 131.086 29.4944 131.385 29.7397C131.684 29.985 131.844 30.321 131.865 30.7477H131.137C131.121 30.5184 131.028 30.3344 130.857 30.1957C130.692 30.057 130.468 29.9877 130.185 29.9877C129.924 29.9877 129.716 30.0437 129.561 30.1557C129.406 30.2677 129.329 30.4144 129.329 30.5957C129.329 30.7397 129.374 30.8597 129.465 30.9557C129.561 31.0464 129.678 31.121 129.817 31.1797C129.961 31.233 130.158 31.2944 130.409 31.3637C130.724 31.449 130.98 31.5344 131.177 31.6197C131.374 31.6997 131.542 31.8224 131.681 31.9877C131.825 32.153 131.9 32.369 131.905 32.6357C131.905 32.8757 131.838 33.0917 131.705 33.2837C131.572 33.4757 131.382 33.6277 131.137 33.7397C130.897 33.8464 130.62 33.8997 130.305 33.8997ZM133.309 28.7317C133.17 28.7317 133.053 28.6837 132.957 28.5877C132.861 28.4917 132.813 28.3744 132.813 28.2357C132.813 28.097 132.861 27.9797 132.957 27.8837C133.053 27.7877 133.17 27.7397 133.309 27.7397C133.442 27.7397 133.554 27.7877 133.645 27.8837C133.741 27.9797 133.789 28.097 133.789 28.2357C133.789 28.3744 133.741 28.4917 133.645 28.5877C133.554 28.6837 133.442 28.7317 133.309 28.7317ZM133.661 29.4437V33.8277H132.933V29.4437H133.661ZM136.709 29.3717C137.088 29.3717 137.419 29.4544 137.701 29.6197C137.989 29.785 138.203 29.993 138.341 30.2437V29.4437H139.077V33.9237C139.077 34.3237 138.992 34.6784 138.821 34.9877C138.651 35.3024 138.405 35.5477 138.085 35.7237C137.771 35.8997 137.403 35.9877 136.981 35.9877C136.405 35.9877 135.925 35.8517 135.541 35.5797C135.157 35.3077 134.931 34.937 134.861 34.4677H135.581C135.661 34.7344 135.827 34.9477 136.077 35.1077C136.328 35.273 136.629 35.3557 136.981 35.3557C137.381 35.3557 137.707 35.2304 137.957 34.9797C138.213 34.729 138.341 34.377 138.341 33.9237V33.0037C138.197 33.2597 137.984 33.473 137.701 33.6437C137.419 33.8144 137.088 33.8997 136.709 33.8997C136.32 33.8997 135.965 33.8037 135.645 33.6117C135.331 33.4197 135.083 33.1504 134.901 32.8037C134.72 32.457 134.629 32.0624 134.629 31.6197C134.629 31.1717 134.72 30.7797 134.901 30.4437C135.083 30.1024 135.331 29.8384 135.645 29.6517C135.965 29.465 136.32 29.3717 136.709 29.3717ZM138.341 31.6277C138.341 31.297 138.275 31.009 138.141 30.7637C138.008 30.5184 137.827 30.3317 137.597 30.2037C137.373 30.0704 137.125 30.0037 136.853 30.0037C136.581 30.0037 136.333 30.0677 136.109 30.1957C135.885 30.3237 135.707 30.5104 135.573 30.7557C135.44 31.001 135.373 31.289 135.373 31.6197C135.373 31.9557 135.44 32.249 135.573 32.4997C135.707 32.745 135.885 32.9344 136.109 33.0677C136.333 33.1957 136.581 33.2597 136.853 33.2597C137.125 33.2597 137.373 33.1957 137.597 33.0677C137.827 32.9344 138.008 32.745 138.141 32.4997C138.275 32.249 138.341 31.9584 138.341 31.6277ZM142.444 29.3637C142.977 29.3637 143.409 29.5264 143.74 29.8517C144.07 30.1717 144.236 30.6357 144.236 31.2437V33.8277H143.516V31.3477C143.516 30.9104 143.406 30.577 143.188 30.3477C142.969 30.113 142.67 29.9957 142.292 29.9957C141.908 29.9957 141.601 30.1157 141.372 30.3557C141.148 30.5957 141.036 30.945 141.036 31.4037V33.8277H140.308V29.4437H141.036V30.0677C141.18 29.8437 141.374 29.6704 141.62 29.5477C141.87 29.425 142.145 29.3637 142.444 29.3637ZM147.934 28.7317C147.795 28.7317 147.678 28.6837 147.582 28.5877C147.486 28.4917 147.438 28.3744 147.438 28.2357C147.438 28.097 147.486 27.9797 147.582 27.8837C147.678 27.7877 147.795 27.7397 147.934 27.7397C148.067 27.7397 148.179 27.7877 148.27 27.8837C148.366 27.9797 148.414 28.097 148.414 28.2357C148.414 28.3744 148.366 28.4917 148.27 28.5877C148.179 28.6837 148.067 28.7317 147.934 28.7317ZM148.286 29.4437V33.8277H147.558V29.4437H148.286ZM151.662 29.3637C152.196 29.3637 152.628 29.5264 152.958 29.8517C153.289 30.1717 153.454 30.6357 153.454 31.2437V33.8277H152.734V31.3477C152.734 30.9104 152.625 30.577 152.406 30.3477C152.188 30.113 151.889 29.9957 151.51 29.9957C151.126 29.9957 150.82 30.1157 150.59 30.3557C150.366 30.5957 150.254 30.945 150.254 31.4037V33.8277H149.526V29.4437H150.254V30.0677C150.398 29.8437 150.593 29.6704 150.838 29.5477C151.089 29.425 151.364 29.3637 151.662 29.3637Z" fill="#F2F5FA"/>
<path d="M22.4129 78.2712C22.4129 79.0832 22.1329 79.7599 21.5729 80.3012C21.0222 80.8332 20.1775 81.0992 19.0389 81.0992H17.1629V85.1732H15.8889V75.4152H19.0389C20.1402 75.4152 20.9755 75.6812 21.5449 76.2132C22.1235 76.7452 22.4129 77.4312 22.4129 78.2712ZM19.0389 80.0492C19.7482 80.0492 20.2709 79.8952 20.6069 79.5872C20.9429 79.2792 21.1109 78.8406 21.1109 78.2712C21.1109 77.0672 20.4202 76.4652 19.0389 76.4652H17.1629V80.0492H19.0389ZM25.2703 78.7472C25.4943 78.3086 25.8116 77.9679 26.2223 77.7252C26.6423 77.4826 27.1509 77.3612 27.7483 77.3612V78.6772H27.4123C25.9843 78.6772 25.2703 79.4519 25.2703 81.0012V85.1732H23.9963V77.5012H25.2703V78.7472ZM32.5649 85.2992C31.8463 85.2992 31.1929 85.1359 30.6049 84.8092C30.0263 84.4826 29.5689 84.0206 29.2329 83.4232C28.9063 82.8166 28.7429 82.1166 28.7429 81.3232C28.7429 80.5392 28.9109 79.8486 29.2469 79.2512C29.5923 78.6446 30.0589 78.1826 30.6469 77.8652C31.2349 77.5386 31.8929 77.3752 32.6209 77.3752C33.3489 77.3752 34.0069 77.5386 34.5949 77.8652C35.1829 78.1826 35.6449 78.6399 35.9809 79.2372C36.3263 79.8346 36.4989 80.5299 36.4989 81.3232C36.4989 82.1166 36.3216 82.8166 35.9669 83.4232C35.6216 84.0206 35.1503 84.4826 34.5529 84.8092C33.9556 85.1359 33.2929 85.2992 32.5649 85.2992ZM32.5649 84.1792C33.0223 84.1792 33.4516 84.0719 33.8529 83.8572C34.2543 83.6426 34.5763 83.3206 34.8189 82.8912C35.0709 82.4619 35.1969 81.9392 35.1969 81.3232C35.1969 80.7072 35.0756 80.1846 34.8329 79.7552C34.5903 79.3259 34.2729 79.0086 33.8809 78.8032C33.4889 78.5886 33.0643 78.4812 32.6069 78.4812C32.1403 78.4812 31.7109 78.5886 31.3189 78.8032C30.9363 79.0086 30.6283 79.3259 30.3949 79.7552C30.1616 80.1846 30.0449 80.7072 30.0449 81.3232C30.0449 81.9486 30.1569 82.4759 30.3809 82.9052C30.6143 83.3346 30.9223 83.6566 31.3049 83.8712C31.6876 84.0766 32.1076 84.1792 32.5649 84.1792ZM41.296 78.5512H39.686V85.1732H38.412V78.5512H37.418V77.5012H38.412V76.9552C38.412 76.0966 38.6313 75.4712 39.07 75.0792C39.518 74.6779 40.232 74.4772 41.212 74.4772V75.5412C40.652 75.5412 40.2553 75.6532 40.022 75.8772C39.798 76.0919 39.686 76.4512 39.686 76.9552V77.5012H41.296V78.5512ZM49.7814 81.0432C49.7814 81.2859 49.7674 81.5426 49.7394 81.8132H43.6074C43.6541 82.5692 43.9108 83.1619 44.3774 83.5912C44.8534 84.0112 45.4274 84.2212 46.0994 84.2212C46.6501 84.2212 47.1074 84.0952 47.4714 83.8432C47.8448 83.5819 48.1061 83.2366 48.2554 82.8072H49.6274C49.4221 83.5446 49.0114 84.1466 48.3954 84.6132C47.7794 85.0706 47.0141 85.2992 46.0994 85.2992C45.3714 85.2992 44.7181 85.1359 44.1394 84.8092C43.5701 84.4826 43.1221 84.0206 42.7954 83.4232C42.4688 82.8166 42.3054 82.1166 42.3054 81.3232C42.3054 80.5299 42.4641 79.8346 42.7814 79.2372C43.0988 78.6399 43.5421 78.1826 44.1114 77.8652C44.6901 77.5386 45.3528 77.3752 46.0994 77.3752C46.8274 77.3752 47.4714 77.5339 48.0314 77.8512C48.5914 78.1686 49.0208 78.6072 49.3194 79.1672C49.6274 79.7179 49.7814 80.3432 49.7814 81.0432ZM48.4654 80.7772C48.4654 80.2919 48.3581 79.8766 48.1434 79.5312C47.9288 79.1766 47.6348 78.9106 47.2614 78.7332C46.8974 78.5466 46.4914 78.4532 46.0434 78.4532C45.3994 78.4532 44.8488 78.6586 44.3914 79.0692C43.9434 79.4799 43.6868 80.0492 43.6214 80.7772H48.4654ZM54.1791 85.2992C53.5911 85.2992 53.0637 85.2012 52.5971 85.0052C52.1304 84.7999 51.7617 84.5199 51.4911 84.1652C51.2204 83.8012 51.0711 83.3859 51.0431 82.9192H52.3591C52.3964 83.3019 52.5737 83.6146 52.8911 83.8572C53.2177 84.0999 53.6424 84.2212 54.1651 84.2212C54.6504 84.2212 55.0331 84.1139 55.3131 83.8992C55.5931 83.6846 55.7331 83.4139 55.7331 83.0872C55.7331 82.7512 55.5837 82.5039 55.2851 82.3452C54.9864 82.1772 54.5244 82.0139 53.8991 81.8552C53.3297 81.7059 52.8631 81.5566 52.4991 81.4072C52.1444 81.2486 51.8364 81.0199 51.5751 80.7212C51.3231 80.4132 51.1971 80.0119 51.1971 79.5172C51.1971 79.1252 51.3137 78.7659 51.5471 78.4392C51.7804 78.1126 52.1117 77.8559 52.5411 77.6692C52.9704 77.4732 53.4604 77.3752 54.0111 77.3752C54.8604 77.3752 55.5464 77.5899 56.0691 78.0192C56.5917 78.4486 56.8717 79.0366 56.9091 79.7832H55.6351C55.6071 79.3819 55.4437 79.0599 55.1451 78.8172C54.8557 78.5746 54.4637 78.4532 53.9691 78.4532C53.5117 78.4532 53.1477 78.5512 52.8771 78.7472C52.6064 78.9432 52.4711 79.1999 52.4711 79.5172C52.4711 79.7692 52.5504 79.9792 52.7091 80.1472C52.8771 80.3059 53.0824 80.4366 53.3251 80.5392C53.5771 80.6326 53.9224 80.7399 54.3611 80.8612C54.9117 81.0106 55.3597 81.1599 55.7051 81.3092C56.0504 81.4492 56.3444 81.6639 56.5871 81.9532C56.8391 82.2426 56.9697 82.6206 56.9791 83.0872C56.9791 83.5072 56.8624 83.8852 56.6291 84.2212C56.3957 84.5572 56.0644 84.8232 55.6351 85.0192C55.2151 85.2059 54.7297 85.2992 54.1791 85.2992ZM61.4935 85.2992C60.9055 85.2992 60.3782 85.2012 59.9115 85.0052C59.4449 84.7999 59.0762 84.5199 58.8055 84.1652C58.5349 83.8012 58.3855 83.3859 58.3575 82.9192H59.6735C59.7109 83.3019 59.8882 83.6146 60.2055 83.8572C60.5322 84.0999 60.9569 84.2212 61.4795 84.2212C61.9649 84.2212 62.3475 84.1139 62.6275 83.8992C62.9075 83.6846 63.0475 83.4139 63.0475 83.0872C63.0475 82.7512 62.8982 82.5039 62.5995 82.3452C62.3009 82.1772 61.8389 82.0139 61.2135 81.8552C60.6442 81.7059 60.1775 81.5566 59.8135 81.4072C59.4589 81.2486 59.1509 81.0199 58.8895 80.7212C58.6375 80.4132 58.5115 80.0119 58.5115 79.5172C58.5115 79.1252 58.6282 78.7659 58.8615 78.4392C59.0949 78.1126 59.4262 77.8559 59.8555 77.6692C60.2849 77.4732 60.7749 77.3752 61.3255 77.3752C62.1749 77.3752 62.8609 77.5899 63.3835 78.0192C63.9062 78.4486 64.1862 79.0366 64.2235 79.7832H62.9495C62.9215 79.3819 62.7582 79.0599 62.4595 78.8172C62.1702 78.5746 61.7782 78.4532 61.2835 78.4532C60.8262 78.4532 60.4622 78.5512 60.1915 78.7472C59.9209 78.9432 59.7855 79.1999 59.7855 79.5172C59.7855 79.7692 59.8649 79.9792 60.0235 80.1472C60.1915 80.3059 60.3969 80.4366 60.6395 80.5392C60.8915 80.6326 61.2369 80.7399 61.6755 80.8612C62.2262 81.0106 62.6742 81.1599 63.0195 81.3092C63.3649 81.4492 63.6589 81.6639 63.9015 81.9532C64.1535 82.2426 64.2842 82.6206 64.2935 83.0872C64.2935 83.5072 64.1769 83.8852 63.9435 84.2212C63.7102 84.5572 63.3789 84.8232 62.9495 85.0192C62.5295 85.2059 62.0442 85.2992 61.4935 85.2992ZM69.438 85.2992C68.7193 85.2992 68.066 85.1359 67.478 84.8092C66.8993 84.4826 66.442 84.0206 66.106 83.4232C65.7793 82.8166 65.616 82.1166 65.616 81.3232C65.616 80.5392 65.784 79.8486 66.12 79.2512C66.4653 78.6446 66.932 78.1826 67.52 77.8652C68.108 77.5386 68.766 77.3752 69.494 77.3752C70.222 77.3752 70.88 77.5386 71.468 77.8652C72.056 78.1826 72.518 78.6399 72.854 79.2372C73.1993 79.8346 73.372 80.5299 73.372 81.3232C73.372 82.1166 73.1946 82.8166 72.84 83.4232C72.4946 84.0206 72.0233 84.4826 71.426 84.8092C70.8286 85.1359 70.166 85.2992 69.438 85.2992ZM69.438 84.1792C69.8953 84.1792 70.3246 84.0719 70.726 83.8572C71.1273 83.6426 71.4493 83.3206 71.692 82.8912C71.944 82.4619 72.07 81.9392 72.07 81.3232C72.07 80.7072 71.9486 80.1846 71.706 79.7552C71.4633 79.3259 71.146 79.0086 70.754 78.8032C70.362 78.5886 69.9373 78.4812 69.48 78.4812C69.0133 78.4812 68.584 78.5886 68.192 78.8032C67.8093 79.0086 67.5013 79.3259 67.268 79.7552C67.0346 80.1846 66.918 80.7072 66.918 81.3232C66.918 81.9486 67.03 82.4759 67.254 82.9052C67.4873 83.3346 67.7953 83.6566 68.178 83.8712C68.5606 84.0766 68.9806 84.1792 69.438 84.1792ZM78.7851 77.3612C79.7184 77.3612 80.4744 77.6459 81.0531 78.2152C81.6317 78.7752 81.9211 79.5872 81.9211 80.6512V85.1732H80.6611V80.8332C80.6611 80.0679 80.4697 79.4846 80.0871 79.0832C79.7044 78.6726 79.1817 78.4672 78.5191 78.4672C77.8471 78.4672 77.3104 78.6772 76.9091 79.0972C76.5171 79.5172 76.3211 80.1286 76.3211 80.9312V85.1732H75.0471V77.5012H76.3211V78.5932C76.5731 78.2012 76.9137 77.8979 77.3431 77.6832C77.7817 77.4686 78.2624 77.3612 78.7851 77.3612ZM83.5261 81.3092C83.5261 80.5252 83.6848 79.8392 84.0021 79.2512C84.3195 78.6539 84.7535 78.1919 85.3041 77.8652C85.8641 77.5386 86.4848 77.3752 87.1661 77.3752C87.8381 77.3752 88.4215 77.5199 88.9161 77.8092C89.4108 78.0986 89.7795 78.4626 90.0221 78.9012V77.5012H91.3101V85.1732H90.0221V83.7452C89.7701 84.1932 89.3921 84.5666 88.8881 84.8652C88.3935 85.1546 87.8148 85.2992 87.1521 85.2992C86.4708 85.2992 85.8548 85.1312 85.3041 84.7952C84.7535 84.4592 84.3195 83.9879 84.0021 83.3812C83.6848 82.7746 83.5261 82.0839 83.5261 81.3092ZM90.0221 81.3232C90.0221 80.7446 89.9055 80.2406 89.6721 79.8112C89.4388 79.3819 89.1215 79.0552 88.7201 78.8312C88.3281 78.5979 87.8941 78.4812 87.4181 78.4812C86.9421 78.4812 86.5081 78.5932 86.1161 78.8172C85.7241 79.0412 85.4115 79.3679 85.1781 79.7972C84.9448 80.2266 84.8281 80.7306 84.8281 81.3092C84.8281 81.8972 84.9448 82.4106 85.1781 82.8492C85.4115 83.2786 85.7241 83.6099 86.1161 83.8432C86.5081 84.0672 86.9421 84.1792 87.4181 84.1792C87.8941 84.1792 88.3281 84.0672 88.7201 83.8432C89.1215 83.6099 89.4388 83.2786 89.6721 82.8492C89.9055 82.4106 90.0221 81.9019 90.0221 81.3232ZM94.7371 74.8132V85.1732H93.4631V74.8132H94.7371ZM101.915 78.9152C102.167 78.4766 102.54 78.1126 103.035 77.8232C103.539 77.5246 104.122 77.3752 104.785 77.3752C105.466 77.3752 106.082 77.5386 106.633 77.8652C107.193 78.1919 107.631 78.6539 107.949 79.2512C108.266 79.8392 108.425 80.5252 108.425 81.3092C108.425 82.0839 108.266 82.7746 107.949 83.3812C107.631 83.9879 107.193 84.4592 106.633 84.7952C106.082 85.1312 105.466 85.2992 104.785 85.2992C104.131 85.2992 103.553 85.1546 103.049 84.8652C102.554 84.5666 102.176 84.1979 101.915 83.7592V88.8132H100.641V77.5012H101.915V78.9152ZM107.123 81.3092C107.123 80.7306 107.006 80.2266 106.773 79.7972C106.539 79.3679 106.222 79.0412 105.821 78.8172C105.429 78.5932 104.995 78.4812 104.519 78.4812C104.052 78.4812 103.618 78.5979 103.217 78.8312C102.825 79.0552 102.507 79.3866 102.265 79.8252C102.031 80.2546 101.915 80.7539 101.915 81.3232C101.915 81.9019 102.031 82.4106 102.265 82.8492C102.507 83.2786 102.825 83.6099 103.217 83.8432C103.618 84.0672 104.052 84.1792 104.519 84.1792C104.995 84.1792 105.429 84.0672 105.821 83.8432C106.222 83.6099 106.539 83.2786 106.773 82.8492C107.006 82.4106 107.123 81.8972 107.123 81.3092ZM111.376 78.7472C111.6 78.3086 111.917 77.9679 112.328 77.7252C112.748 77.4826 113.256 77.3612 113.854 77.3612V78.6772H113.518C112.09 78.6772 111.376 79.4519 111.376 81.0012V85.1732H110.102V77.5012H111.376V78.7472ZM118.67 85.2992C117.952 85.2992 117.298 85.1359 116.71 84.8092C116.132 84.4826 115.674 84.0206 115.338 83.4232C115.012 82.8166 114.848 82.1166 114.848 81.3232C114.848 80.5392 115.016 79.8486 115.352 79.2512C115.698 78.6446 116.164 78.1826 116.752 77.8652C117.34 77.5386 117.998 77.3752 118.726 77.3752C119.454 77.3752 120.112 77.5386 120.7 77.8652C121.288 78.1826 121.75 78.6399 122.086 79.2372C122.432 79.8346 122.604 80.5299 122.604 81.3232C122.604 82.1166 122.427 82.8166 122.072 83.4232C121.727 84.0206 121.256 84.4826 120.658 84.8092C120.061 85.1359 119.398 85.2992 118.67 85.2992ZM118.67 84.1792C119.128 84.1792 119.557 84.0719 119.958 83.8572C120.36 83.6426 120.682 83.3206 120.924 82.8912C121.176 82.4619 121.302 81.9392 121.302 81.3232C121.302 80.7072 121.181 80.1846 120.938 79.7552C120.696 79.3259 120.378 79.0086 119.986 78.8032C119.594 78.5886 119.17 78.4812 118.712 78.4812C118.246 78.4812 117.816 78.5886 117.424 78.8032C117.042 79.0086 116.734 79.3259 116.5 79.7552C116.267 80.1846 116.15 80.7072 116.15 81.3232C116.15 81.9486 116.262 82.4759 116.486 82.9052C116.72 83.3346 117.028 83.6566 117.41 83.8712C117.793 84.0766 118.213 84.1792 118.67 84.1792ZM125.833 78.5512V83.0732C125.833 83.4466 125.913 83.7126 126.071 83.8712C126.23 84.0206 126.505 84.0952 126.897 84.0952H127.835V85.1732H126.687C125.978 85.1732 125.446 85.0099 125.091 84.6832C124.737 84.3566 124.559 83.8199 124.559 83.0732V78.5512H123.565V77.5012H124.559V75.5692H125.833V77.5012H127.835V78.5512H125.833ZM132.501 78.5512H130.891V85.1732H129.617V78.5512H128.623V77.5012H129.617V76.9552C129.617 76.0966 129.836 75.4712 130.275 75.0792C130.723 74.6779 131.437 74.4772 132.417 74.4772V75.5412C131.857 75.5412 131.46 75.6532 131.227 75.8772C131.003 76.0919 130.891 76.4512 130.891 76.9552V77.5012H132.501V78.5512ZM137.333 85.2992C136.614 85.2992 135.961 85.1359 135.373 84.8092C134.794 84.4826 134.337 84.0206 134.001 83.4232C133.674 82.8166 133.511 82.1166 133.511 81.3232C133.511 80.5392 133.679 79.8486 134.015 79.2512C134.36 78.6446 134.827 78.1826 135.415 77.8652C136.003 77.5386 136.661 77.3752 137.389 77.3752C138.117 77.3752 138.775 77.5386 139.363 77.8652C139.951 78.1826 140.413 78.6399 140.749 79.2372C141.094 79.8346 141.267 80.5299 141.267 81.3232C141.267 82.1166 141.089 82.8166 140.735 83.4232C140.389 84.0206 139.918 84.4826 139.321 84.8092C138.723 85.1359 138.061 85.2992 137.333 85.2992ZM137.333 84.1792C137.79 84.1792 138.219 84.0719 138.621 83.8572C139.022 83.6426 139.344 83.3206 139.587 82.8912C139.839 82.4619 139.965 81.9392 139.965 81.3232C139.965 80.7072 139.843 80.1846 139.601 79.7552C139.358 79.3259 139.041 79.0086 138.649 78.8032C138.257 78.5886 137.832 78.4812 137.375 78.4812C136.908 78.4812 136.479 78.5886 136.087 78.8032C135.704 79.0086 135.396 79.3259 135.163 79.7552C134.929 80.1846 134.813 80.7072 134.813 81.3232C134.813 81.9486 134.925 82.4759 135.149 82.9052C135.382 83.3346 135.69 83.6566 136.073 83.8712C136.455 84.0766 136.875 84.1792 137.333 84.1792ZM144.216 74.8132V85.1732H142.942V74.8132H144.216ZM147.045 76.2552C146.802 76.2552 146.597 76.1712 146.429 76.0032C146.261 75.8352 146.177 75.6299 146.177 75.3872C146.177 75.1446 146.261 74.9392 146.429 74.7712C146.597 74.6032 146.802 74.5192 147.045 74.5192C147.278 74.5192 147.474 74.6032 147.633 74.7712C147.801 74.9392 147.885 75.1446 147.885 75.3872C147.885 75.6299 147.801 75.8352 147.633 76.0032C147.474 76.1712 147.278 76.2552 147.045 76.2552ZM147.661 77.5012V85.1732H146.387V77.5012H147.661ZM153.178 85.2992C152.46 85.2992 151.806 85.1359 151.218 84.8092C150.64 84.4826 150.182 84.0206 149.846 83.4232C149.52 82.8166 149.356 82.1166 149.356 81.3232C149.356 80.5392 149.524 79.8486 149.86 79.2512C150.206 78.6446 150.672 78.1826 151.26 77.8652C151.848 77.5386 152.506 77.3752 153.234 77.3752C153.962 77.3752 154.62 77.5386 155.208 77.8652C155.796 78.1826 156.258 78.6399 156.594 79.2372C156.94 79.8346 157.112 80.5299 157.112 81.3232C157.112 82.1166 156.935 82.8166 156.58 83.4232C156.235 84.0206 155.764 84.4826 155.166 84.8092C154.569 85.1359 153.906 85.2992 153.178 85.2992ZM153.178 84.1792C153.636 84.1792 154.065 84.0719 154.466 83.8572C154.868 83.6426 155.19 83.3206 155.432 82.8912C155.684 82.4619 155.81 81.9392 155.81 81.3232C155.81 80.7072 155.689 80.1846 155.446 79.7552C155.204 79.3259 154.886 79.0086 154.494 78.8032C154.102 78.5886 153.678 78.4812 153.22 78.4812C152.754 78.4812 152.324 78.5886 151.932 78.8032C151.55 79.0086 151.242 79.3259 151.008 79.7552C150.775 80.1846 150.658 80.7072 150.658 81.3232C150.658 81.9486 150.77 82.4759 150.994 82.9052C151.228 83.3346 151.536 83.6566 151.918 83.8712C152.301 84.0766 152.721 84.1792 153.178 84.1792ZM23.0805 98.5012L20.6865 106.173H19.3705L17.5225 100.083L15.6745 106.173H14.3585L11.9505 98.5012H13.2525L15.0165 104.941L16.9205 98.5012H18.2225L20.0845 104.955L21.8205 98.5012H23.0805ZM31.3449 102.043C31.3449 102.286 31.3309 102.543 31.3029 102.813H25.1709C25.2176 103.569 25.4742 104.162 25.9409 104.591C26.4169 105.011 26.9909 105.221 27.6629 105.221C28.2136 105.221 28.6709 105.095 29.0349 104.843C29.4082 104.582 29.6696 104.237 29.8189 103.807H31.1909C30.9856 104.545 30.5749 105.147 29.9589 105.613C29.3429 106.071 28.5776 106.299 27.6629 106.299C26.9349 106.299 26.2816 106.136 25.7029 105.809C25.1336 105.483 24.6856 105.021 24.3589 104.423C24.0322 103.817 23.8689 103.117 23.8689 102.323C23.8689 101.53 24.0276 100.835 24.3449 100.237C24.6622 99.6399 25.1056 99.1826 25.6749 98.8652C26.2536 98.5386 26.9162 98.3752 27.6629 98.3752C28.3909 98.3752 29.0349 98.5339 29.5949 98.8512C30.1549 99.1686 30.5842 99.6072 30.8829 100.167C31.1909 100.718 31.3449 101.343 31.3449 102.043ZM30.0289 101.777C30.0289 101.292 29.9216 100.877 29.7069 100.531C29.4922 100.177 29.1982 99.9106 28.8249 99.7332C28.4609 99.5466 28.0549 99.4532 27.6069 99.4532C26.9629 99.4532 26.4122 99.6586 25.9549 100.069C25.5069 100.48 25.2502 101.049 25.1849 101.777H30.0289ZM34.3005 99.9292C34.5619 99.4719 34.9445 99.0986 35.4485 98.8092C35.9525 98.5199 36.5265 98.3752 37.1705 98.3752C37.8612 98.3752 38.4819 98.5386 39.0325 98.8652C39.5832 99.1919 40.0172 99.6539 40.3345 100.251C40.6519 100.839 40.8105 101.525 40.8105 102.309C40.8105 103.084 40.6519 103.775 40.3345 104.381C40.0172 104.988 39.5785 105.459 39.0185 105.795C38.4679 106.131 37.8519 106.299 37.1705 106.299C36.5079 106.299 35.9245 106.155 35.4205 105.865C34.9259 105.576 34.5525 105.207 34.3005 104.759V106.173H33.0265V95.8132H34.3005V99.9292ZM39.5085 102.309C39.5085 101.731 39.3919 101.227 39.1585 100.797C38.9252 100.368 38.6079 100.041 38.2065 99.8172C37.8145 99.5932 37.3805 99.4812 36.9045 99.4812C36.4379 99.4812 36.0039 99.5979 35.6025 99.8312C35.2105 100.055 34.8932 100.387 34.6505 100.825C34.4172 101.255 34.3005 101.754 34.3005 102.323C34.3005 102.902 34.4172 103.411 34.6505 103.849C34.8932 104.279 35.2105 104.61 35.6025 104.843C36.0039 105.067 36.4379 105.179 36.9045 105.179C37.3805 105.179 37.8145 105.067 38.2065 104.843C38.6079 104.61 38.9252 104.279 39.1585 103.849C39.3919 103.411 39.5085 102.897 39.5085 102.309ZM45.2035 106.299C44.6155 106.299 44.0882 106.201 43.6215 106.005C43.1548 105.8 42.7862 105.52 42.5155 105.165C42.2448 104.801 42.0955 104.386 42.0675 103.919H43.3835C43.4208 104.302 43.5982 104.615 43.9155 104.857C44.2422 105.1 44.6668 105.221 45.1895 105.221C45.6748 105.221 46.0575 105.114 46.3375 104.899C46.6175 104.685 46.7575 104.414 46.7575 104.087C46.7575 103.751 46.6082 103.504 46.3095 103.345C46.0108 103.177 45.5488 103.014 44.9235 102.855C44.3542 102.706 43.8875 102.557 43.5235 102.407C43.1688 102.249 42.8608 102.02 42.5995 101.721C42.3475 101.413 42.2215 101.012 42.2215 100.517C42.2215 100.125 42.3382 99.7659 42.5715 99.4392C42.8048 99.1126 43.1362 98.8559 43.5655 98.6692C43.9948 98.4732 44.4848 98.3752 45.0355 98.3752C45.8848 98.3752 46.5708 98.5899 47.0935 99.0192C47.6162 99.4486 47.8962 100.037 47.9335 100.783H46.6595C46.6315 100.382 46.4682 100.06 46.1695 99.8172C45.8802 99.5746 45.4882 99.4532 44.9935 99.4532C44.5362 99.4532 44.1722 99.5512 43.9015 99.7472C43.6308 99.9432 43.4955 100.2 43.4955 100.517C43.4955 100.769 43.5748 100.979 43.7335 101.147C43.9015 101.306 44.1068 101.437 44.3495 101.539C44.6015 101.633 44.9468 101.74 45.3855 101.861C45.9362 102.011 46.3842 102.16 46.7295 102.309C47.0748 102.449 47.3688 102.664 47.6115 102.953C47.8635 103.243 47.9942 103.621 48.0035 104.087C48.0035 104.507 47.8868 104.885 47.6535 105.221C47.4202 105.557 47.0888 105.823 46.6595 106.019C46.2395 106.206 45.7542 106.299 45.2035 106.299ZM50.4599 97.2552C50.2173 97.2552 50.0119 97.1712 49.8439 97.0032C49.6759 96.8352 49.5919 96.6299 49.5919 96.3872C49.5919 96.1446 49.6759 95.9392 49.8439 95.7712C50.0119 95.6032 50.2173 95.5192 50.4599 95.5192C50.6933 95.5192 50.8893 95.6032 51.0479 95.7712C51.2159 95.9392 51.2999 96.1446 51.2999 96.3872C51.2999 96.6299 51.2159 96.8352 51.0479 97.0032C50.8893 97.1712 50.6933 97.2552 50.4599 97.2552ZM51.0759 98.5012V106.173H49.8019V98.5012H51.0759ZM54.8013 99.5512V104.073C54.8013 104.447 54.8806 104.713 55.0393 104.871C55.1979 105.021 55.4733 105.095 55.8653 105.095H56.8033V106.173H55.6553C54.9459 106.173 54.4139 106.01 54.0593 105.683C53.7046 105.357 53.5273 104.82 53.5273 104.073V99.5512H52.5333V98.5012H53.5273V96.5692H54.8013V98.5012H56.8033V99.5512H54.8013ZM65.3469 102.043C65.3469 102.286 65.3329 102.543 65.3049 102.813H59.1729C59.2195 103.569 59.4762 104.162 59.9429 104.591C60.4189 105.011 60.9929 105.221 61.6649 105.221C62.2155 105.221 62.6729 105.095 63.0369 104.843C63.4102 104.582 63.6715 104.237 63.8209 103.807H65.1929C64.9875 104.545 64.5769 105.147 63.9609 105.613C63.3449 106.071 62.5795 106.299 61.6649 106.299C60.9369 106.299 60.2835 106.136 59.7049 105.809C59.1355 105.483 58.6875 105.021 58.3609 104.423C58.0342 103.817 57.8709 103.117 57.8709 102.323C57.8709 101.53 58.0295 100.835 58.3469 100.237C58.6642 99.6399 59.1075 99.1826 59.6769 98.8652C60.2555 98.5386 60.9182 98.3752 61.6649 98.3752C62.3929 98.3752 63.0369 98.5339 63.5969 98.8512C64.1569 99.1686 64.5862 99.6072 64.8849 100.167C65.1929 100.718 65.3469 101.343 65.3469 102.043ZM64.0309 101.777C64.0309 101.292 63.9235 100.877 63.7089 100.531C63.4942 100.177 63.2002 99.9106 62.8269 99.7332C62.4629 99.5466 62.0569 99.4532 61.6089 99.4532C60.9649 99.4532 60.4142 99.6586 59.9569 100.069C59.5089 100.48 59.2522 101.049 59.1869 101.777H64.0309ZM73.8829 99.5512H72.2729V106.173H70.9989V99.5512H70.0049V98.5012H70.9989V97.9552C70.9989 97.0966 71.2183 96.4712 71.6569 96.0792C72.1049 95.6779 72.8189 95.4772 73.7989 95.4772V96.5412C73.2389 96.5412 72.8423 96.6532 72.6089 96.8772C72.3849 97.0919 72.2729 97.4512 72.2729 97.9552V98.5012H73.8829V99.5512ZM78.7143 106.299C77.9957 106.299 77.3423 106.136 76.7543 105.809C76.1757 105.483 75.7183 105.021 75.3823 104.423C75.0557 103.817 74.8923 103.117 74.8923 102.323C74.8923 101.539 75.0603 100.849 75.3963 100.251C75.7417 99.6446 76.2083 99.1826 76.7963 98.8652C77.3843 98.5386 78.0423 98.3752 78.7703 98.3752C79.4983 98.3752 80.1563 98.5386 80.7443 98.8652C81.3323 99.1826 81.7943 99.6399 82.1303 100.237C82.4757 100.835 82.6483 101.53 82.6483 102.323C82.6483 103.117 82.471 103.817 82.1163 104.423C81.771 105.021 81.2997 105.483 80.7023 105.809C80.105 106.136 79.4423 106.299 78.7143 106.299ZM78.7143 105.179C79.1717 105.179 79.601 105.072 80.0023 104.857C80.4037 104.643 80.7257 104.321 80.9683 103.891C81.2203 103.462 81.3463 102.939 81.3463 102.323C81.3463 101.707 81.225 101.185 80.9823 100.755C80.7397 100.326 80.4223 100.009 80.0303 99.8032C79.6383 99.5886 79.2137 99.4812 78.7563 99.4812C78.2897 99.4812 77.8603 99.5886 77.4683 99.8032C77.0857 100.009 76.7777 100.326 76.5443 100.755C76.311 101.185 76.1943 101.707 76.1943 102.323C76.1943 102.949 76.3063 103.476 76.5303 103.905C76.7637 104.335 77.0717 104.657 77.4543 104.871C77.837 105.077 78.257 105.179 78.7143 105.179ZM85.5974 99.7472C85.8214 99.3086 86.1388 98.9679 86.5494 98.7252C86.9694 98.4826 87.4781 98.3612 88.0754 98.3612V99.6772H87.7394C86.3114 99.6772 85.5974 100.452 85.5974 102.001V106.173H84.3234V98.5012H85.5974V99.7472ZM92.8025 102.309C92.8025 101.525 92.9612 100.839 93.2785 100.251C93.5958 99.6539 94.0298 99.1919 94.5805 98.8652C95.1405 98.5386 95.7658 98.3752 96.4565 98.3752C97.0538 98.3752 97.6092 98.5152 98.1225 98.7952C98.6358 99.0659 99.0278 99.4252 99.2985 99.8732V95.8132H100.587V106.173H99.2985V104.731C99.0465 105.189 98.6732 105.567 98.1785 105.865C97.6838 106.155 97.1052 106.299 96.4425 106.299C95.7612 106.299 95.1405 106.131 94.5805 105.795C94.0298 105.459 93.5958 104.988 93.2785 104.381C92.9612 103.775 92.8025 103.084 92.8025 102.309ZM99.2985 102.323C99.2985 101.745 99.1818 101.241 98.9485 100.811C98.7152 100.382 98.3978 100.055 97.9965 99.8312C97.6045 99.5979 97.1705 99.4812 96.6945 99.4812C96.2185 99.4812 95.7845 99.5932 95.3925 99.8172C95.0005 100.041 94.6878 100.368 94.4545 100.797C94.2212 101.227 94.1045 101.731 94.1045 102.309C94.1045 102.897 94.2212 103.411 94.4545 103.849C94.6878 104.279 95.0005 104.61 95.3925 104.843C95.7845 105.067 96.2185 105.179 96.6945 105.179C97.1705 105.179 97.6045 105.067 97.9965 104.843C98.3978 104.61 98.7152 104.279 98.9485 103.849C99.1818 103.411 99.2985 102.902 99.2985 102.323ZM109.739 102.043C109.739 102.286 109.725 102.543 109.697 102.813H103.565C103.612 103.569 103.869 104.162 104.335 104.591C104.811 105.011 105.385 105.221 106.057 105.221C106.608 105.221 107.065 105.095 107.429 104.843C107.803 104.582 108.064 104.237 108.213 103.807H109.585C109.38 104.545 108.969 105.147 108.353 105.613C107.737 106.071 106.972 106.299 106.057 106.299C105.329 106.299 104.676 106.136 104.097 105.809C103.528 105.483 103.08 105.021 102.753 104.423C102.427 103.817 102.263 103.117 102.263 102.323C102.263 101.53 102.422 100.835 102.739 100.237C103.057 99.6399 103.5 99.1826 104.069 98.8652C104.648 98.5386 105.311 98.3752 106.057 98.3752C106.785 98.3752 107.429 98.5339 107.989 98.8512C108.549 99.1686 108.979 99.6072 109.277 100.167C109.585 100.718 109.739 101.343 109.739 102.043ZM108.423 101.777C108.423 101.292 108.316 100.877 108.101 100.531C107.887 100.177 107.593 99.9106 107.219 99.7332C106.855 99.5466 106.449 99.4532 106.001 99.4532C105.357 99.4532 104.807 99.6586 104.349 100.069C103.901 100.48 103.645 101.049 103.579 101.777H108.423ZM114.137 106.299C113.549 106.299 113.022 106.201 112.555 106.005C112.088 105.8 111.72 105.52 111.449 105.165C111.178 104.801 111.029 104.386 111.001 103.919H112.317C112.354 104.302 112.532 104.615 112.849 104.857C113.176 105.1 113.6 105.221 114.123 105.221C114.608 105.221 114.991 105.114 115.271 104.899C115.551 104.685 115.691 104.414 115.691 104.087C115.691 103.751 115.542 103.504 115.243 103.345C114.944 103.177 114.482 103.014 113.857 102.855C113.288 102.706 112.821 102.557 112.457 102.407C112.102 102.249 111.794 102.02 111.533 101.721C111.281 101.413 111.155 101.012 111.155 100.517C111.155 100.125 111.272 99.7659 111.505 99.4392C111.738 99.1126 112.07 98.8559 112.499 98.6692C112.928 98.4732 113.418 98.3752 113.969 98.3752C114.818 98.3752 115.504 98.5899 116.027 99.0192C116.55 99.4486 116.83 100.037 116.867 100.783H115.593C115.565 100.382 115.402 100.06 115.103 99.8172C114.814 99.5746 114.422 99.4532 113.927 99.4532C113.47 99.4532 113.106 99.5512 112.835 99.7472C112.564 99.9432 112.429 100.2 112.429 100.517C112.429 100.769 112.508 100.979 112.667 101.147C112.835 101.306 113.04 101.437 113.283 101.539C113.535 101.633 113.88 101.74 114.319 101.861C114.87 102.011 115.318 102.16 115.663 102.309C116.008 102.449 116.302 102.664 116.545 102.953C116.797 103.243 116.928 103.621 116.937 104.087C116.937 104.507 116.82 104.885 116.587 105.221C116.354 105.557 116.022 105.823 115.593 106.019C115.173 106.206 114.688 106.299 114.137 106.299ZM119.394 97.2552C119.151 97.2552 118.946 97.1712 118.778 97.0032C118.61 96.8352 118.526 96.6299 118.526 96.3872C118.526 96.1446 118.61 95.9392 118.778 95.7712C118.946 95.6032 119.151 95.5192 119.394 95.5192C119.627 95.5192 119.823 95.6032 119.982 95.7712C120.15 95.9392 120.234 96.1446 120.234 96.3872C120.234 96.6299 120.15 96.8352 119.982 97.0032C119.823 97.1712 119.627 97.2552 119.394 97.2552ZM120.01 98.5012V106.173H118.736V98.5012H120.01ZM125.345 98.3752C126.008 98.3752 126.586 98.5199 127.081 98.8092C127.585 99.0986 127.958 99.4626 128.201 99.9012V98.5012H129.489V106.341C129.489 107.041 129.34 107.662 129.041 108.203C128.742 108.754 128.313 109.183 127.753 109.491C127.202 109.799 126.558 109.953 125.821 109.953C124.813 109.953 123.973 109.715 123.301 109.239C122.629 108.763 122.232 108.115 122.111 107.293H123.371C123.511 107.76 123.8 108.133 124.239 108.413C124.678 108.703 125.205 108.847 125.821 108.847C126.521 108.847 127.09 108.628 127.529 108.189C127.977 107.751 128.201 107.135 128.201 106.341V104.731C127.949 105.179 127.576 105.553 127.081 105.851C126.586 106.15 126.008 106.299 125.345 106.299C124.664 106.299 124.043 106.131 123.483 105.795C122.932 105.459 122.498 104.988 122.181 104.381C121.864 103.775 121.705 103.084 121.705 102.309C121.705 101.525 121.864 100.839 122.181 100.251C122.498 99.6539 122.932 99.1919 123.483 98.8652C124.043 98.5386 124.664 98.3752 125.345 98.3752ZM128.201 102.323C128.201 101.745 128.084 101.241 127.851 100.811C127.618 100.382 127.3 100.055 126.899 99.8312C126.507 99.5979 126.073 99.4812 125.597 99.4812C125.121 99.4812 124.687 99.5932 124.295 99.8172C123.903 100.041 123.59 100.368 123.357 100.797C123.124 101.227 123.007 101.731 123.007 102.309C123.007 102.897 123.124 103.411 123.357 103.849C123.59 104.279 123.903 104.61 124.295 104.843C124.687 105.067 125.121 105.179 125.597 105.179C126.073 105.179 126.507 105.067 126.899 104.843C127.3 104.61 127.618 104.279 127.851 103.849C128.084 103.411 128.201 102.902 128.201 102.323ZM135.38 98.3612C136.313 98.3612 137.069 98.6459 137.648 99.2152C138.226 99.7752 138.516 100.587 138.516 101.651V106.173H137.256V101.833C137.256 101.068 137.064 100.485 136.682 100.083C136.299 99.6726 135.776 99.4672 135.114 99.4672C134.442 99.4672 133.905 99.6772 133.504 100.097C133.112 100.517 132.916 101.129 132.916 101.931V106.173H131.642V98.5012H132.916V99.5932C133.168 99.2012 133.508 98.8979 133.938 98.6832C134.376 98.4686 134.857 98.3612 135.38 98.3612ZM147.597 102.043C147.597 102.286 147.583 102.543 147.555 102.813H141.423C141.47 103.569 141.726 104.162 142.193 104.591C142.669 105.011 143.243 105.221 143.915 105.221C144.466 105.221 144.923 105.095 145.287 104.843C145.66 104.582 145.922 104.237 146.071 103.807H147.443C147.238 104.545 146.827 105.147 146.211 105.613C145.595 106.071 144.83 106.299 143.915 106.299C143.187 106.299 142.534 106.136 141.955 105.809C141.386 105.483 140.938 105.021 140.611 104.423C140.284 103.817 140.121 103.117 140.121 102.323C140.121 101.53 140.28 100.835 140.597 100.237C140.914 99.6399 141.358 99.1826 141.927 98.8652C142.506 98.5386 143.168 98.3752 143.915 98.3752C144.643 98.3752 145.287 98.5339 145.847 98.8512C146.407 99.1686 146.836 99.6072 147.135 100.167C147.443 100.718 147.597 101.343 147.597 102.043ZM146.281 101.777C146.281 101.292 146.174 100.877 145.959 100.531C145.744 100.177 145.45 99.9106 145.077 99.7332C144.713 99.5466 144.307 99.4532 143.859 99.4532C143.215 99.4532 142.664 99.6586 142.207 100.069C141.759 100.48 141.502 101.049 141.437 101.777H146.281ZM150.553 99.7472C150.777 99.3086 151.094 98.9679 151.505 98.7252C151.925 98.4826 152.433 98.3612 153.031 98.3612V99.6772H152.695C151.267 99.6772 150.553 100.452 150.553 102.001V106.173H149.279V98.5012H150.553V99.7472ZM157.217 106.299C156.629 106.299 156.102 106.201 155.635 106.005C155.168 105.8 154.8 105.52 154.529 105.165C154.258 104.801 154.109 104.386 154.081 103.919H155.397C155.434 104.302 155.612 104.615 155.929 104.857C156.256 105.1 156.68 105.221 157.203 105.221C157.688 105.221 158.071 105.114 158.351 104.899C158.631 104.685 158.771 104.414 158.771 104.087C158.771 103.751 158.622 103.504 158.323 103.345C158.024 103.177 157.562 103.014 156.937 102.855C156.368 102.706 155.901 102.557 155.537 102.407C155.182 102.249 154.874 102.02 154.613 101.721C154.361 101.413 154.235 101.012 154.235 100.517C154.235 100.125 154.352 99.7659 154.585 99.4392C154.818 99.1126 155.15 98.8559 155.579 98.6692C156.008 98.4732 156.498 98.3752 157.049 98.3752C157.898 98.3752 158.584 98.5899 159.107 99.0192C159.63 99.4486 159.91 100.037 159.947 100.783H158.673C158.645 100.382 158.482 100.06 158.183 99.8172C157.894 99.5746 157.502 99.4532 157.007 99.4532C156.55 99.4532 156.186 99.5512 155.915 99.7472C155.644 99.9432 155.509 100.2 155.509 100.517C155.509 100.769 155.588 100.979 155.747 101.147C155.915 101.306 156.12 101.437 156.363 101.539C156.615 101.633 156.96 101.74 157.399 101.861C157.95 102.011 158.398 102.16 158.743 102.309C159.088 102.449 159.382 102.664 159.625 102.953C159.877 103.243 160.008 103.621 160.017 104.087C160.017 104.507 159.9 104.885 159.667 105.221C159.434 105.557 159.102 105.823 158.673 106.019C158.253 106.206 157.768 106.299 157.217 106.299Z" fill="white"/>
<g clip-path="url(#clip1)">
<path d="M23.1321 246.519C29.9318 246.519 35.4441 245.859 35.4441 245.045C35.4441 244.23 29.9318 243.57 23.1321 243.57C16.3323 243.57 10.82 244.23 10.82 245.045C10.82 245.859 16.3323 246.519 23.1321 246.519Z" fill="#E6E6E6"/>
<path d="M155.76 143.583H42.9651V215.822H155.76V143.583Z" fill="#E6E6E6"/>
<path d="M152.535 152.644H46.1905V211.548H152.535V152.644Z" fill="white"/>
<path d="M155.712 143.519H42.917V148.311H155.712V143.519Z" fill="#85CBF9"/>
<path d="M46.4779 146.857C46.9685 146.857 47.3661 146.46 47.3661 145.969C47.3661 145.479 46.9685 145.081 46.4779 145.081C45.9874 145.081 45.5898 145.479 45.5898 145.969C45.5898 146.46 45.9874 146.857 46.4779 146.857Z" fill="white"/>
<path d="M49.8491 146.857C50.3396 146.857 50.7373 146.46 50.7373 145.969C50.7373 145.479 50.3396 145.081 49.8491 145.081C49.3586 145.081 48.961 145.479 48.961 145.969C48.961 146.46 49.3586 146.857 49.8491 146.857Z" fill="white"/>
<path d="M53.2203 146.857C53.7109 146.857 54.1085 146.46 54.1085 145.969C54.1085 145.479 53.7109 145.081 53.2203 145.081C52.7298 145.081 52.3321 145.479 52.3321 145.969C52.3321 146.46 52.7298 146.857 53.2203 146.857Z" fill="white"/>
<path d="M106.628 167.474C106.609 167.54 106.599 167.608 106.596 167.676L106.628 167.474Z" fill="#7F77FF"/>
<path d="M93.0276 173.698C93.0213 173.55 92.9948 173.488 92.9707 173.48C92.9881 173.618 93.0044 173.731 93.0276 173.698Z" fill="#7F77FF"/>
<path d="M92.7529 176.822C92.7481 176.886 92.7432 176.946 92.7352 177.018C92.7195 176.953 92.7257 176.884 92.7529 176.822V176.822Z" fill="#7F77FF"/>
<path d="M106.597 167.676L106.513 168.196C106.6 168.233 106.577 167.93 106.597 167.676Z" fill="#7F77FF"/>
<path d="M111.287 162.836L111.445 162.836C111.492 162.805 111.536 162.768 111.576 162.728L111.287 162.836Z" fill="#7F77FF"/>
<path d="M117.476 163.11C117.481 163.073 117.498 163.038 117.523 163.01C117.549 162.983 117.582 162.964 117.618 162.955C117.577 162.897 117.529 162.844 117.477 162.795C117.4 162.786 117.481 163.011 117.476 163.11Z" fill="#7F77FF"/>
<path d="M123.951 158.696C123.972 158.693 123.993 158.69 124.009 158.686L123.951 158.696Z" fill="#7F77FF"/>
<path d="M123.822 158.717L123.951 158.696C123.909 158.702 123.86 158.709 123.822 158.717Z" fill="#7F77FF"/>
<path d="M106.333 163.368C106.317 163.365 106.301 163.367 106.287 163.374C106.272 163.38 106.26 163.391 106.252 163.405C106.28 163.424 106.307 163.405 106.333 163.368Z" fill="#7F77FF"/>
<path d="M131.842 158.949L131.854 159.055C131.895 159.068 131.938 159.075 131.981 159.078L131.842 158.949Z" fill="#7F77FF"/>
<path d="M92.2546 180.617C92.2562 180.617 92.2562 180.619 92.253 180.622C92.253 180.623 92.2514 180.625 92.2498 180.627C92.2498 180.63 92.2256 180.633 92.2079 180.636C92.199 180.634 92.1898 180.632 92.1805 180.631C92.2047 180.628 92.2288 180.623 92.2481 180.622C92.2514 180.619 92.253 180.617 92.2546 180.617Z" fill="#7F77FF"/>
<path d="M74.2048 205.443C73.5729 205.241 75.2333 205.184 74.2819 204.96C74.3705 205.049 73.4171 205.312 74.2048 205.443Z" fill="#7F77FF"/>
<path d="M79.2561 183.525C79.2339 183.58 79.1998 183.629 79.1563 183.668C79.2046 183.562 79.232 183.53 79.2561 183.525Z" fill="#7F77FF"/>
<path d="M88.6105 181.087C88.5237 181.084 88.4373 181.075 88.3521 181.058L88.6105 181.087Z" fill="#7F77FF"/>
<path d="M75.9081 184.321C75.8201 184.304 75.7295 184.304 75.6414 184.321C75.6597 184.332 75.6793 184.342 75.6997 184.348C75.7656 184.321 75.8375 184.312 75.9081 184.321V184.321Z" fill="#7F77FF"/>
<path d="M75.9079 184.321C75.9415 184.327 75.9767 184.334 76.0215 184.339C75.9841 184.331 75.9461 184.324 75.9079 184.321Z" fill="#7F77FF"/>
<path d="M70.3848 184.34C70.4147 184.358 70.4542 184.371 70.4889 184.386C70.5448 184.382 70.6101 184.378 70.6677 184.374L70.3848 184.34Z" fill="#7F77FF"/>
<path d="M75.0779 184.492C75.0769 184.5 75.0739 184.507 75.0691 184.514C75.0643 184.521 75.058 184.526 75.0506 184.529C75.0643 184.509 75.0779 184.492 75.0779 184.492Z" fill="#7F77FF"/>
<path d="M130.922 205.116C130.886 205.113 130.85 205.11 130.81 205.105C130.852 205.111 130.888 205.114 130.922 205.116Z" fill="#7F77FF"/>
<path d="M132.46 199.943C132.452 199.943 132.445 199.948 132.437 199.948C132.445 199.984 132.453 199.974 132.46 199.943Z" fill="#7F77FF"/>
<path d="M88.1293 181.233C88.187 181.222 88.2434 181.205 88.2977 181.183C88.4149 181.213 88.2544 181.212 88.1293 181.233Z" fill="#7F77FF"/>
<path d="M132.278 180.189C132.286 180.15 132.295 180.107 132.306 180.055C132.296 180.1 132.287 180.144 132.278 180.189Z" fill="#7F77FF"/>
<path d="M132.568 197.263C132.585 197.224 132.609 197.189 132.64 197.16L132.662 197.24C132.68 197.075 132.669 196.909 132.63 196.748C132.665 196.534 132.685 196.318 132.691 196.102C132.861 196.011 132.782 195.185 132.792 194.787C132.567 194.819 132.603 194.308 132.422 194.774C132.434 194.747 132.442 194.883 132.452 195.127C132.456 195.184 132.464 195.241 132.476 195.297C132.47 195.289 132.463 195.279 132.455 195.27C132.46 195.531 132.465 195.873 132.471 196.261C132.318 195.92 132.288 195.536 132.385 195.175C132.24 194.972 132.091 194.746 132.022 194.619C132.337 194.074 132.507 193.022 132.699 192.876C132.574 191.66 132.616 190.01 132.192 189.244C132.138 188.897 132.314 188.846 132.382 188.716C132.423 188.916 132.417 189.154 132.478 189.263C132.369 188.57 132.436 187.212 132.139 187.047C132.273 186.175 132.412 187.538 132.364 186.339L132.454 186.501C132.919 184.184 131.742 182.719 132.277 180.187C132.256 180.282 132.237 180.338 132.202 180.364C132.47 177.385 131.95 174.223 132.375 171.283C132.46 170.448 132.273 170.357 132.128 169.847L132.37 169.666L132.091 168.794C131.886 167.558 132.685 166.653 132.298 165.087L132.135 165.289C132.167 164.726 132.038 163.508 132.226 163.603C132.177 163.549 132.143 163.483 132.128 163.412C132.114 163.341 132.119 163.267 132.143 163.199L132.269 163.181L132.051 161.799C132.143 160.73 132.555 161.967 132.579 160.404C132.531 159.824 132.21 158.751 132.125 158.969C132.12 159.203 132.046 159.567 131.92 159.585L131.854 159.054C131.83 159.048 131.808 159.041 131.784 159.033V158.949H131.554C131.507 158.928 131.455 158.918 131.404 158.918C131.352 158.918 131.301 158.928 131.253 158.949H125.506L125.568 158.886L125.379 158.949H124.568C124.592 158.9 124.669 158.86 124.829 158.841C124.239 158.676 124.306 158.96 123.801 158.775C123.745 158.747 123.769 158.73 123.822 158.718L123.245 158.817C123.359 158.747 123.15 158.581 123.503 158.629C122.471 158.437 121.837 158.88 121.448 158.626L121.535 158.607C120.462 158.69 120.916 158.785 120.762 158.949H120.092L119.957 158.836L119.776 158.686C119.714 158.629 119.647 158.578 119.575 158.535C119.52 158.612 119.471 158.694 119.428 158.779C119.261 158.771 118.918 158.753 118.934 158.654C118.641 158.738 118.702 158.764 118.772 158.79C118.849 158.815 118.942 158.839 118.824 158.92C118.636 158.875 118.444 158.849 118.251 158.841C118.23 159.197 118.256 159.628 118.248 159.957C118.24 160.3 118.2 160.521 118.043 160.59C118.229 160.845 118.187 159.909 118.317 160.669C117.897 160.882 118.387 161.557 118.195 162.19C117.979 162.007 118.094 161.379 117.9 162.033C117.961 162.098 118.006 162.176 118.032 162.261C118.05 162.347 118.052 162.435 118.038 162.522C118.009 162.676 117.966 162.827 117.908 162.972C117.813 162.949 117.715 162.943 117.618 162.955C117.714 163.101 117.499 163.131 117.177 163.138C116.983 163.138 116.76 163.139 116.533 163.139C116.294 163.142 116.048 163.149 115.818 163.173C115.875 163.075 114.085 163.014 113.228 162.908L113.253 162.859C113.087 163.154 112.204 163.098 111.56 163.158C111.585 162.982 111.701 162.913 112.05 162.835L111.444 162.836C111.301 162.931 111.114 162.98 110.721 163.014L110.873 162.793C110.471 162.799 110.065 162.865 109.631 162.91C109.413 162.932 109.19 162.948 108.954 162.952C108.837 162.953 108.717 162.95 108.594 162.944C108.533 162.94 108.47 162.936 108.408 162.929C108.337 162.921 108.267 162.913 108.196 162.905C108.174 162.956 108.252 163.019 108.302 163.083C108.364 163.145 108.419 163.213 108.469 163.285C108.483 163.305 108.492 163.328 108.494 163.352C108.497 163.376 108.493 163.401 108.483 163.423H107.922C107.924 163.362 107.96 163.308 108.079 163.279C107.914 163.326 107.741 163.337 107.571 163.312C107.699 163.251 107.848 163.189 108.017 163.126C107.407 163.045 107.766 163.282 107.338 163.264C107.25 163.107 106.928 163.152 106.893 163.027C107.013 163.011 107.359 163.091 107.513 163.03C107.194 163.014 106.817 162.977 106.471 162.926C106.451 163.08 106.404 163.23 106.333 163.368C106.423 163.376 106.546 163.527 106.566 163.939C106.572 164.467 106.524 164.552 106.465 164.585C106.436 164.601 106.404 164.603 106.373 164.645C106.355 164.673 106.34 164.704 106.33 164.736C106.314 164.779 106.302 164.824 106.295 164.869C106.404 165.065 106.29 165.578 106.527 165.592C106.526 165.828 106.415 165.871 106.351 165.962C106.455 166.379 106.381 167.909 106.633 167.439L106.649 167.331C106.654 167.352 106.656 167.375 106.66 167.4C106.726 167.814 106.752 168.234 106.737 168.652C106.728 169.002 106.694 169.334 106.662 169.626C106.426 169.605 106.208 169.587 106.005 169.577C105.902 169.574 105.803 169.571 105.703 169.574L105.511 169.579C105.444 169.584 105.375 169.587 105.307 169.59L105.31 169.512C104.501 169.602 103.508 169.565 102.931 169.736C102.692 169.735 102.367 169.59 102.47 169.497C101.851 169.557 101.782 169.645 100.889 169.515C101.509 169.377 100.674 169.392 101.525 169.414C100.722 169.345 100.539 169.218 99.6769 169.435C99.9703 169.231 99.0725 169.18 98.691 169.239L99.2537 169.385C98.8585 169.406 98.4623 169.404 98.0673 169.379L98.2725 169.113C97.4517 168.951 96.7094 169.089 96.0169 169.199C95.685 169.26 95.3489 169.295 95.0117 169.303L94.8899 169.302L94.7344 169.294C94.6141 169.287 94.4923 169.278 94.3688 169.263C94.0987 169.231 93.8306 169.184 93.5656 169.122C93.2771 169.215 93.6618 169.247 94.0161 169.284C94.3801 169.321 94.7103 169.363 94.4602 169.472C93.9301 169.437 93.4027 169.369 92.8811 169.268C92.7776 169.617 92.7052 169.975 92.6647 170.337C92.6454 170.547 92.639 170.738 92.639 170.907C92.639 170.99 92.6406 171.07 92.6454 171.144C92.647 171.177 92.6486 171.227 92.6518 171.243C92.655 171.262 92.6583 171.283 92.6615 171.303C92.6888 171.441 92.7323 171.576 92.7913 171.705C92.9443 172.03 93.0005 172.392 92.9532 172.749C93.0478 172.609 93.3027 172.479 93.3909 173.289C93.3717 173.738 93.2338 173.983 93.1103 174.005C93.0414 174.02 92.9773 173.964 92.9404 173.839C92.9292 173.807 92.9212 173.774 92.9164 173.741C92.9083 173.56 92.9388 173.473 92.9709 173.48C92.9356 173.236 92.8955 172.915 92.7929 173.215L92.8875 173.313C92.8574 173.45 92.837 173.589 92.8266 173.73C92.7833 174.161 92.7577 174.663 92.6438 174.485C92.7224 174.974 92.7817 174.805 92.8282 174.48C92.7272 175.346 92.8394 175.884 92.7528 176.822C92.8057 176.663 92.918 176.516 92.9164 176.675C92.7977 178.14 93.0975 177.321 93.1392 178.313C92.9933 178.877 92.7929 178.111 92.9131 179.11C92.8154 179.721 92.6615 179.24 92.5845 178.998C92.6602 179.413 92.6613 179.839 92.5877 180.255C92.5829 180.282 92.5797 180.309 92.5749 180.335C92.5717 180.354 92.5685 180.375 92.5653 180.394L92.5589 180.428C92.5573 180.437 92.5556 180.436 92.554 180.439L92.5412 180.455C92.5268 180.471 92.5107 180.486 92.4931 180.498C92.4706 180.511 92.4491 180.526 92.429 180.543C92.413 180.518 92.3936 180.494 92.3713 180.474C92.381 180.485 92.3883 180.498 92.3927 180.512C92.3971 180.526 92.3986 180.541 92.3969 180.556C92.4165 180.569 92.4369 180.581 92.4579 180.591C92.4991 180.613 92.5427 180.629 92.5877 180.641C92.5557 180.687 92.554 180.734 92.4915 180.676C92.4844 180.671 92.4779 180.665 92.4723 180.659C92.5283 180.742 92.5951 180.818 92.6711 180.885C92.7544 180.97 92.8538 181.061 92.7593 181.146C92.6276 181.113 92.4907 181.108 92.3569 181.13C92.3232 181.132 92.2895 181.132 92.2575 181.13C92.2069 181.127 92.1566 181.121 92.1068 181.112C92.0666 181.109 92.0276 181.098 91.9926 181.078C91.9576 181.058 91.9276 181.03 91.9048 180.997C92.0539 181.008 92.1613 181.011 92.2414 181.01C92.2847 181.01 92.3007 181.003 92.3136 180.992C92.336 180.973 92.32 180.936 92.3056 180.897C92.2783 180.832 92.2687 180.758 92.3168 180.721C92.3095 180.723 92.3019 180.724 92.2943 180.724C92.2801 180.724 92.266 180.721 92.2526 180.716C92.1917 180.711 92.1292 180.705 92.0635 180.699C92.0218 180.67 92.1036 180.646 92.1805 180.631C92.0939 180.614 92.017 180.601 91.9497 180.591C91.8166 180.567 91.6803 180.567 91.5473 180.591C91.2555 180.66 91.318 180.915 90.4908 180.91C90.6383 180.769 90.2182 180.641 90.0274 180.671C90.5004 180.675 90.2535 180.909 89.8206 181.018C89.0688 180.907 89.0046 181.099 88.6103 181.087L89.0591 181.14C88.9068 181.282 88.5317 181.263 88.0091 181.308C87.9946 181.273 88.0347 181.253 88.0924 181.239C87.5522 181.322 86.9045 180.95 86.1943 181.088C86.1872 181.089 86.1802 181.09 86.1734 181.091C85.7983 180.995 86.1366 180.825 85.8063 180.76C84.8989 180.944 84.8236 180.564 83.8681 180.716C84.1438 180.909 84.1919 180.862 83.5186 181.048L85.0897 180.913L84.0813 181.191C84.5558 181.194 85.0817 181.071 85.3654 181.104C84.8845 181.26 84.9342 181.212 85.1618 181.37C84.5126 181.083 83.8761 181.539 83.1274 181.345L83.1499 180.87C82.6733 180.795 82.1877 180.797 81.7118 180.877L81.5291 180.901L81.4377 180.912L81.4136 180.915L81.3768 180.918L81.3014 180.925C81.1042 180.939 80.9038 180.955 80.697 180.971C80.2914 180.998 79.8778 181.018 79.4049 181.014C79.4033 181.226 79.3968 181.446 79.3856 181.675L79.461 181.071L79.5203 181.077C79.5133 181.088 79.5032 181.096 79.4914 181.101C79.5598 181.398 79.5825 181.704 79.5588 182.008C79.5588 182.036 79.5572 182.065 79.5572 182.093V182.095C79.554 182.246 79.5492 182.403 79.5475 182.56C79.5475 182.653 79.5492 182.744 79.5524 182.834C79.554 182.879 79.5572 182.922 79.5588 182.966L79.5636 183.028L79.57 183.071C79.4113 183.026 79.3536 183.323 79.2558 183.525C79.2846 183.519 79.2991 183.583 79.3087 183.684C79.3183 183.725 79.3231 183.777 79.3343 183.838C79.3638 184.004 79.4425 184.159 79.5604 184.28C79.536 184.304 79.5085 184.325 79.4786 184.343C79.3801 184.306 79.2838 184.264 79.19 184.216C79.0917 184.195 78.9893 184.207 78.8983 184.25C78.8774 184.259 78.8566 184.271 78.8357 184.282C78.8193 184.291 78.8014 184.297 78.7828 184.299C78.7604 184.306 78.7379 184.312 78.7171 184.319C78.6289 184.346 78.5456 184.375 78.4638 184.404C78.0762 184.564 77.6578 184.636 77.239 184.614C77.5805 184.442 77.0642 184.33 77.8258 184.206C77.4458 184.205 77.1059 184.176 77.0995 184.285C77.058 184.27 77.0138 184.263 76.9697 184.266C76.7789 184.267 76.4727 184.341 76.1921 184.375C76.0577 184.396 75.9209 184.396 75.7865 184.375C75.7567 184.37 75.7275 184.361 75.6999 184.349C75.6829 184.357 75.6663 184.365 75.6502 184.375C75.5712 184.447 75.4781 184.501 75.3767 184.535C75.2754 184.568 75.1682 184.58 75.0619 184.57C75.0568 184.567 75.0525 184.563 75.0491 184.558C75.0457 184.554 75.0434 184.548 75.0424 184.542C75.0413 184.537 75.0415 184.531 75.0429 184.525C75.0444 184.519 75.047 184.514 75.0507 184.509C74.9657 184.575 74.4254 184.612 74.7701 184.774C74.2651 184.561 73.587 184.538 72.896 184.548C71.9902 184.559 71.0652 184.626 70.488 184.386C70.0744 184.412 69.6191 184.439 69.1719 184.46C68.949 184.468 68.7278 184.477 68.5162 184.485C68.4103 184.489 68.3061 184.492 68.2067 184.495C68.0945 184.497 67.9871 184.5 67.8845 184.501C67.9166 184.477 67.9166 184.458 67.9342 184.447C67.9735 184.431 68.0167 184.429 68.0576 184.439C68.0288 184.436 68.0096 184.431 67.9743 184.429C67.939 184.426 67.9037 184.424 67.8701 184.421C67.8027 184.418 67.7402 184.416 67.6825 184.415C67.5839 184.414 67.4854 184.42 67.3875 184.431C67.2677 184.442 67.1515 184.478 67.046 184.537C66.8825 184.672 66.6781 184.749 66.4657 184.755C66.4731 184.927 66.4645 185.1 66.44 185.271C66.3759 185.41 66.3358 185.442 66.3086 185.396C66.2776 185.301 66.2619 185.201 66.2621 185.101C66.2477 184.846 66.2525 184.557 66.2044 184.772C65.9447 184.657 65.9623 185.269 66.0072 185.939C66.0296 186.329 66.0585 186.499 66.0633 186.744C66.0748 186.968 66.0438 187.191 65.9719 187.403L65.9415 187.211C65.7635 187.817 66.1387 188.69 66.1018 189.681C66.1018 189.681 66.0553 189.633 66.0232 189.675C66.2878 190.353 66.3759 191.635 66.4497 192.588C66.2461 192.291 66.3423 192.155 66.1355 192.336C66.1643 192.764 66.4673 192.211 66.525 193.064C66.4144 193.341 66.3166 193.957 66.0954 194.039L66.0825 193.234C65.7972 193.646 66.0938 194.274 66.0441 194.699L65.919 194.645C65.9591 195.877 66.2733 195.895 66.2509 197.219L66.3455 197.083C66.6581 197.808 66.1707 197.691 66.4032 198.412L66.0858 198.632C66.1627 199.109 66.392 200.304 66.4513 201.161C66.2172 200.676 66.097 199.674 65.9575 199.053C65.9559 199.526 65.9815 200.663 66.1371 200.91C66.1066 200.719 66.0296 200.479 66.0777 200.289C66.3262 200.87 66.4481 201.634 66.4433 202.579C66.2429 202.524 66.1563 202.768 66.1146 203.146C66.113 203.17 66.1098 203.194 66.1082 203.22C66.1066 203.255 66.1034 203.292 66.1018 203.329C66.0986 203.404 66.0954 203.481 66.0906 203.561C66.0874 203.722 66.0825 203.892 66.0777 204.065C66.0697 204.419 66.0617 204.791 66.0537 205.152C66.7863 205.176 67.4597 205.229 67.8508 205.394L67.9823 205.383L68.0641 205.373L68.2212 205.357C68.3254 205.347 68.4296 205.339 68.5338 205.333C68.7422 205.319 68.9506 205.314 69.1606 205.312C69.579 205.31 70.0023 205.328 70.4335 205.352C71.296 205.4 72.1922 205.472 73.1653 205.453C72.476 204.977 73.7329 205.44 73.6142 204.95C74.0631 204.919 74.2363 204.927 74.2779 204.958L74.2122 204.943C74.2363 204.95 74.2555 204.955 74.2811 204.961V204.959L75.6535 205.251C75.9789 205.394 75.2222 205.359 75.2639 205.469C76.2563 205.508 75.6807 205.678 76.3364 205.807C76.2017 205.633 76.6811 205.556 77.247 205.623L76.4502 205.397C77.837 205.136 77.6494 205.809 79.0458 205.549L78.6033 205.705C79.3215 205.613 81.2485 205.708 81.9523 205.314C82.079 205.37 82.2473 205.504 81.9315 205.54C83.6452 205.599 85.7454 205.121 87.0776 205.363L86.9478 205.484C87.2668 205.448 87.5041 205.258 87.9048 205.378C87.884 205.428 87.775 205.498 87.9241 205.504C88.0924 205.464 88.7722 205.294 89.197 205.365L88.8347 205.5C89.8864 205.599 90.6302 205.444 91.3869 205.293C91.8529 205.192 92.3254 205.124 92.8009 205.089C92.7977 205.442 94.1123 205.557 94.7696 205.613L94.7456 205.663C95.5258 205.678 96.3062 205.64 97.0814 205.549C97.6762 205.484 98.2533 205.4 98.8641 205.331H98.8657C98.9042 205.327 98.9427 205.322 98.9827 205.317C99.1238 205.301 99.2681 205.286 99.414 205.272C99.4589 205.267 99.5054 205.262 99.5519 205.258C99.6513 205.25 99.7523 205.242 99.8549 205.234C100.365 205.373 100.891 205.447 101.42 205.455C102.673 205.516 104.251 205.466 105.444 205.609C105.168 205.545 105.488 205.333 105.807 205.298C106.203 205.365 106.883 205.091 106.91 205.323C106.912 205.341 106.911 205.359 106.907 205.376L106.765 205.37H106.757L106.758 205.371C107.077 205.687 107.943 205.604 108.619 205.612L108.73 205.189C110.501 205.804 113.371 204.963 114.338 205.514C114.766 205.408 115.295 205.41 115.718 205.304L115.696 205.53C116.774 205.599 117.855 205.609 118.934 205.562L118.636 205.726C119.462 205.74 119.678 205.07 120.441 205.057L120.669 205.395C122.11 205.391 123.567 205.689 124.991 205.381C124.968 205.431 124.925 205.529 124.693 205.543C125.348 205.551 127.189 205.758 127.086 205.351C127.243 205.58 128.596 205.33 129.332 205.203L129.212 205.426C129.541 205.283 129.709 205.192 129.911 205.128C130.026 205.091 130.143 205.064 130.262 205.046C130.336 205.035 130.406 205.024 130.507 205.014C130.629 205.004 130.767 204.995 130.923 204.983C131.198 205.011 131.245 205.134 130.921 205.117C131.162 205.148 131.407 205.137 131.644 205.084C131.843 205.021 132.051 204.988 132.26 204.987C132.259 204.825 132.267 204.664 132.285 204.504C132.333 204.69 132.382 204.887 132.428 205.096C132.446 204.753 132.432 204.408 132.385 204.068C132.346 203.863 132.285 203.711 132.204 203.427C132.197 203.388 132.192 203.347 132.189 203.303C132.186 203.263 132.183 203.223 132.18 203.18C132.176 203.109 132.175 203.032 132.176 202.955C132.181 202.796 132.197 202.637 132.223 202.479C132.273 202.17 132.361 201.907 132.462 201.852C132.338 201.751 132.173 201.344 132.231 200.905C132.308 200.846 132.356 201.004 132.378 201.086C132.531 199.84 132.119 199.233 132.338 198.377C132.372 198.367 132.402 198.349 132.425 198.323C132.449 198.298 132.465 198.266 132.471 198.233C132.466 199.14 132.455 199.884 132.441 199.943C132.644 199.932 132.681 199.148 132.963 199.78C132.808 199.138 132.471 198.042 132.568 197.263ZM132.749 195.603C132.781 195.869 132.736 195.958 132.689 195.994C132.686 195.869 132.678 195.722 132.662 195.53C132.654 195.523 132.644 195.507 132.635 195.499C132.681 195.524 132.72 195.559 132.749 195.603V195.603ZM123.572 158.913C123.599 158.922 123.625 158.934 123.649 158.949H123.309C123.391 158.936 123.478 158.924 123.572 158.913V158.913Z" fill="#85CBF9"/>
<path d="M92.3657 180.702C92.3531 180.716 92.3355 180.724 92.3167 180.725C92.3316 180.715 92.3482 180.707 92.3657 180.702Z" fill="#7F77FF"/>
<path d="M88.0925 181.242C88.1087 181.239 88.1246 181.235 88.1407 181.232C88.124 181.235 88.1078 181.238 88.0925 181.242Z" fill="#7F77FF"/>
<path d="M132.453 195.127C132.445 195.091 132.439 195.055 132.436 195.018C132.416 195.072 132.399 195.124 132.385 195.176L132.456 195.27L132.453 195.127Z" fill="#7F77FF"/>
<path d="M106.628 167.474C106.634 167.448 106.645 167.423 106.66 167.4C106.649 167.424 106.642 167.424 106.633 167.439L106.628 167.474Z" fill="#7F77FF"/>
<path d="M117.832 158.678C117.905 158.68 117.986 158.784 117.971 159.552L118.019 158.609L118.373 158.626C118.087 158.539 117.615 158.422 118.269 158.401C118.044 158.375 117.872 158.355 117.751 158.341C117.697 158.793 117.76 158.68 117.832 158.678Z" fill="#7F77FF"/>
<path d="M117.845 162.602C117.825 162.422 117.793 162.417 117.76 162.438C117.727 162.461 117.694 162.507 117.669 162.484C117.748 162.697 117.768 162.8 117.845 162.602Z" fill="#7F77FF"/>
<path d="M102.236 169.417L102.292 169.212C101.864 169.241 102.288 169.291 102.236 169.417Z" fill="#7F77FF"/>
<path d="M94.835 169.047L94.8705 169.044L94.9364 169.039L95.1997 169.016L95.3865 168.987L95.0298 169.024L94.8514 169.043L94.56 169.061L94.7797 169.05L94.835 169.047Z" fill="#7F77FF"/>
<path d="M71.3874 184.141L71.5167 184.394C71.8062 184.349 71.8669 184.065 71.3874 184.141Z" fill="#7F77FF"/>
<path d="M66.1094 197.069C66.0321 197.213 65.9849 197.371 65.9706 197.534C65.9562 197.696 65.9751 197.86 66.026 198.015C66.0434 197.638 66.1418 197.262 66.1094 197.069Z" fill="#7F77FF"/>
<path d="M109.235 205.592L109.871 205.522L109.572 205.507L109.235 205.592Z" fill="#7F77FF"/>
<path d="M112.353 184.897C112.314 186.842 112.043 188.776 111.544 190.656C109.601 197.838 104.284 203.064 101.42 205.455C100.891 205.447 100.365 205.373 99.8549 205.234C99.7523 205.242 99.6513 205.25 99.5519 205.258C99.5054 205.262 99.4589 205.267 99.414 205.272C99.2681 205.286 99.1238 205.301 98.9828 205.317C98.9427 205.322 98.9042 205.327 98.8657 205.331H98.8641C97.9374 202.908 97.2726 200.392 96.881 197.827L96.8794 197.825V197.824C96.384 194.534 96.3039 190.674 97.3475 186.816C97.7946 185.184 98.4131 183.604 99.1928 182.101C102.919 174.871 109.362 170.563 109.362 170.563C109.362 170.563 112.546 177.103 112.353 184.897Z" fill="white"/>
<path d="M92.7529 176.822C92.7481 176.886 92.7432 176.946 92.7352 177.018C92.7195 176.953 92.7257 176.884 92.7529 176.822V176.822Z" fill="white"/>
<path d="M88.1293 181.233C88.187 181.222 88.2434 181.205 88.2977 181.183C88.4149 181.213 88.2544 181.212 88.1293 181.233Z" fill="white"/>
<path d="M88.3521 181.058L88.6105 181.087C88.5237 181.084 88.4373 181.075 88.3521 181.058V181.058Z" fill="white"/>
<path d="M92.2079 180.636C92.199 180.634 92.1898 180.632 92.1805 180.631C92.2047 180.628 92.2288 180.623 92.2481 180.622C92.2514 180.619 92.253 180.617 92.2546 180.617C92.2562 180.617 92.2562 180.619 92.253 180.622C92.253 180.623 92.2514 180.625 92.2498 180.627C92.2497 180.63 92.2256 180.633 92.2079 180.636Z" fill="white"/>
<path d="M92.3657 180.702C92.3531 180.716 92.3355 180.724 92.3167 180.725C92.3316 180.715 92.3482 180.707 92.3657 180.702Z" fill="white"/>
<path d="M101.511 197.814C101.511 197.817 101.509 197.821 101.509 197.824C101.122 200.364 100.465 202.856 99.5519 205.258C99.5054 205.262 99.4589 205.267 99.414 205.272C99.2681 205.286 99.1238 205.301 98.9828 205.317C98.9427 205.322 98.9042 205.327 98.8657 205.331H98.8641C98.2533 205.4 97.6762 205.484 97.0814 205.549C94.2454 203.204 88.8138 197.934 86.8467 190.656C86.3462 188.775 86.0738 186.841 86.0355 184.896C86.0063 183.625 86.0594 182.353 86.1943 181.088C86.9045 180.95 87.5521 181.322 88.0924 181.239C88.0347 181.253 87.9946 181.273 88.009 181.308C88.5317 181.263 88.9068 181.282 89.0591 181.14L88.6102 181.087C89.0046 181.099 89.0687 180.907 89.8206 181.018C90.2535 180.909 90.5004 180.675 90.0274 180.671C90.2182 180.641 90.6382 180.769 90.4907 180.91C91.318 180.915 91.2555 180.66 91.5472 180.591H91.9496C92.017 180.601 92.0939 180.614 92.1805 180.631C92.1035 180.646 92.0218 180.67 92.0635 180.699C92.1292 180.705 92.1917 180.712 92.2526 180.716C92.266 180.721 92.2801 180.724 92.2943 180.724C92.3019 180.724 92.3094 180.723 92.3168 180.721C92.2687 180.758 92.2783 180.832 92.3056 180.897C92.32 180.936 92.336 180.973 92.3136 180.992C92.3007 181.003 92.2847 181.01 92.2414 181.01C92.1613 181.011 92.0538 181.008 91.9048 180.997C91.9276 181.03 91.9576 181.058 91.9926 181.078C92.0276 181.098 92.0666 181.109 92.1068 181.112C92.1566 181.121 92.2069 181.127 92.2575 181.13C92.2895 181.132 92.3232 181.132 92.3568 181.13C92.4907 181.108 92.6276 181.113 92.7592 181.146C92.8538 181.061 92.7544 180.97 92.6711 180.885C92.5951 180.818 92.5283 180.742 92.4723 180.659C92.4779 180.665 92.4844 180.671 92.4915 180.676C92.554 180.734 92.5556 180.687 92.5877 180.641C92.5427 180.629 92.4991 180.613 92.4578 180.591H92.5749V180.335C92.5797 180.309 92.5829 180.282 92.5877 180.255C92.6613 179.839 92.6602 179.413 92.5845 178.998C92.6615 179.24 92.8154 179.721 92.9131 179.11C92.7929 178.111 92.9933 178.877 93.1392 178.313C93.0975 177.321 92.7977 178.14 92.9164 176.675C92.918 176.516 92.8057 176.664 92.7528 176.822C92.8394 175.884 92.7272 175.346 92.8282 174.48C92.7817 174.805 92.7224 174.974 92.6438 174.485C92.7576 174.663 92.7833 174.161 92.8266 173.73C92.8634 173.765 92.9019 173.802 92.9404 173.839C92.9965 173.893 93.0542 173.949 93.1103 174.005C95.1079 175.966 97.4501 178.711 99.1928 182.101C99.193 182.101 99.1932 182.101 99.1934 182.102C99.1936 182.102 99.1938 182.102 99.1939 182.102C99.1941 182.102 99.1942 182.102 99.1943 182.102C99.1943 182.103 99.1944 182.103 99.1944 182.103C99.9755 183.604 100.595 185.184 101.041 186.816C102.083 190.67 102.005 194.524 101.511 197.814Z" fill="white"/>
<path d="M79.2561 183.525C79.2339 183.58 79.1998 183.629 79.1563 183.668C79.2046 183.562 79.232 183.53 79.2561 183.525Z" fill="#3F3D56"/>
<path d="M75.0779 184.492C75.0769 184.5 75.0739 184.507 75.0691 184.514C75.0643 184.521 75.058 184.526 75.0506 184.529C75.0643 184.509 75.0779 184.492 75.0779 184.492Z" fill="#3F3D56"/>
<path d="M98.9827 205.317C98.9426 205.322 98.9042 205.327 98.8657 205.331H98.8641C98.2533 205.4 97.6762 205.484 97.0814 205.549C96.3062 205.64 95.5258 205.678 94.7456 205.663L94.7696 205.614C94.1123 205.557 92.7977 205.442 92.8009 205.089C92.3254 205.124 91.8528 205.192 91.3869 205.293C87.9193 204.164 83.8809 202.253 80.5768 199.037C75.9196 194.505 73.8179 188.45 72.896 184.548C73.587 184.538 74.2651 184.561 74.7701 184.774C74.4255 184.612 74.9657 184.575 75.0507 184.509C75.047 184.514 75.0444 184.519 75.043 184.525C75.0415 184.531 75.0413 184.537 75.0424 184.542C75.0435 184.548 75.0457 184.554 75.0491 184.559C75.0525 184.563 75.0569 184.567 75.0619 184.57C75.1682 184.581 75.2754 184.568 75.3768 184.535C75.4781 184.501 75.5712 184.447 75.6503 184.375H76.9697V184.266C77.0138 184.263 77.058 184.27 77.0996 184.285C77.106 184.176 77.4458 184.205 77.8258 184.206C77.0643 184.33 77.5805 184.442 77.239 184.614C77.6578 184.636 78.0763 184.564 78.4638 184.404C78.5456 184.375 78.629 184.346 78.7171 184.319C78.738 184.312 78.7604 184.306 78.7829 184.299C78.8014 184.297 78.8193 184.291 78.8358 184.282C78.8566 184.271 78.8775 184.259 78.8983 184.25C78.9893 184.207 79.0917 184.195 79.1901 184.216C79.2838 184.264 79.3802 184.306 79.4786 184.343C79.5085 184.325 79.536 184.304 79.5604 184.28C79.4426 184.159 79.3638 184.004 79.3344 183.838C79.3231 183.777 79.3183 183.725 79.3087 183.684C79.2991 183.583 79.2847 183.519 79.2558 183.525C79.3536 183.323 79.4113 183.026 79.57 183.071L79.5636 183.028L79.5588 182.966C79.5572 182.922 79.554 182.879 79.5524 182.834C79.5492 182.744 79.5476 182.653 79.5476 182.56C79.5492 182.403 79.554 182.246 79.5572 182.095C81.8145 182.784 83.9875 183.723 86.0356 184.896C87.7773 185.894 89.389 187.104 90.8339 188.498C93.726 191.313 95.6321 194.715 96.8794 197.824V197.825L96.881 197.827C97.8477 200.241 98.5523 202.752 98.9827 205.317Z" fill="#3F3D56"/>
<path d="M106.757 205.37H106.79C106.782 205.374 106.772 205.377 106.763 205.376L106.757 205.37Z" fill="#3F3D56"/>
<path d="M126.172 180.638C126.172 180.638 125.262 191.786 117.814 199.037C114.479 202.284 110.399 204.199 106.91 205.323C106.883 205.091 106.203 205.365 105.807 205.298C105.488 205.333 105.168 205.545 105.444 205.609C104.251 205.466 102.673 205.516 101.42 205.455C100.891 205.447 100.365 205.373 99.8549 205.234C99.7523 205.242 99.6513 205.25 99.552 205.258C99.5055 205.262 99.459 205.267 99.4141 205.272C99.846 202.719 100.549 200.218 101.511 197.814C102.761 194.709 104.668 191.31 107.555 188.5C109 187.106 110.611 185.896 112.353 184.897C119.026 181.027 126.172 180.638 126.172 180.638Z" fill="#3F3D56"/>
<path d="M21.3695 174.204C21.3695 174.204 19.1366 178.669 15.6857 179.684C12.2348 180.699 24.0084 179.684 24.0084 179.684C24.0084 179.684 23.3994 176.437 24.2114 176.031C25.0234 175.625 21.3695 174.204 21.3695 174.204Z" fill="#A0616A"/>
<path d="M17.7617 166.531C17.6403 165.473 18.219 164.538 19.0543 164.442C19.0638 164.441 19.0731 164.441 19.0826 164.44C18.9782 164.425 18.8722 164.423 18.7673 164.435C17.932 164.531 17.3533 165.467 17.4747 166.525C17.5948 167.571 18.3544 168.344 19.1789 168.268C18.4717 168.166 17.8677 167.454 17.7617 166.531Z" fill="#2F2E41"/>
<path d="M18.5104 167.966C17.5017 167.624 16.9025 166.702 17.1722 165.905C17.1752 165.896 17.1797 165.888 17.1829 165.879C17.1245 165.967 17.0777 166.062 17.0438 166.162C16.7741 166.959 17.3733 167.881 18.3821 168.223C19.3794 168.56 20.4024 168.203 20.6861 167.425C20.2915 168.021 19.3906 168.264 18.5104 167.966Z" fill="#2F2E41"/>
<path d="M11.5304 187.529L11.8288 196.127L16.4976 207.088C16.4976 207.088 15.2797 212.772 17.7156 212.569C20.1515 212.366 17.9186 206.885 17.9186 206.885L15.6857 195.315L15.2797 185.774L11.5304 187.529Z" fill="#A0616A"/>
<path d="M24.6174 177.248C27.0838 177.248 29.0832 175.249 29.0832 172.783C29.0832 170.316 27.0838 168.317 24.6174 168.317C22.151 168.317 20.1515 170.316 20.1515 172.783C20.1515 175.249 22.151 177.248 24.6174 177.248Z" fill="#A0616A"/>
<path d="M28.2713 180.496L23.8702 178.738C23.8702 178.738 22.9934 178.872 20.5575 179.075C18.1216 179.278 17.04 179.087 17.04 179.087C17.04 179.087 11.8288 180.902 12.0318 181.917C12.2348 182.932 14.4677 198.969 15.4827 198.157C16.4977 197.345 17.1066 197.142 17.1066 197.142L28.2713 196.127V180.496Z" fill="#CFCCE0"/>
<path d="M12.8438 181.511H12.1832C12.1832 181.511 11.4228 181.917 11.4228 183.135C11.4228 184.353 10.8138 188.007 10.8138 188.007H14.0617L12.8438 181.511Z" fill="#CFCCE0"/>
<path d="M18.8321 183.44L16.3803 179.479C16.3245 179.389 16.2439 179.317 16.1482 179.271C16.0525 179.225 15.9457 179.208 15.8404 179.221L15.2011 179.301C15.1225 179.311 15.0469 179.337 14.9794 179.379C14.9119 179.42 14.8541 179.476 14.8099 179.542C14.7657 179.607 14.7362 179.682 14.7232 179.76C14.7102 179.838 14.7142 179.918 14.7348 179.995L15.9902 184.658C15.9902 184.658 17.9752 192.895 16.0692 197.302L15.9902 199.273C15.9902 199.273 14.1632 205.363 14.5692 210.032C14.9752 214.701 15.1782 218.761 15.1782 218.761C15.1782 218.761 14.1632 221.805 14.5692 222.82C14.691 223.125 14.6667 223.576 14.5729 224.057C14.0004 226.997 13.8527 230.005 13.9336 232.999L13.9602 233.985C13.9602 233.985 12.5393 235.203 13.7572 235.406C14.9752 235.609 18.8321 236.015 18.8321 236.015C18.8321 236.015 19.6441 234.594 19.2381 234.391L20.456 227.692C20.456 227.692 22.486 224.85 22.283 223.023C22.283 223.023 22.8919 219.979 22.283 218.558L22.486 209.626L23.2979 220.385L22.08 233.782C22.08 233.782 20.456 235 21.471 235.406C22.486 235.812 28.7787 237.842 28.7787 236.827C28.7787 235.812 28.3728 235.406 28.3728 235.406L31.0117 208.002L29.5907 196.634C29.5907 196.634 20.05 195.822 20.862 185.064C20.862 185.064 23.1962 180.216 25.5004 179.301C25.5265 179.291 25.549 179.274 25.5645 179.25C25.58 179.227 25.5877 179.2 25.5867 179.172C25.5856 179.144 25.5758 179.117 25.5586 179.095C25.5413 179.073 25.5176 179.057 25.4908 179.049L24.5553 178.782C24.5298 178.775 24.5026 178.775 24.4775 178.784C24.0715 178.921 20.5521 180.191 18.8321 183.44Z" fill="#2F2E41"/>
<path d="M23.5009 235.203L23.4685 235.495C23.2502 237.354 22.6456 239.148 21.6935 240.76C21.239 241.541 20.891 242.424 21.065 243.12C21.471 244.744 21.268 245.353 21.268 245.353H24.5159V244.744L26.3292 245.238C26.7336 245.355 27.1644 245.342 27.5608 245.2C27.9668 245.048 28.3728 244.744 28.3728 244.135C28.3728 243.627 27.9851 243.155 27.5328 242.777C26.5793 241.995 25.8885 240.939 25.5536 239.752L25.5309 239.669L26.7488 235.203L23.5009 235.203Z" fill="#2F2E41"/>
<path d="M15.0767 235.305L15.0443 235.596C14.826 237.456 14.2214 239.249 13.2693 240.862C12.8148 241.643 12.4668 242.525 12.6408 243.221C13.0468 244.845 12.8438 245.454 12.8438 245.454H16.0917V244.845L17.905 245.34C18.3093 245.457 18.7401 245.443 19.1366 245.302C19.5426 245.15 19.9485 244.845 19.9485 244.236C19.9485 243.729 19.5609 243.257 19.1086 242.878C18.1551 242.096 17.4643 241.041 17.1294 239.854L17.1066 239.77L18.3246 235.305H15.0767Z" fill="#2F2E41"/>
<path d="M25.5188 173.536C25.5188 173.536 28.7179 171.688 29.9567 171.576C29.9567 171.576 30.3175 170.764 29.9285 169.983C29.9285 169.983 29.7397 167.476 26.6106 167.573C26.6106 167.573 22.9147 165.571 21.674 166.388C20.4332 167.206 17.6706 171.128 18.8375 173.472C18.8375 173.472 17.4885 174.151 17.4243 173.786C17.3601 173.42 16.358 174.402 17.6811 175.247C17.6811 175.247 15.8291 177.122 17.6293 178.295C17.6293 178.295 17.547 176.632 18.5913 176.13C19.6356 175.627 18.7216 176.155 18.7216 176.155C18.7216 176.155 16.9338 178.395 19.604 179.267C19.604 179.267 18.6076 178.133 19.6097 177.151C19.6097 177.151 19.2993 179.443 21.1456 179.685C21.1456 179.685 20.1932 178.323 20.6943 177.833C20.6943 177.833 20.907 179.521 21.9494 179.723L22.7312 179.875L22.9957 178.515C22.9957 178.515 22.2522 180.253 23.9902 180.355C23.9902 180.355 23.1499 177.722 24.2623 176.174C25.3746 174.626 25.5188 173.536 25.5188 173.536Z" fill="#2F2E41"/>
<path d="M20.5532 167.815C21.1962 166.966 21.1741 165.866 20.5039 165.359C19.8336 164.851 18.7689 165.128 18.1259 165.977C17.4829 166.826 17.505 167.925 18.1752 168.433C18.8455 168.941 19.9102 168.664 20.5532 167.815Z" fill="#2F2E41"/>
<path d="M20.9969 166.799C20.593 166.952 20.2416 167.217 19.9845 167.564C19.7557 167.862 19.6034 168.211 19.5407 168.581C19.9446 168.428 20.296 168.162 20.5532 167.815C20.7819 167.518 20.9343 167.169 20.9969 166.799V166.799Z" fill="#85CBF9"/>
<path d="M36.4956 205.467L36.2377 205.123L38.1094 203.72C38.3315 203.553 38.5058 203.331 38.6146 203.075C38.7234 202.82 38.7629 202.54 38.7291 202.264L37.8019 194.776C37.7353 194.233 37.8131 193.681 38.0275 193.177C38.2419 192.673 38.5853 192.235 39.0232 191.906L41.0632 190.377C41.4503 190.088 41.9363 189.964 42.4146 190.032C42.8929 190.101 43.3246 190.356 43.6148 190.743L44.0873 191.373L43.7432 191.631L43.2707 191.001C43.0489 190.705 42.7191 190.51 42.3536 190.458C41.9881 190.405 41.6168 190.5 41.3211 190.721L39.281 192.25C38.9037 192.533 38.6078 192.911 38.4231 193.346C38.2383 193.78 38.1712 194.255 38.2286 194.724L39.1558 202.211C39.1988 202.562 39.1485 202.918 39.0101 203.243C38.8717 203.569 38.6499 203.852 38.3672 204.064L36.4956 205.467Z" fill="#CFCCE0"/>
<path d="M37.163 206.102L38.689 204.092L38.1732 203.404L35.8853 204.397L25.8976 211.298L27.6656 213.657L37.163 206.102Z" fill="#CFCCE0"/>
<path d="M44.3567 190.289L42.4298 191.733C41.9032 192.127 41.7962 192.874 42.1908 193.401L51.1305 205.33C51.5252 205.857 52.272 205.964 52.7987 205.569L54.7255 204.126C55.2522 203.731 55.3592 202.984 54.9645 202.457L46.0249 190.528C45.6302 190.001 44.8833 189.894 44.3567 190.289Z" fill="#E6E6E6"/>
<path opacity="0.2" d="M54.9647 202.458L54.6884 202.089L54.6332 202.015C54.727 202.14 54.7952 202.283 54.834 202.434C54.8728 202.586 54.8813 202.744 54.8591 202.899C54.8369 203.053 54.7844 203.202 54.7047 203.337C54.6249 203.472 54.5194 203.589 54.3942 203.683L52.4669 205.127C52.2141 205.317 51.8963 205.398 51.5835 205.353C51.2708 205.308 50.9886 205.141 50.7991 204.888L50.8544 204.962L51.1306 205.331C51.3201 205.584 51.6023 205.751 51.9151 205.796C52.2278 205.84 52.5456 205.759 52.7985 205.57L54.7257 204.125C54.9786 203.936 55.1458 203.654 55.1906 203.341C55.2354 203.028 55.1542 202.71 54.9647 202.458V202.458Z" fill="black"/>
<path d="M49.2627 194.593C49.238 194.569 49.2173 194.55 49.2166 194.56C49.2402 194.589 49.2558 194.596 49.2627 194.593Z" fill="#7F77FF"/>
<path d="M48.9547 194.12C48.952 194.102 48.9424 194.086 48.928 194.075L48.9547 194.12Z" fill="#7F77FF"/>
<path d="M51.1246 197.127C51.1067 197.132 51.1412 197.171 51.1638 197.208L51.1246 197.127Z" fill="#7F77FF"/>
<path d="M52.0675 198.34L52.0847 198.363C52.0956 198.366 52.1067 198.367 52.1178 198.368L52.0675 198.34Z" fill="#7F77FF"/>
<path d="M52.6635 199.229C52.6744 199.229 52.6852 199.231 52.6952 199.235C52.7053 199.239 52.7144 199.246 52.7219 199.254C52.7312 199.246 52.7379 199.236 52.7413 199.225C52.7278 199.203 52.6855 199.224 52.6635 199.229Z" fill="#7F77FF"/>
<path d="M54.5153 201.797L54.503 201.818C54.5104 201.827 54.5188 201.836 54.528 201.843L54.5153 201.797Z" fill="#7F77FF"/>
<path d="M48.3595 193.217L48.3647 193.228C48.4171 193.276 48.3916 193.246 48.3595 193.217Z" fill="#7F77FF"/>
<path d="M42.947 194.984C42.9157 194.873 43.0941 195.092 43.0341 194.935C43.0286 194.958 42.8883 194.861 42.947 194.984Z" fill="#7F77FF"/>
<path d="M46.9197 191.341C46.9153 191.355 46.9145 191.371 46.9173 191.386C46.9221 191.381 46.924 191.37 46.9197 191.341Z" fill="#7F77FF"/>
<path d="M46.1651 190.798C46.1382 190.814 46.1144 190.836 46.0949 190.861C46.0993 190.86 46.1036 190.859 46.1077 190.857C46.1212 190.832 46.1411 190.812 46.1651 190.798V190.798Z" fill="#7F77FF"/>
<path d="M45.4123 191.51C45.4202 191.508 45.428 191.507 45.4358 191.504L45.4611 191.478L45.4123 191.51Z" fill="#7F77FF"/>
<path d="M54.5563 201.834C54.5309 201.865 54.4811 201.905 54.4587 201.892L54.503 201.812C54.4998 201.809 54.4969 201.804 54.4939 201.8C54.4967 201.797 54.4996 201.793 54.5024 201.789L53.866 200.94L53.8826 200.941L53.8534 200.923L53.7727 200.816C53.7829 200.813 53.7961 200.817 53.8152 200.836C53.7824 200.736 53.743 200.78 53.7217 200.689C53.7207 200.677 53.7259 200.679 53.7333 200.684L53.6587 200.619C53.6816 200.625 53.6875 200.577 53.7155 200.63C53.6421 200.467 53.5056 200.436 53.5075 200.352L53.5196 200.361C53.3971 200.227 53.4274 200.299 53.3854 200.299L53.3174 200.208L53.3348 200.09L53.2805 200.101C53.2669 200.08 53.2403 200.038 53.2618 200.034C53.1785 199.98 53.2539 200.059 53.1956 200.035C53.1599 199.912 52.9795 199.783 53.027 199.713C52.9707 199.701 53.0726 199.823 52.9743 199.736C53.021 199.655 52.8735 199.626 52.839 199.514C52.8947 199.515 52.9384 199.612 52.904 199.5C52.8044 199.492 52.7887 199.319 52.7216 199.253C52.6714 199.286 52.5808 199.107 52.4716 198.994C52.4068 198.862 52.3336 198.734 52.2525 198.611L52.2631 198.609C52.1981 198.623 52.1176 198.496 52.0425 198.417C52.0738 198.398 52.0969 198.406 52.1452 198.443L52.0836 198.361C52.0428 198.347 52.0071 198.32 51.9812 198.285L52.0326 198.279C51.9237 198.175 51.8272 198.059 51.7449 197.933C51.7181 197.945 51.7221 198.023 51.6863 198.031L51.6307 197.957C51.6389 197.954 51.6481 197.953 51.6567 197.955C51.6654 197.957 51.6732 197.962 51.679 197.969C51.667 197.958 51.6299 197.935 51.6185 197.903L51.6934 197.94C51.659 197.866 51.6429 197.925 51.6075 197.872C51.6341 197.854 51.5977 197.821 51.6237 197.813C51.636 197.824 51.6464 197.865 51.6712 197.877C51.6334 197.824 51.6085 197.762 51.5983 197.697C51.5874 197.713 51.5635 197.723 51.5285 197.684C51.445 197.576 51.5317 197.623 51.4975 197.55C51.4597 197.537 51.4263 197.453 51.3862 197.481C51.3625 197.449 51.3762 197.429 51.3774 197.409C51.3181 197.365 51.1753 197.149 51.1817 197.244L51.1898 197.26L51.1812 197.252C51.0043 197.096 50.9156 196.852 50.7616 196.681L50.7748 196.672C50.69 196.567 50.5971 196.468 50.4972 196.378C50.473 196.345 50.4636 196.284 50.4894 196.286C50.4198 196.228 50.364 196.156 50.3262 196.074C50.4119 196.141 50.3245 196.03 50.4074 196.148C50.3371 196.031 50.3394 195.991 50.2166 195.901C50.2795 195.915 50.197 195.787 50.1484 195.743L50.1817 195.837C50.1382 195.786 50.0983 195.733 50.0624 195.676L50.127 195.671C50.0134 195.409 49.7361 195.338 49.6981 195.102C49.6235 195.066 49.7671 195.239 49.692 195.213C49.6464 195.119 49.609 195.021 49.5801 194.921C49.4993 194.762 49.4184 194.838 49.325 194.679C49.3236 194.709 49.2953 194.758 49.1985 194.659C49.1275 194.553 49.1695 194.485 49.2304 194.54C49.2501 194.563 49.254 194.579 49.248 194.582C49.2784 194.611 49.3176 194.649 49.3041 194.596L49.2786 194.594C49.2564 194.532 49.1492 194.392 49.1995 194.406C49.1267 194.34 49.1492 194.392 49.1841 194.455C49.1082 194.307 49.031 194.25 48.9449 194.103C48.9524 194.131 48.949 194.165 48.9331 194.143C48.8038 193.93 48.8382 194.078 48.7307 193.949C48.6973 193.855 48.8078 193.934 48.6866 193.813C48.6408 193.719 48.7148 193.765 48.7521 193.788C48.6647 193.696 48.5967 193.588 48.5521 193.469L48.6133 193.524C48.5819 193.495 48.5537 193.462 48.529 193.427L48.5256 193.487C48.5025 193.445 48.4784 193.413 48.492 193.404C48.4421 193.38 48.4627 193.472 48.3765 193.415C48.3542 193.353 48.2436 193.273 48.2717 193.225C48.3774 193.395 48.3 193.176 48.408 193.306C48.3791 193.278 48.3551 193.246 48.3367 193.21C48.337 193.201 48.3493 193.209 48.3594 193.217C48.2818 193.037 48.2601 193.182 48.1423 193.023C48.1807 193.026 48.159 192.953 48.1346 192.931C48.182 192.995 48.1187 192.991 48.057 192.945C47.999 192.83 47.9608 192.845 47.923 192.79L47.96 192.858C47.9213 192.854 47.8863 192.801 47.8259 192.736C47.8395 192.716 47.8866 192.791 47.8756 192.76C47.7758 192.712 47.7848 192.55 47.6751 192.461C47.6528 192.399 47.7152 192.424 47.6924 192.371C47.5702 192.271 47.6246 192.214 47.5029 192.104C47.4995 192.164 47.512 192.165 47.4134 192.097L47.5945 192.293L47.4469 192.191C47.4945 192.255 47.5679 192.311 47.5913 192.353C47.5172 192.308 47.53 192.309 47.527 192.359C47.5082 192.236 47.3694 192.205 47.3251 192.08L47.4049 192.025C47.3253 191.847 47.1623 191.784 47.0335 191.572L47.0677 191.646C47.0171 191.642 46.9719 191.527 46.9114 191.472C46.9418 191.458 46.9212 191.411 46.9168 191.372C46.9001 191.39 46.81 191.226 46.7448 191.247L46.7127 191.133C46.6144 190.972 46.4823 190.979 46.354 190.789C46.381 190.796 46.3803 190.771 46.3852 190.755C46.3907 190.74 46.4021 190.736 46.4694 190.804C46.4084 190.723 46.3535 190.639 46.3486 190.67C46.3442 190.66 46.3387 190.65 46.3321 190.642L46.3207 190.627C46.3166 190.623 46.3112 190.635 46.3061 190.639L46.237 190.724C46.2031 190.776 46.1589 190.82 46.1072 190.854C46.0845 190.896 46.0919 190.937 46.0252 190.998C46.0137 191 46.0154 190.985 46.0154 190.985C46.0183 191.005 45.9437 191.084 46.0135 191.067C45.8022 191.13 45.6181 191.45 45.4315 191.499C45.3354 191.6 45.2166 191.719 45.1218 191.802C45.1216 191.79 45.1116 191.79 45.1319 191.777C44.9805 191.868 45.1115 191.918 44.937 192.02C44.8256 192.044 44.9998 191.93 44.9386 191.956C44.8495 191.891 44.7645 192.12 44.6206 192.154L44.6418 192.129C44.5406 192.165 44.4732 192.316 44.3361 192.411C44.3361 192.411 44.3368 192.398 44.3271 192.397C44.233 192.535 44.1176 192.657 43.9852 192.758C44.0017 192.695 44.0318 192.698 43.9823 192.681C43.9272 192.728 44.0392 192.724 43.9288 192.817C43.8775 192.826 43.7817 192.869 43.7444 192.839L43.8535 192.76C43.7642 192.752 43.7115 192.861 43.6468 192.892L43.64 192.866C43.4746 192.989 43.5061 193.042 43.317 193.16L43.3467 193.164C43.2779 193.283 43.2411 193.187 43.1628 193.291L43.0979 193.255C42.9948 193.356 42.8849 193.449 42.769 193.534C42.8459 193.439 42.9313 193.35 43.0242 193.27C42.9308 193.318 42.8463 193.381 42.7746 193.458C42.7993 193.437 42.826 193.402 42.8583 193.395C42.7814 193.504 42.6777 193.592 42.557 193.649C42.5454 193.585 42.4076 193.647 42.2407 193.728L42.1777 193.759L42.1456 193.775C42.1353 193.78 42.1184 193.784 42.1321 193.795C42.1578 193.832 42.1825 193.868 42.2042 193.903C42.2429 193.957 42.2704 194.019 42.2852 194.084C42.3205 194.124 42.3553 194.163 42.3902 194.203C42.4135 194.229 42.4356 194.257 42.457 194.285C42.4998 194.342 42.5397 194.401 42.5795 194.462C42.6591 194.585 42.7382 194.715 42.8398 194.844C42.8479 194.692 42.8995 194.919 42.9676 194.843C43.0179 194.9 43.0342 194.924 43.0336 194.934L43.0274 194.919L43.0337 194.935L43.0339 194.935L43.125 195.156C43.1347 195.217 43.0637 195.111 43.0499 195.13C43.1443 195.269 43.0581 195.212 43.1033 195.316C43.1184 195.277 43.1794 195.332 43.2257 195.417L43.182 195.282C43.3651 195.437 43.2361 195.494 43.42 195.651L43.35 195.611C43.4376 195.696 43.6176 195.969 43.7532 196.015C43.7568 196.04 43.7519 196.079 43.7141 196.04C43.8781 196.279 44.1692 196.505 44.2646 196.715L44.2318 196.712C44.2698 196.751 44.325 196.76 44.3459 196.828C44.3357 196.832 44.3132 196.826 44.3271 196.847C44.3875 196.888 44.4391 196.94 44.479 197.002L44.4203 196.969C44.564 197.214 44.734 197.276 44.8895 197.455C44.8314 197.498 44.946 197.69 45.0031 197.786L44.9926 197.789C45.174 198.015 45.3705 198.228 45.5809 198.427C45.6316 198.625 45.9388 198.959 46.0859 199.229C46.0685 199.184 46.1354 199.201 46.1736 199.24C46.2047 199.306 46.3319 199.368 46.2721 199.398L46.2579 199.377C46.2382 199.459 46.3399 199.566 46.4071 199.659L46.4877 199.622C46.5665 199.937 46.995 200.222 47.0028 200.42C47.0634 200.465 47.1169 200.537 47.1771 200.581L47.1377 200.606C47.2357 200.76 47.3436 200.908 47.4607 201.048L47.4039 201.027C47.4852 201.141 47.6166 201.088 47.696 201.19L47.6638 201.262C47.8106 201.456 47.9097 201.69 48.1043 201.845C48.0938 201.848 48.0735 201.854 48.0476 201.824C48.1149 201.917 48.2759 202.207 48.327 202.117C48.2792 202.156 48.4728 202.321 48.5735 202.41L48.5247 202.421C48.6165 202.452 48.6977 202.508 48.7586 202.583C48.7759 202.616 48.7487 202.63 48.7288 202.584C48.783 202.696 48.8206 202.635 48.8901 202.768L48.8336 202.741C48.8489 202.77 48.8699 202.796 48.8953 202.816C48.9208 202.837 48.9501 202.853 48.9816 202.862C49.0437 202.914 49.1156 203.06 49.0937 203.099C49.1223 203.104 49.1493 203.116 49.1726 203.133C49.1958 203.151 49.2145 203.173 49.2273 203.199C49.2208 203.217 49.1968 203.201 49.1849 203.193C49.2863 203.38 49.4151 203.412 49.4661 203.554C49.4617 203.559 49.4587 203.565 49.4574 203.571C49.4562 203.578 49.4567 203.584 49.4589 203.59C49.3595 203.456 49.2807 203.346 49.291 203.355C49.2573 203.38 49.3324 203.492 49.2214 203.441C49.3456 203.517 49.4542 203.617 49.5414 203.733C49.5424 203.741 49.542 203.749 49.5401 203.756L49.5282 203.748C49.5421 203.772 49.5609 203.794 49.5835 203.81C49.5993 203.843 49.6178 203.875 49.6388 203.905C49.6203 203.939 49.7167 204.041 49.7557 204.095C49.7893 204.063 49.8362 204.138 49.8171 204.049C49.8209 204.06 49.8051 204.043 49.7767 204.008C49.7703 204 49.7633 203.994 49.7556 203.988L49.7616 203.989L49.6587 203.857C49.6876 203.87 49.7135 203.889 49.7349 203.912C49.7562 203.935 49.7725 203.963 49.7827 203.993C49.8271 204.003 49.8743 204.015 49.8986 204.024C49.9025 204.136 49.9812 204.299 49.9644 204.343C50.0364 204.417 50.1124 204.512 50.1888 204.594C50.2257 204.634 50.2647 204.672 50.3058 204.707C50.3438 204.748 50.3894 204.781 50.44 204.805C50.4609 204.824 50.4755 204.85 50.4823 204.878C50.4888 204.902 50.4991 204.899 50.5111 204.906C50.4995 204.913 50.487 204.918 50.474 204.922L50.4496 204.896C50.4379 204.881 50.4237 204.868 50.4077 204.859C50.4402 204.88 50.4622 204.96 50.5253 204.909L50.6883 204.843C50.7262 204.829 50.7624 204.811 50.7962 204.789C50.8197 204.772 50.8348 204.756 50.8361 204.739C50.9844 204.71 50.7776 204.823 50.9651 204.737L50.946 204.765C51.3647 204.702 51.487 204.37 51.932 204.262C51.901 204.27 51.8858 204.275 51.8752 204.269C52.3527 204.068 52.7305 203.665 53.1663 203.407C53.288 203.328 53.2718 203.286 53.3169 203.206L53.3731 203.222L53.4443 203.08C53.5651 202.904 53.7921 202.91 53.918 202.659L53.8698 202.662C53.941 202.597 54.0568 202.422 54.0757 202.46C54.0738 202.447 54.0759 202.435 54.0817 202.423C54.0876 202.412 54.0969 202.403 54.1083 202.397L54.1299 202.412C54.1705 202.343 54.2078 202.272 54.2466 202.203C54.3761 202.073 54.3104 202.292 54.4799 202.085C54.5333 201.999 54.593 201.815 54.5563 201.834ZM53.6759 200.674C53.6772 200.679 53.6776 200.684 53.6773 200.688L53.6448 200.645C53.6549 200.654 53.6649 200.663 53.6759 200.674V200.674ZM49.7014 203.979L49.7091 203.98C49.6996 203.982 49.6895 203.982 49.68 203.98C49.6479 203.948 49.6462 203.93 49.65 203.92C49.6634 203.936 49.6794 203.955 49.7014 203.979V203.979Z" fill="#85CBF9"/>
<path d="M49.7837 204.017C49.7909 204.022 49.7976 204.029 49.8039 204.035C49.8008 204.022 49.797 204.008 49.7925 203.995L49.7616 203.989L49.7837 204.017Z" fill="#7F77FF"/>
<path d="M51.1789 197.238C51.1832 197.25 51.1852 197.262 51.1847 197.274C51.1843 197.267 51.1847 197.26 51.186 197.252L51.1789 197.238Z" fill="#7F77FF"/>
<path d="M53.2641 199.95C53.1746 199.742 53.2595 200.01 53.1279 199.823L53.222 199.971C53.2179 199.936 53.213 199.889 53.2641 199.95Z" fill="#7F77FF"/>
<path d="M52.8553 199.356C52.8064 199.318 52.7944 199.309 52.8241 199.375C52.8873 199.445 52.8442 199.358 52.8553 199.356Z" fill="#7F77FF"/>
<path d="M50.4788 196.254L50.5274 196.232C50.4676 196.165 50.5108 196.244 50.4788 196.254Z" fill="#7F77FF"/>
<path d="M49.8555 195.266L49.7704 195.178L49.8316 195.244L49.8555 195.266Z" fill="#7F77FF"/>
<path d="M45.5098 191.362L45.5625 191.387C45.5931 191.345 45.5601 191.294 45.5098 191.362Z" fill="#7F77FF"/>
<path d="M43.1793 193.191C43.2289 193.172 43.2769 193.149 43.3227 193.122C43.295 193.121 43.2676 193.127 43.2426 193.139C43.2177 193.151 43.196 193.169 43.1793 193.191V193.191Z" fill="#7F77FF"/>
<path d="M46.4728 199.74L46.5491 199.817L46.5211 199.775L46.4728 199.74Z" fill="#7F77FF"/>
<path d="M25.537 186.92L25.8354 195.518L30.5042 206.48C30.5042 206.48 29.2862 212.163 31.7222 211.96C34.1581 211.757 31.9251 206.277 31.9251 206.277L29.6922 194.706L29.2862 185.165L25.537 186.92Z" fill="#A0616A"/>
<path d="M27.2563 180.902L27.3679 180.135L28.2712 180.496L31.1131 184.962L25.2263 188.007L27.2563 180.902Z" fill="#CFCCE0"/>
</g>
</g>
<defs>
<linearGradient id="paint0_linear" x1="135.661" y1="586.356" x2="-217.687" y2="550.64" gradientUnits="userSpaceOnUse">
<stop stop-color="#4C9CF9"/>
<stop offset="1" stop-color="#5A83EC"/>
<stop offset="1" stop-color="#4C9CF9"/>
<stop offset="1" stop-color="#5A83EC"/>
</linearGradient>
<clipPath id="clip0">
<rect width="175" height="348" rx="28" fill="white"/>
</clipPath>
<clipPath id="clip1">
<rect width="144.946" height="103" fill="white" transform="translate(10.8138 143.519)"/>
</clipPath>
</defs>
</svg>
