<svg xmlns="http://www.w3.org/2000/svg" viewBox="0 0 80.5 95.3" height="52" width="44"><path d="M4.1 0L2.8.6l-.6.4-.7.3-.4.6-.4.5-.4.9-.3.6V91.5l.3.6.4.8.4.6.4.6.7.3.6.4c0 .5-1.2.5 37.2.5 36.9 0 37 0 37.5-.4l.7-.4c.4-.1 1.4-1.2 1.4-1.5l.4-.5c.5-.6.5.9.5-44.9 0-45.7 0-44.2-.5-44.8l-.4-.6c0-.2-1-1.3-1.4-1.4a2 2 0 0 1-.6-.3 2 2 0 0 0-.7-.4C76.5.1 5 0 4.1.1m73 3.1c.3.4.7.7.7.9v87.1c0 .2-.4.5-.8.8l-.7.6h-72a3 3 0 0 1-1.6-1.4l-.2-.5V4.6l.2-.5c.3-.5 1-1.2 1.5-1.4h72.2l.6.5m-65.4 6l-.7.4a2 2 0 0 1-.6.4c-.2 0-.4.3-.5.6l-.4.6c-.3.3-.3 2.3-.3 28.2 0 26.5 0 27.7.3 28.1l.4.7.5.5.6.4.3.3h59.5c.7 0 2-1.3 2.3-2v-56c-.2-.7-1.7-2-2.4-2.1h-59M70.2 12c.5.5.5-.2.4 27.6 0 25 0 26.3-.2 26.6-.4.6 1.6.6-29 .6-32 0-29.1.1-29.6-.8l-.2-.5V39.5c0-27.5 0-26.8.5-27.2.4-.5 0-.5 29.3-.4h28.5l.3.2m-31.4 8.3l-.9.4-.7.2c-.4 0-1.1.4-1.4.7l-.5.3-1 .8a182.9 182.9 0 0 1-1.5 2l-.5.8-.4 1.1c0 .5-.3 1.2-.4 1.5-.2.5-.2.9-.2 2 0 1 0 1.4.2 2l.4 1.4c.2 1 .2 1 .7 1.5l.4.8c0 .2.2.4.3.5l.5.5c.1.2.3.5.5.5l.4.4c0 .2.3.4.6.5l.6.5.8.4c.4 0 1 .3 1.3.5 1.1.5 3.5.5 4.4 0a7 7 0 0 1 1.2-.5l1-.4.4-.4c.3-.1.9-.6 1.3-1.2a28.5 28.5 0 0 1 1-1.2l.4-.5c.3-.4.6-1 .6-1.4l.4-1 .4-.8v-2.1c0-2.1 0-2.1-.3-2.7l-.5-1.4c-.2-.7-.4-1-.6-1.2l-.3-.5a9.3 9.3 0 0 0-2.8-2.7c-.2-.3-.5-.4-1-.6-.4 0-1-.3-1.3-.5-.6-.3-2.7-.4-3.5-.2m2.8 3l1.4.4a113.6 113.6 0 0 0 1.8 1.6l.5.8c.2.1.4.5.5.8l.5 1c.3.5.3.5.3 2.2v1.7l-.4.6c-.1.3-.4.7-.4 1l-.4.5a3 3 0 0 0-.5.8c-.2.4-1 1.2-1.5 1.3l-.2.2c0 .8-5.2.9-6 0l-.6-.4-.4-.3-.4-.5-.5-.7c0-.2-.2-.4-.4-.5-.2-.1-.3-.4-.5-1 0-.4-.3-1-.4-1.2-.3-.6-.3-2.5 0-3.1l.4-1.2.5-1c.2 0 .4-.3.4-.5.2-.4 1-1.3 1.5-1.6l.6-.4c.6-.5 2.6-.7 4.2-.4m4.8 19a2 2 0 0 0-1 .3 4 4 0 0 1-1 .4l-.9.4c-1 .7-3.4.7-4.8 0l-1.2-.5-.6-.3c-.7-.6-2-.5-2.7 0l-.7.4c-.2 0-.4.2-.6.4l-.6.5a16 16 0 0 0-4.3 4.7l-.6 1-.5.9a3 3 0 0 0-.4 1l-.4.8c-.2.2-.4.7-.6 1.5 0 .5-.3 1-.4 1.3-.2.3-.3.8-.5 1.8l-.4 2-.3 1.2v.7l.5.6c.7.7 1.3.7 1.7 0 .6-1.2.8-2 1-3.6a5 5 0 0 1 .5-1.7l.4-1.4c0-.4.2-.9.5-1.3.2-.3.4-.8.4-1.1l.5-1c.2-.1.4-.5.4-.7l.5-.8.4-.7.6-.8a41 41 0 0 1 2.3-2.3c1-.8 2.3-1.3 2.6-.9l.8.4c.3 0 .7.2 1 .4 1 .7 5.2.7 6.3 0l1-.5.6-.2c.5-.4 1.8 0 2.5.7l.6.5c.2 0 .4.3.5.5l.4.3.5.6c.1.2.3.5.5.5l.4.6.5.6.5 1.1.4.4c.2.2.3.6.4 1l.5 1 .4.7.5 1.7c.2.3.4.7.5 1.9l.4 1.7.4 1.3c.2 1.5 1.1 2 2 1.2.7-.7.7-2.1.1-3.6l-.4-1.7-.3-1.4a5 5 0 0 1-.7-1.7c0-.5-.2-.8-.4-1l-.5-1a4 4 0 0 0-.5-1.1l-.4-.8a3 3 0 0 0-.5-.8l-.4-.5-.5-.8-.7-.8a1 1 0 0 0-.3-.4c-.2 0-.3-.3-.5-.5 0-.2-.2-.4-.3-.4l-.5-.4-.9-.6-.8-.6c-.1-.2-.4-.4-.6-.4l-.6-.3c-.4-.4-1-.6-1.7-.5M21.6 77.3c-.4 0-.5.1-.8.5l-.4.4c-.3.2-.2 1.2.2 1.5l.4.6.2.3h18.1c21 0 19.7 0 20.4-.6 1-1 .4-2.5-1-2.7H21.7" fill-rule="evenodd"/></svg>