<svg width="601" height="428" viewBox="0 0 601 428" fill="none" xmlns="http://www.w3.org/2000/svg">
<g clip-path="url(#clip0)">
<path d="M51.0668 427.5C79.256 427.5 102.108 424.763 102.108 421.386C102.108 418.01 79.256 415.273 51.0668 415.273C22.8775 415.273 0.0256348 418.01 0.0256348 421.386C0.0256348 424.763 22.8775 427.5 51.0668 427.5Z" fill="#E6E6E6"/>
<path d="M600.894 0.765091H133.287V300.241H600.894V0.765091Z" fill="#E6E6E6"/>
<path d="M587.522 38.3268H146.658V282.524H587.522V38.3268Z" fill="white"/>
<path d="M600.694 0.5H133.088V20.3656H600.694V0.5Z" fill="#85CBF9"/>
<path d="M147.85 14.3383C149.884 14.3383 151.532 12.6898 151.532 10.6564C151.532 8.62289 149.884 6.97443 147.85 6.97443C145.817 6.97443 144.168 8.62289 144.168 10.6564C144.168 12.6898 145.817 14.3383 147.85 14.3383Z" fill="white"/>
<path d="M161.826 14.3383C163.859 14.3383 165.508 12.6898 165.508 10.6564C165.508 8.62289 163.859 6.97443 161.826 6.97443C159.792 6.97443 158.144 8.62289 158.144 10.6564C158.144 12.6898 159.792 14.3383 161.826 14.3383Z" fill="white"/>
<path d="M175.802 14.3383C177.835 14.3383 179.484 12.6898 179.484 10.6564C179.484 8.62289 177.835 6.97443 175.802 6.97443C173.768 6.97443 172.12 8.62289 172.12 10.6564C172.12 12.6898 173.768 14.3383 175.802 14.3383Z" fill="white"/>
<path d="M397.21 99.8076C397.133 100.081 397.089 100.362 397.079 100.646L397.21 99.8076Z" fill="#7F77FF"/>
<path d="M340.827 125.608C340.802 124.995 340.692 124.738 340.592 124.707C340.664 125.277 340.732 125.745 340.827 125.608Z" fill="#7F77FF"/>
<path d="M339.689 138.562C339.669 138.828 339.649 139.074 339.616 139.373C339.551 139.102 339.577 138.817 339.689 138.562V138.562Z" fill="#7F77FF"/>
<path d="M397.079 100.646L396.733 102.799C397.092 102.95 397 101.696 397.079 100.646Z" fill="#7F77FF"/>
<path d="M416.524 80.5807L417.178 80.579C417.375 80.4495 417.557 80.2996 417.722 80.1321L416.524 80.5807Z" fill="#7F77FF"/>
<path d="M442.18 81.7132C442.203 81.5597 442.272 81.4166 442.377 81.3025C442.482 81.1884 442.619 81.1085 442.771 81.0732C442.599 80.8328 442.402 80.6112 442.184 80.4119C441.867 80.3713 442.201 81.3052 442.18 81.7132Z" fill="#7F77FF"/>
<path d="M469.025 63.4175C469.113 63.4039 469.198 63.3907 469.265 63.3772L469.025 63.4175Z" fill="#7F77FF"/>
<path d="M468.489 63.5054L469.025 63.416C468.847 63.4429 468.645 63.4709 468.489 63.5054Z" fill="#7F77FF"/>
<path d="M395.998 82.7873C395.931 82.7737 395.861 82.7816 395.799 82.8101C395.737 82.8385 395.686 82.886 395.652 82.9456C395.773 83.0243 395.889 82.9435 395.998 82.7873Z" fill="#7F77FF"/>
<path d="M501.737 64.464L501.787 64.9021C501.957 64.9559 502.133 64.9877 502.311 64.9968L501.737 64.464Z" fill="#7F77FF"/>
<path d="M337.633 154.293C337.64 154.293 337.64 154.3 337.626 154.314C337.626 154.321 337.619 154.328 337.613 154.335C337.613 154.348 337.509 154.362 337.433 154.376C337.395 154.365 337.356 154.358 337.316 154.355C337.419 154.341 337.523 154.321 337.606 154.314C337.619 154.3 337.626 154.293 337.633 154.293Z" fill="#7F77FF"/>
<path d="M262.796 257.212C260.176 256.377 267.059 256.14 263.115 255.212C263.482 255.578 259.53 256.669 262.796 257.212Z" fill="#7F77FF"/>
<path d="M283.735 166.349C283.643 166.575 283.502 166.777 283.323 166.941C283.522 166.502 283.635 166.369 283.735 166.349Z" fill="#7F77FF"/>
<path d="M322.515 156.241C322.156 156.23 321.798 156.19 321.445 156.121L322.515 156.241Z" fill="#7F77FF"/>
<path d="M269.856 169.649C269.491 169.578 269.116 169.578 268.751 169.649C268.827 169.696 268.908 169.735 268.993 169.763C269.265 169.649 269.563 169.61 269.856 169.649Z" fill="#7F77FF"/>
<path d="M269.856 169.649C269.995 169.673 270.14 169.701 270.325 169.724C270.17 169.689 270.014 169.663 269.856 169.649Z" fill="#7F77FF"/>
<path d="M246.959 169.729C247.083 169.801 247.247 169.854 247.39 169.918C247.622 169.902 247.892 169.883 248.131 169.867L246.959 169.729Z" fill="#7F77FF"/>
<path d="M266.361 170.357C266.358 170.374 266.352 170.391 266.342 170.405C266.331 170.419 266.318 170.43 266.302 170.437C266.331 170.394 266.361 170.357 266.361 170.357Z" fill="#7F77FF"/>
<path d="M497.923 255.856C497.773 255.843 497.623 255.831 497.458 255.813C497.632 255.836 497.783 255.848 497.923 255.856Z" fill="#7F77FF"/>
<path d="M504.231 234.411C504.222 234.412 504.215 234.417 504.207 234.417C504.215 234.454 504.223 234.443 504.231 234.411Z" fill="#7F77FF"/>
<path d="M320.521 156.845C320.76 156.8 320.994 156.731 321.219 156.639C321.704 156.766 321.04 156.759 320.521 156.845Z" fill="#7F77FF"/>
<path d="M503.544 152.515C503.58 152.358 503.617 152.18 503.662 151.964C503.618 152.15 503.583 152.332 503.544 152.515Z" fill="#7F77FF"/>
<path d="M504.746 223.3C504.818 223.141 504.919 222.997 505.045 222.875L505.138 223.207C505.21 222.524 505.165 221.834 505.005 221.167C505.15 220.281 505.234 219.386 505.257 218.488C505.962 218.109 505.636 214.687 505.676 213.038C504.746 213.171 504.892 211.051 504.141 212.985C504.194 212.872 504.227 213.437 504.267 214.447C504.282 214.684 504.315 214.92 504.367 215.152C504.34 215.119 504.314 215.079 504.28 215.039C504.3 216.122 504.32 217.538 504.347 219.146C503.712 217.733 503.585 216.143 503.988 214.647C503.39 213.803 502.772 212.866 502.486 212.34C503.789 210.081 504.493 205.721 505.291 205.116C504.772 200.072 504.945 193.233 503.19 190.056C502.964 188.62 503.695 188.408 503.975 187.869C504.147 188.7 504.121 189.684 504.373 190.136C503.921 187.265 504.201 181.635 502.971 180.951C503.523 177.335 504.101 182.984 503.902 178.013L504.274 178.684C506.201 169.081 501.323 163.006 503.543 152.512C503.456 152.904 503.376 153.137 503.23 153.243C504.34 140.895 502.187 127.788 503.948 115.599C504.3 112.137 503.523 111.758 502.925 109.644L503.928 108.893L502.772 105.278C501.921 100.154 505.231 96.4053 503.629 89.9121L502.951 90.7495C503.084 88.4167 502.552 83.3656 503.33 83.7577C503.126 83.5364 502.985 83.2634 502.924 82.9683C502.864 82.6732 502.884 82.3671 502.984 82.0829L503.509 82.0098L502.606 76.2808C502.984 71.8478 504.692 76.9786 504.792 70.4987C504.593 68.0928 503.263 63.6465 502.911 64.5504C502.891 65.5207 502.586 67.0294 502.061 67.1025L501.788 64.9026C501.688 64.876 501.595 64.8495 501.496 64.8162V64.464H500.545C500.348 64.3801 500.135 64.3368 499.921 64.3368C499.706 64.3368 499.493 64.3801 499.296 64.464H475.469L475.729 64.2048L474.944 64.464H471.581C471.681 64.2646 472 64.0984 472.665 64.0187C470.219 63.3342 470.498 64.5105 468.405 63.7462C468.172 63.6266 468.272 63.5601 468.491 63.5069L466.098 63.919C466.57 63.6266 465.706 62.942 467.168 63.1414C462.888 62.3439 460.263 64.1782 458.648 63.1281L459.007 63.0483C454.561 63.3939 456.441 63.7861 455.803 64.464H453.025L452.467 63.9988L451.716 63.374C451.46 63.139 451.182 62.9298 450.885 62.7493C450.656 63.0702 450.452 63.4079 450.274 63.7595C449.583 63.7263 448.16 63.6532 448.227 63.2411C447.011 63.5933 447.263 63.6997 447.556 63.806C447.875 63.9124 448.26 64.012 447.768 64.3443C446.99 64.1603 446.195 64.0513 445.396 64.0187C445.309 65.4942 445.416 67.282 445.382 68.6444C445.349 70.0667 445.183 70.9838 444.532 71.2697C445.303 72.3264 445.13 68.445 445.668 71.5953C443.927 72.4792 445.961 75.2772 445.163 77.9025C444.266 77.1448 444.744 74.5395 443.94 77.2512C444.193 77.5191 444.379 77.8422 444.485 78.1949C444.561 78.5513 444.57 78.9186 444.512 79.2782C444.393 79.9168 444.213 80.5423 443.973 81.1458C443.58 81.0473 443.172 81.0225 442.77 81.0727C443.169 81.6775 442.279 81.8038 440.943 81.8303C440.138 81.8303 439.215 81.837 438.271 81.837C437.281 81.8503 436.264 81.8769 435.307 81.9766C435.546 81.5712 428.122 81.3186 424.573 80.8799L424.673 80.6739C423.988 81.8968 420.326 81.6642 417.655 81.9167C417.761 81.1857 418.239 80.8999 419.688 80.5742L417.176 80.5808C416.585 80.973 415.807 81.179 414.179 81.3186L414.81 80.4014C413.142 80.428 411.46 80.7005 409.659 80.8866C408.755 80.9796 407.832 81.0461 406.855 81.0594C406.369 81.066 405.871 81.0527 405.359 81.0262C405.107 81.0129 404.848 80.9929 404.588 80.9663C404.296 80.9331 404.003 80.8999 403.711 80.8666C403.618 81.0793 403.944 81.3385 404.15 81.6044C404.405 81.862 404.636 82.1423 404.841 82.4418C404.9 82.5236 404.936 82.6194 404.947 82.7196C404.957 82.8199 404.941 82.9211 404.901 83.0134H402.574C402.581 82.7608 402.734 82.5348 403.226 82.4152C402.541 82.6106 401.823 82.6582 401.119 82.5548C401.651 82.3022 402.269 82.043 402.967 81.7838C400.441 81.4449 401.93 82.4285 400.155 82.3554C399.79 81.704 398.454 81.8902 398.308 81.3717C398.806 81.3053 400.242 81.6376 400.88 81.385C399.557 81.3186 397.995 81.1657 396.56 80.953C396.475 81.5926 396.282 82.213 395.988 82.7873C396.36 82.8206 396.872 83.4453 396.952 85.1534C396.978 87.34 396.779 87.6922 396.533 87.8318C396.414 87.8982 396.281 87.9049 396.154 88.0777C396.078 88.1953 396.017 88.3227 395.975 88.4565C395.907 88.6347 395.858 88.8196 395.829 89.0081C396.281 89.819 395.809 91.9457 396.792 92.0055C396.786 92.9825 396.327 93.162 396.061 93.5408C396.493 95.2688 396.188 101.609 397.231 99.6619L397.297 99.2166C397.317 99.303 397.324 99.396 397.344 99.5024C397.617 101.218 397.723 102.957 397.663 104.693C397.623 106.142 397.484 107.518 397.351 108.727C396.374 108.641 395.47 108.568 394.626 108.528C394.2 108.515 393.788 108.501 393.376 108.515L392.579 108.534C392.3 108.554 392.014 108.568 391.735 108.581L391.748 108.255C388.392 108.628 384.278 108.475 381.885 109.186C380.895 109.179 379.546 108.581 379.971 108.196C377.406 108.441 377.12 108.807 373.418 108.269C375.99 107.697 372.527 107.757 376.056 107.85C372.727 107.564 371.969 107.039 368.393 107.936C369.61 107.092 365.888 106.88 364.306 107.125L366.639 107.73C365 107.818 363.358 107.81 361.721 107.704L362.571 106.6C359.169 105.929 356.091 106.501 353.22 106.959C351.844 107.211 350.451 107.355 349.053 107.391L348.548 107.385L347.903 107.351C347.405 107.325 346.9 107.285 346.388 107.225C345.268 107.091 344.157 106.896 343.058 106.64C341.862 107.026 343.457 107.159 344.926 107.312C346.435 107.464 347.804 107.637 346.767 108.089C344.569 107.944 342.383 107.662 340.22 107.245C339.791 108.693 339.491 110.177 339.323 111.678C339.244 112.549 339.217 113.34 339.217 114.038C339.217 114.383 339.224 114.715 339.243 115.021C339.25 115.161 339.257 115.367 339.27 115.433C339.283 115.513 339.297 115.599 339.31 115.679C339.423 116.254 339.604 116.814 339.848 117.347C340.482 118.695 340.715 120.197 340.52 121.674C340.912 121.096 341.968 120.557 342.334 123.914C342.254 125.775 341.683 126.791 341.171 126.884C340.885 126.944 340.619 126.712 340.466 126.193C340.42 126.062 340.387 125.926 340.367 125.788C340.333 125.037 340.46 124.678 340.593 124.705C340.446 123.694 340.28 122.365 339.855 123.608L340.247 124.013C340.122 124.583 340.038 125.16 339.994 125.741C339.815 127.529 339.709 129.609 339.237 128.872C339.562 130.899 339.808 130.201 340.001 128.852C339.582 132.441 340.048 134.674 339.689 138.562C339.908 137.904 340.373 137.292 340.367 137.95C339.875 144.025 341.118 140.629 341.291 144.743C340.686 147.082 339.855 143.905 340.353 148.046C339.948 150.578 339.31 148.584 338.991 147.581C339.305 149.303 339.309 151.067 339.004 152.791C338.984 152.904 338.971 153.017 338.951 153.123C338.938 153.203 338.924 153.29 338.911 153.369L338.885 153.509C338.878 153.549 338.871 153.542 338.865 153.555L338.812 153.622C338.752 153.689 338.685 153.749 338.612 153.801C338.519 153.856 338.43 153.918 338.346 153.987C338.28 153.882 338.2 153.785 338.107 153.702C338.147 153.748 338.178 153.802 338.196 153.86C338.214 153.918 338.22 153.98 338.213 154.041C338.295 154.094 338.379 154.143 338.466 154.187C338.637 154.276 338.818 154.345 339.004 154.393C338.871 154.586 338.865 154.778 338.605 154.539C338.576 154.518 338.549 154.494 338.526 154.466C338.758 154.813 339.035 155.128 339.35 155.403C339.695 155.755 340.107 156.134 339.715 156.486C339.17 156.351 338.602 156.329 338.047 156.42C337.908 156.427 337.768 156.427 337.635 156.42C337.426 156.408 337.217 156.383 337.01 156.347C336.844 156.335 336.682 156.286 336.537 156.203C336.392 156.12 336.268 156.006 336.173 155.868C336.791 155.915 337.236 155.928 337.569 155.921C337.748 155.921 337.815 155.895 337.868 155.848C337.961 155.769 337.894 155.616 337.835 155.456C337.722 155.184 337.682 154.878 337.881 154.725C337.851 154.733 337.819 154.738 337.788 154.738C337.729 154.736 337.671 154.725 337.615 154.705C337.363 154.685 337.103 154.659 336.831 154.632C336.658 154.512 336.997 154.413 337.316 154.353C336.957 154.28 336.638 154.227 336.359 154.187C335.808 154.087 335.242 154.087 334.691 154.187C333.481 154.473 333.741 155.529 330.311 155.509C330.923 154.924 329.181 154.393 328.39 154.519C330.351 154.532 329.327 155.503 327.533 155.955C324.416 155.496 324.15 156.294 322.515 156.24L324.376 156.46C323.745 157.051 322.19 156.971 320.023 157.158C319.963 157.011 320.129 156.932 320.368 156.872C318.129 157.217 315.444 155.676 312.499 156.247C312.47 156.248 312.441 156.253 312.413 156.26C310.858 155.862 312.26 155.157 310.891 154.885C307.129 155.649 306.817 154.074 302.856 154.705C303.999 155.503 304.198 155.31 301.407 156.081L307.92 155.523L303.74 156.672C305.707 156.686 307.887 156.174 309.063 156.314C307.07 156.958 307.276 156.759 308.219 157.417C305.528 156.227 302.889 158.115 299.785 157.31L299.878 155.343C297.903 155.029 295.889 155.038 293.917 155.37L293.159 155.469L292.78 155.516L292.681 155.529L292.528 155.543L292.215 155.569C291.398 155.629 290.567 155.695 289.71 155.762C288.028 155.875 286.314 155.955 284.353 155.941C284.346 156.819 284.32 157.729 284.273 158.68L284.586 156.174L284.832 156.201C284.802 156.245 284.761 156.28 284.712 156.3C284.995 157.533 285.089 158.801 284.991 160.062C284.991 160.175 284.984 160.295 284.984 160.414V160.421C284.971 161.046 284.951 161.697 284.945 162.348C284.945 162.734 284.951 163.113 284.965 163.485C284.971 163.671 284.984 163.85 284.991 164.03L285.011 164.289L285.038 164.468C284.38 164.282 284.14 165.512 283.735 166.349C283.855 166.323 283.914 166.588 283.954 167.007C283.994 167.18 284.014 167.393 284.061 167.645C284.183 168.337 284.509 168.975 284.998 169.48C284.897 169.58 284.783 169.667 284.659 169.739C284.25 169.586 283.851 169.411 283.462 169.214C283.055 169.128 282.63 169.177 282.253 169.353C282.166 169.393 282.08 169.44 281.994 169.486C281.925 169.523 281.851 169.548 281.774 169.559C281.681 169.586 281.588 169.612 281.502 169.639C281.136 169.752 280.791 169.872 280.452 169.991C278.845 170.656 277.11 170.953 275.374 170.862C276.79 170.151 274.65 169.686 277.807 169.174C276.231 169.167 274.823 169.048 274.796 169.499C274.624 169.437 274.441 169.41 274.258 169.42C273.467 169.426 272.197 169.732 271.034 169.872C270.477 169.958 269.91 169.958 269.353 169.872C269.229 169.852 269.108 169.816 268.994 169.765C268.923 169.797 268.854 169.832 268.788 169.872C268.46 170.169 268.074 170.395 267.654 170.535C267.234 170.674 266.789 170.725 266.349 170.682C266.328 170.67 266.31 170.653 266.296 170.633C266.282 170.614 266.272 170.591 266.268 170.567C266.263 170.543 266.264 170.518 266.27 170.495C266.276 170.471 266.287 170.449 266.302 170.43C265.95 170.702 263.71 170.855 265.139 171.527C263.046 170.643 260.234 170.55 257.37 170.589C253.615 170.636 249.78 170.915 247.387 169.918C245.673 170.025 243.785 170.138 241.931 170.224C241.007 170.257 240.09 170.297 239.212 170.33C238.774 170.344 238.342 170.357 237.93 170.37C237.465 170.377 237.019 170.39 236.594 170.397C236.727 170.297 236.727 170.217 236.8 170.171C236.963 170.106 237.142 170.095 237.312 170.137C237.192 170.124 237.112 170.104 236.966 170.098C236.82 170.084 236.674 170.078 236.534 170.064C236.255 170.051 235.996 170.044 235.756 170.038C235.348 170.036 234.94 170.058 234.534 170.104C234.037 170.152 233.555 170.302 233.118 170.543C232.44 171.106 231.593 171.424 230.712 171.447C230.743 172.162 230.707 172.878 230.606 173.587C230.34 174.165 230.174 174.298 230.061 174.105C229.932 173.71 229.867 173.298 229.868 172.882C229.808 171.826 229.828 170.629 229.629 171.52C228.552 171.041 228.625 173.58 228.811 176.358C228.904 177.973 229.024 178.678 229.044 179.695C229.091 180.621 228.963 181.548 228.665 182.426L228.539 181.629C227.801 184.141 229.356 187.763 229.203 191.87C229.203 191.87 229.011 191.671 228.878 191.844C229.974 194.655 230.34 199.972 230.646 203.92C229.802 202.69 230.2 202.125 229.343 202.876C229.463 204.651 230.719 202.358 230.958 205.894C230.499 207.043 230.094 209.596 229.177 209.935L229.124 206.598C227.941 208.306 229.17 210.912 228.964 212.673L228.446 212.447C228.612 217.558 229.915 217.631 229.821 223.12L230.214 222.556C231.51 225.56 229.489 225.074 230.453 228.065L229.137 228.976C229.456 230.956 230.406 235.908 230.652 239.463C229.682 237.45 229.183 233.296 228.605 230.724C228.599 232.684 228.705 237.396 229.35 238.42C229.223 237.629 228.904 236.632 229.104 235.848C230.134 238.254 230.639 241.424 230.619 245.339C229.788 245.113 229.429 246.123 229.257 247.691C229.25 247.791 229.237 247.891 229.23 247.997C229.223 248.143 229.21 248.296 229.203 248.449C229.19 248.761 229.177 249.08 229.157 249.413C229.144 250.077 229.124 250.782 229.104 251.5C229.07 252.968 229.037 254.51 229.004 256.006C232.041 256.105 234.833 256.325 236.454 257.009L236.999 256.963L237.338 256.923L237.99 256.856C238.422 256.816 238.854 256.783 239.286 256.757C240.15 256.697 241.014 256.677 241.884 256.67C243.619 256.664 245.373 256.737 247.161 256.836C250.737 257.036 254.452 257.335 258.486 257.255C255.628 255.281 260.839 257.202 260.347 255.168C262.208 255.042 262.926 255.075 263.099 255.201L262.826 255.142C262.926 255.168 263.006 255.188 263.112 255.215V255.208L268.801 256.418C270.15 257.009 267.013 256.863 267.186 257.321C271.3 257.481 268.914 258.186 271.632 258.724C271.074 257.999 273.061 257.68 275.407 257.96L272.104 257.022C277.853 255.939 277.076 258.731 282.864 257.654L281.03 258.299C284.007 257.92 291.996 258.312 294.914 256.677C295.439 256.909 296.137 257.468 294.827 257.614C301.932 257.86 310.639 255.879 316.161 256.883L315.623 257.381C316.946 257.235 317.929 256.444 319.591 256.943C319.504 257.149 319.053 257.441 319.671 257.468C320.368 257.302 323.186 256.597 324.948 256.89L323.446 257.448C327.805 257.86 330.889 257.215 334.026 256.59C335.958 256.171 337.917 255.888 339.888 255.746C339.875 257.209 345.325 257.687 348.05 257.92L347.95 258.126C351.185 258.185 354.42 258.028 357.633 257.654C360.099 257.381 362.492 257.036 365.024 256.75H365.03C365.19 256.73 365.35 256.71 365.516 256.69C366.101 256.624 366.699 256.564 367.303 256.504C367.49 256.484 367.682 256.464 367.875 256.444C368.287 256.411 368.706 256.378 369.131 256.345C371.246 256.923 373.426 257.231 375.618 257.262C380.815 257.514 387.355 257.308 392.3 257.9C391.156 257.634 392.486 256.757 393.808 256.61C395.45 256.89 398.268 255.753 398.381 256.717C398.389 256.79 398.384 256.864 398.368 256.936L397.776 256.909H397.743L397.749 256.916C399.072 258.225 402.661 257.88 405.466 257.913L405.924 256.158C413.268 258.711 425.165 255.221 429.172 257.508C430.947 257.069 433.14 257.076 434.895 256.637L434.802 257.574C439.271 257.858 443.753 257.902 448.227 257.707L446.991 258.385C450.413 258.445 451.311 255.667 454.474 255.614L455.418 257.016C461.393 256.996 467.434 258.232 473.336 256.956C473.243 257.162 473.063 257.567 472.1 257.627C474.818 257.66 482.448 258.518 482.022 256.83C482.674 257.78 488.283 256.743 491.334 256.218L490.835 257.142C492.198 256.551 492.896 256.172 493.733 255.906C494.209 255.756 494.695 255.642 495.188 255.567C495.494 255.52 495.787 255.474 496.205 255.434C496.71 255.394 497.282 255.354 497.927 255.308C499.07 255.421 499.263 255.933 497.92 255.859C498.919 255.991 499.934 255.946 500.917 255.726C501.743 255.464 502.603 255.328 503.469 255.321C503.466 254.653 503.501 253.985 503.576 253.321C503.775 254.092 503.975 254.909 504.167 255.773C504.242 254.35 504.182 252.924 503.988 251.513C503.828 250.662 503.576 250.031 503.237 248.854C503.21 248.695 503.19 248.522 503.177 248.343C503.164 248.176 503.15 248.01 503.137 247.831C503.124 247.538 503.117 247.219 503.124 246.9C503.145 246.239 503.209 245.58 503.317 244.927C503.523 243.644 503.888 242.554 504.307 242.328C503.795 241.909 503.111 240.221 503.35 238.4C503.669 238.154 503.868 238.812 503.961 239.151C504.593 233.987 502.885 231.468 503.795 227.919C503.933 227.88 504.058 227.803 504.155 227.698C504.252 227.592 504.319 227.462 504.347 227.321C504.327 231.083 504.28 234.166 504.221 234.412C505.065 234.366 505.217 231.116 506.387 233.734C505.743 231.076 504.347 226.53 504.746 223.3ZM505.497 216.421C505.629 217.524 505.443 217.89 505.251 218.043C505.237 217.524 505.204 216.913 505.138 216.115C505.104 216.089 505.065 216.022 505.025 215.989C505.216 216.09 505.379 216.239 505.497 216.421V216.421ZM467.454 64.3178C467.566 64.3536 467.673 64.4027 467.773 64.464H466.364C466.703 64.4109 467.062 64.3643 467.454 64.3178V64.3178Z" fill="#85CBF9"/>
<path d="M338.059 154.645C338.013 154.696 337.949 154.726 337.881 154.731C337.935 154.693 337.995 154.664 338.059 154.645Z" fill="#7F77FF"/>
<path d="M320.369 156.877C320.424 156.868 320.478 156.855 320.533 156.844C320.476 156.854 320.421 156.865 320.369 156.877Z" fill="#7F77FF"/>
<path d="M504.269 214.447C504.237 214.298 504.214 214.147 504.201 213.994C504.118 214.219 504.048 214.432 503.991 214.65L504.284 215.039L504.269 214.447Z" fill="#7F77FF"/>
<path d="M397.21 99.8191C397.236 99.7054 397.283 99.5974 397.348 99.5003C397.301 99.6017 397.27 99.6017 397.232 99.6669L397.21 99.8191Z" fill="#7F77FF"/>
<path d="M443.659 63.3438C443.959 63.3511 444.298 63.784 444.233 66.9641L444.433 63.0565L445.901 63.1273C444.716 62.7664 442.76 62.2813 445.468 62.1945C444.535 62.0857 443.823 62.0025 443.321 61.9439C443.098 63.8177 443.359 63.352 443.659 63.3438Z" fill="#7F77FF"/>
<path d="M443.71 79.6074C443.626 78.8628 443.495 78.8419 443.36 78.9293C443.224 79.0241 443.084 79.214 442.982 79.1212C443.311 80.0034 443.394 80.4309 443.71 79.6074Z" fill="#7F77FF"/>
<path d="M379.004 107.862L379.236 107.012C377.463 107.135 379.219 107.342 379.004 107.862Z" fill="#7F77FF"/>
<path d="M348.32 106.329L348.468 106.318L348.741 106.294L349.833 106.201L350.607 106.079L349.128 106.234L348.388 106.31L347.181 106.388L348.092 106.341L348.32 106.329Z" fill="#7F77FF"/>
<path d="M251.115 168.904L251.651 169.95C252.85 169.763 253.101 168.586 251.115 168.904Z" fill="#7F77FF"/>
<path d="M229.235 222.499C228.915 223.095 228.719 223.75 228.659 224.424C228.6 225.098 228.678 225.776 228.889 226.419C228.961 224.855 229.369 223.296 229.235 222.499Z" fill="#7F77FF"/>
<path d="M408.016 257.831L410.652 257.539L409.415 257.48L408.016 257.831Z" fill="#7F77FF"/>
<path d="M420.945 172.038C420.784 180.102 419.657 188.116 417.588 195.911C409.533 225.686 387.494 247.352 375.618 257.262C373.426 257.231 371.246 256.923 369.131 256.345C368.706 256.378 368.287 256.411 367.875 256.444C367.682 256.464 367.49 256.484 367.304 256.504C366.699 256.564 366.101 256.624 365.516 256.69C365.35 256.71 365.19 256.73 365.03 256.75H365.024C361.182 246.703 358.426 236.273 356.803 225.639L356.796 225.633V225.626C354.742 211.988 354.41 195.984 358.737 179.994C360.59 173.227 363.154 166.675 366.386 160.448C381.832 130.473 408.543 112.615 408.543 112.615C408.543 112.615 421.742 139.725 420.945 172.038Z" fill="white"/>
<path d="M339.689 138.562C339.669 138.828 339.649 139.074 339.616 139.373C339.551 139.102 339.577 138.817 339.689 138.562V138.562Z" fill="white"/>
<path d="M320.521 156.845C320.76 156.8 320.994 156.731 321.219 156.639C321.704 156.766 321.04 156.759 320.521 156.845Z" fill="white"/>
<path d="M321.445 156.121L322.515 156.241C322.156 156.23 321.798 156.19 321.445 156.121V156.121Z" fill="white"/>
<path d="M337.433 154.376C337.395 154.365 337.356 154.358 337.316 154.355C337.419 154.341 337.523 154.321 337.606 154.314C337.619 154.3 337.626 154.293 337.633 154.293C337.64 154.293 337.64 154.3 337.626 154.314C337.626 154.321 337.619 154.328 337.612 154.335C337.612 154.348 337.509 154.362 337.433 154.376Z" fill="white"/>
<path d="M338.059 154.645C338.013 154.696 337.949 154.726 337.881 154.731C337.935 154.693 337.995 154.664 338.059 154.645Z" fill="white"/>
<path d="M375.997 225.586C375.997 225.6 375.99 225.613 375.99 225.626C374.382 236.157 371.662 246.487 367.875 256.444C367.682 256.464 367.49 256.484 367.304 256.504C366.699 256.564 366.101 256.624 365.516 256.69C365.35 256.71 365.19 256.73 365.031 256.75H365.024C362.492 257.036 360.099 257.382 357.633 257.654C345.876 247.931 323.359 226.085 315.204 195.911C313.129 188.115 312 180.098 311.841 172.032C311.72 166.762 311.94 161.489 312.499 156.247C315.444 155.676 318.129 157.218 320.368 156.872C320.129 156.932 319.963 157.011 320.023 157.158C322.189 156.972 323.745 157.051 324.376 156.46L322.515 156.241C324.15 156.294 324.416 155.496 327.533 155.955C329.327 155.503 330.351 154.532 328.39 154.519C329.181 154.393 330.922 154.925 330.311 155.509C333.74 155.529 333.481 154.473 334.691 154.187H336.359C336.638 154.227 336.957 154.28 337.316 154.353C336.997 154.413 336.658 154.513 336.831 154.632C337.103 154.659 337.363 154.685 337.615 154.705C337.671 154.725 337.729 154.737 337.788 154.739C337.819 154.738 337.851 154.733 337.881 154.725C337.682 154.878 337.722 155.184 337.834 155.456C337.894 155.616 337.961 155.769 337.868 155.848C337.815 155.895 337.748 155.922 337.569 155.922C337.236 155.928 336.791 155.915 336.173 155.868C336.268 156.006 336.392 156.12 336.537 156.203C336.682 156.286 336.844 156.335 337.01 156.347C337.217 156.384 337.426 156.408 337.635 156.42C337.768 156.427 337.908 156.427 338.047 156.42C338.602 156.329 339.17 156.351 339.715 156.486C340.107 156.134 339.695 155.755 339.35 155.403C339.035 155.129 338.758 154.813 338.526 154.466C338.549 154.494 338.576 154.518 338.605 154.539C338.865 154.778 338.871 154.586 339.004 154.393C338.818 154.345 338.637 154.276 338.466 154.187H338.951V153.124C338.971 153.017 338.984 152.904 339.004 152.791C339.309 151.067 339.305 149.303 338.991 147.581C339.31 148.584 339.948 150.578 340.353 148.046C339.855 143.905 340.686 147.082 341.29 144.743C341.118 140.629 339.875 144.025 340.367 137.95C340.373 137.292 339.908 137.904 339.689 138.562C340.048 134.674 339.582 132.441 340.001 128.852C339.808 130.201 339.562 130.899 339.237 128.872C339.709 129.609 339.815 127.529 339.994 125.741C340.147 125.888 340.307 126.041 340.466 126.193C340.699 126.419 340.938 126.652 341.171 126.885C349.452 135.013 359.162 146.391 366.386 160.448C366.387 160.448 366.388 160.448 366.389 160.448C366.39 160.448 366.39 160.449 366.391 160.449C366.392 160.45 366.392 160.451 366.393 160.452C366.393 160.452 366.393 160.453 366.393 160.454C369.631 166.677 372.198 173.227 374.049 179.994C378.369 195.971 378.044 211.949 375.997 225.586Z" fill="white"/>
<path d="M283.735 166.349C283.643 166.575 283.502 166.777 283.323 166.941C283.522 166.502 283.635 166.369 283.735 166.349Z" fill="#3F3D56"/>
<path d="M266.361 170.357C266.358 170.374 266.352 170.391 266.342 170.405C266.331 170.419 266.318 170.43 266.302 170.437C266.331 170.394 266.361 170.357 266.361 170.357Z" fill="#3F3D56"/>
<path d="M365.516 256.69C365.349 256.71 365.19 256.73 365.03 256.75H365.024C362.492 257.036 360.099 257.382 357.633 257.654C354.42 258.028 351.185 258.186 347.95 258.126L348.05 257.92C345.325 257.687 339.875 257.209 339.888 255.747C337.917 255.889 335.958 256.171 334.026 256.591C319.651 251.912 302.909 243.99 289.211 230.657C269.904 211.869 261.191 186.766 257.37 170.59C260.234 170.55 263.046 170.643 265.139 171.527C263.71 170.855 265.95 170.703 266.302 170.43C266.287 170.449 266.276 170.471 266.27 170.495C266.264 170.518 266.263 170.543 266.268 170.567C266.272 170.591 266.282 170.614 266.296 170.634C266.31 170.654 266.328 170.67 266.349 170.683C266.789 170.725 267.234 170.675 267.654 170.535C268.074 170.395 268.46 170.169 268.788 169.872H274.258V169.42C274.441 169.41 274.624 169.437 274.796 169.5C274.823 169.048 276.232 169.167 277.807 169.174C274.65 169.686 276.79 170.151 275.374 170.862C277.11 170.953 278.845 170.656 280.452 169.991C280.791 169.872 281.136 169.752 281.502 169.639C281.588 169.613 281.681 169.586 281.774 169.559C281.851 169.548 281.925 169.523 281.994 169.486C282.08 169.44 282.167 169.393 282.253 169.353C282.63 169.177 283.055 169.128 283.463 169.214C283.851 169.411 284.251 169.586 284.659 169.739C284.783 169.668 284.897 169.58 284.998 169.48C284.509 168.976 284.183 168.337 284.061 167.645C284.014 167.393 283.994 167.18 283.954 167.007C283.914 166.589 283.855 166.323 283.735 166.349C284.14 165.512 284.38 164.282 285.038 164.468L285.011 164.289L284.991 164.03C284.984 163.85 284.971 163.671 284.965 163.485C284.951 163.113 284.945 162.734 284.945 162.348C284.951 161.697 284.971 161.046 284.984 160.421C294.342 163.276 303.351 167.171 311.842 172.032C319.062 176.171 325.744 181.187 331.733 186.966C343.723 198.636 351.625 212.739 356.796 225.626V225.633L356.803 225.64C360.81 235.648 363.731 246.058 365.516 256.69Z" fill="#3F3D56"/>
<path d="M397.743 256.91H397.788C397.777 256.916 397.765 256.919 397.752 256.919L397.743 256.91Z" fill="#3F3D56"/>
<path d="M478.234 154.38C478.234 154.38 474.459 200.597 443.581 230.657C429.757 244.116 412.843 252.058 398.381 256.717C398.268 255.753 395.45 256.89 393.808 256.611C392.486 256.757 391.156 257.634 392.3 257.9C387.355 257.308 380.815 257.514 375.618 257.262C373.426 257.231 371.246 256.923 369.131 256.345C368.706 256.378 368.287 256.411 367.875 256.444C367.682 256.464 367.49 256.484 367.304 256.504C369.094 245.919 372.008 235.554 375.997 225.586C381.181 212.713 389.083 198.623 401.053 186.972C407.042 181.193 413.723 176.177 420.944 172.038C448.606 155.995 478.234 154.38 478.234 154.38Z" fill="#3F3D56"/>
<path d="M43.7598 127.706C43.7598 127.706 34.5029 146.22 20.1968 150.427C5.89075 154.635 54.6997 150.427 54.6997 150.427C54.6997 150.427 52.1751 136.963 55.5413 135.28C58.9074 133.597 43.7598 127.706 43.7598 127.706Z" fill="#A0616A"/>
<path d="M28.8033 95.8993C28.2998 91.5128 30.699 87.6346 34.162 87.2372C34.2012 87.2327 34.2399 87.2349 34.2791 87.2313C33.8462 87.1677 33.4069 87.1605 32.9722 87.21C29.5092 87.6074 27.11 91.4856 27.6134 95.8721C28.1112 100.209 31.2604 103.413 34.6783 103.101C31.7467 102.675 29.2426 99.7267 28.8033 95.8993Z" fill="#2F2E41"/>
<path d="M31.9073 101.847C27.7252 100.431 25.2413 96.6063 26.3593 93.3047C26.372 93.2673 26.3904 93.2333 26.4039 93.1963C26.1617 93.5606 25.9678 93.9549 25.827 94.3692C24.709 97.6708 27.193 101.495 31.375 102.911C35.5096 104.311 39.7507 102.83 40.9268 99.6057C39.291 102.076 35.5562 103.082 31.9073 101.847Z" fill="#2F2E41"/>
<path d="M2.97067 182.948L4.20765 218.592L23.563 264.035C23.563 264.035 18.5137 287.598 28.6122 286.756C38.7106 285.915 29.4537 263.193 29.4537 263.193L20.1968 215.226L18.5137 175.673L2.97067 182.948Z" fill="#A0616A"/>
<path d="M57.2244 140.329C67.4492 140.329 75.7381 132.04 75.7381 121.815C75.7381 111.59 67.4492 103.301 57.2244 103.301C46.9995 103.301 38.7106 111.59 38.7106 121.815C38.7106 132.04 46.9995 140.329 57.2244 140.329Z" fill="#A0616A"/>
<path d="M72.372 153.794L54.1268 146.505C54.1268 146.505 50.4921 147.061 40.3937 147.903C30.2952 148.744 25.8113 147.951 25.8113 147.951C25.8113 147.951 4.20767 155.477 5.0492 159.684C5.89073 163.892 15.1476 230.373 19.3553 227.007C23.563 223.641 26.0876 222.799 26.0876 222.799L72.372 218.592V153.794Z" fill="#CFCCE0"/>
<path d="M8.41533 158.001H5.67668C5.67668 158.001 2.52457 159.684 2.52457 164.734C2.52457 169.783 -3.05176e-05 184.93 -3.05176e-05 184.93H13.4645L8.41533 158.001Z" fill="#CFCCE0"/>
<path d="M33.2406 165.996L23.0764 149.577C22.8449 149.203 22.511 148.903 22.1143 148.713C21.7176 148.524 21.2748 148.452 20.8384 148.506L18.1879 148.838C17.8619 148.878 17.5485 148.989 17.2688 149.161C16.9891 149.333 16.7495 149.563 16.5663 149.836C16.3831 150.108 16.2604 150.417 16.2067 150.741C16.1529 151.065 16.1693 151.397 16.2547 151.714L21.4592 171.045C21.4592 171.045 29.6882 205.194 21.7868 223.464L21.4592 231.636C21.4592 231.636 13.8854 256.882 15.5684 276.237C17.2514 295.592 18.093 312.423 18.093 312.423C18.093 312.423 13.8853 325.046 15.5684 329.253C16.0733 330.516 15.9723 332.384 15.5835 334.381C13.2105 346.57 12.5978 359.037 12.9333 371.45L13.0438 375.538C13.0438 375.538 7.15302 380.587 12.2023 381.429C17.2515 382.27 33.2406 383.953 33.2406 383.953C33.2406 383.953 36.6068 378.062 34.9237 377.221L39.9729 349.45C39.9729 349.45 48.3882 337.669 47.5467 330.095C47.5467 330.095 50.0713 317.472 47.5467 311.581L48.3883 274.554L51.7544 319.155L46.7052 374.696C46.7052 374.696 39.9729 379.745 44.1806 381.429C48.3882 383.112 74.4758 391.527 74.4758 387.319C74.4758 383.112 72.7927 381.429 72.7927 381.429L83.7327 267.821L77.8419 220.696C77.8419 220.696 38.2898 217.329 41.6559 172.728C41.6559 172.728 51.3325 152.631 60.8848 148.839C60.9933 148.798 61.0863 148.725 61.1506 148.628C61.2149 148.532 61.2471 148.418 61.2427 148.303C61.2383 148.187 61.1975 148.076 61.1261 147.984C61.0547 147.893 60.9564 147.827 60.8451 147.795L56.9671 146.687C56.8615 146.656 56.7487 146.658 56.6443 146.693C54.9615 147.263 40.3713 152.527 33.2406 165.996Z" fill="#2F2E41"/>
<path d="M52.5959 380.587L52.4615 381.797C51.5564 389.506 49.05 396.941 45.1031 403.625C43.2188 406.864 41.7762 410.522 42.4975 413.407C44.1806 420.139 43.339 422.664 43.339 422.664H56.8036V420.139L64.321 422.189C65.9973 422.673 67.7832 422.619 69.4266 422.033C71.1097 421.402 72.7928 420.139 72.7928 417.615C72.7928 415.511 71.1857 413.553 69.3107 411.985C65.3578 408.743 62.494 404.367 61.1055 399.446L61.0113 399.101L66.0605 380.587L52.5959 380.587Z" fill="#2F2E41"/>
<path d="M17.6722 381.008L17.5378 382.218C16.6327 389.927 14.1263 397.362 10.1794 404.046C8.29512 407.284 6.85249 410.943 7.5738 413.828C9.25688 420.56 8.41533 423.085 8.41533 423.085H21.8799V420.56L29.3973 422.61C31.0735 423.094 32.8595 423.04 34.5029 422.454C36.186 421.823 37.869 420.56 37.869 418.036C37.869 415.932 36.2619 413.974 34.387 412.406C30.434 409.164 27.5703 404.788 26.1818 399.867L26.0876 399.522L31.1368 381.008H17.6722Z" fill="#2F2E41"/>
<path d="M60.9614 124.939C60.9614 124.939 74.2237 117.277 79.3594 116.813C79.3594 116.813 80.8548 113.446 79.2422 110.207C79.2422 110.207 78.4598 99.8144 65.4875 100.218C65.4875 100.218 50.1658 91.9183 45.0221 95.3069C39.8785 98.6956 28.4254 114.956 33.2632 124.674C33.2632 124.674 27.6708 127.488 27.4047 125.973C27.1385 124.458 22.9839 128.527 28.4691 132.032C28.4691 132.032 20.7914 139.804 28.2546 144.668C28.2546 144.668 27.913 137.775 32.2424 135.691C36.5718 133.607 32.7826 135.796 32.7826 135.796C32.7826 135.796 25.371 145.083 36.4407 148.698C36.4407 148.698 32.3099 143.994 36.4646 139.925C36.4646 139.925 35.1776 149.428 42.8315 150.428C42.8315 150.428 38.8834 144.784 40.9608 142.75C40.9608 142.75 41.8425 149.748 46.164 150.589L49.405 151.219L50.5013 145.58C50.5013 145.58 47.4191 152.783 54.6242 153.209C54.6242 153.209 51.1408 142.291 55.7522 135.873C60.3636 129.455 60.9614 124.939 60.9614 124.939Z" fill="#2F2E41"/>
<path d="M40.3758 101.221C43.0415 97.7017 42.95 93.1423 40.1713 91.0378C37.3925 88.9332 32.9789 90.0804 30.3131 93.6001C27.6474 97.1198 27.7389 101.679 30.5176 103.784C33.2964 105.888 37.71 104.741 40.3758 101.221Z" fill="#2F2E41"/>
<path d="M42.2152 97.0073C40.5409 97.6416 39.084 98.7436 38.018 100.182C37.0697 101.415 36.4381 102.862 36.1785 104.396C37.8528 103.762 39.3097 102.66 40.3758 101.221C41.324 99.9881 41.9556 98.5412 42.2152 97.0073Z" fill="#85CBF9"/>
<path d="M106.467 257.312L105.398 255.886L113.157 250.071C114.078 249.379 114.8 248.457 115.252 247.397C115.703 246.337 115.866 245.177 115.726 244.033L111.883 212.994C111.606 210.74 111.929 208.454 112.818 206.364C113.707 204.275 115.13 202.457 116.945 201.093L125.403 194.756C127.007 193.556 129.022 193.042 131.005 193.326C132.988 193.61 134.777 194.67 135.98 196.271L137.939 198.885L136.513 199.954L134.554 197.34C133.635 196.116 132.267 195.307 130.752 195.09C129.237 194.873 127.698 195.266 126.472 196.182L118.014 202.52C116.45 203.695 115.223 205.262 114.458 207.062C113.692 208.862 113.414 210.832 113.651 212.774L117.495 243.814C117.673 245.269 117.465 246.746 116.891 248.095C116.317 249.443 115.398 250.617 114.226 251.498L106.467 257.312Z" fill="#CFCCE0"/>
<path d="M109.234 259.943L115.56 251.612L113.422 248.76L103.937 252.875L62.5317 281.485L69.8612 291.267L109.234 259.943Z" fill="#CFCCE0"/>
<path d="M139.056 194.389L131.068 200.374C128.885 202.011 128.441 205.107 130.077 207.29L167.138 256.746C168.774 258.93 171.87 259.373 174.054 257.737L182.042 251.751C184.225 250.115 184.669 247.019 183.033 244.836L145.972 195.379C144.336 193.196 141.24 192.753 139.056 194.389Z" fill="#E6E6E6"/>
<path opacity="0.2" d="M183.033 244.837L181.888 243.308L181.659 243.003C182.048 243.522 182.331 244.112 182.491 244.741C182.652 245.369 182.687 246.023 182.595 246.665C182.503 247.307 182.286 247.924 181.955 248.482C181.625 249.04 181.187 249.528 180.668 249.917L172.678 255.904C171.63 256.689 170.313 257.026 169.016 256.841C167.72 256.655 166.55 255.962 165.764 254.913L165.993 255.219L167.139 256.747C167.924 257.796 169.094 258.489 170.391 258.675C171.687 258.86 173.005 258.523 174.053 257.738L182.043 251.751C183.091 250.965 183.784 249.795 183.97 248.499C184.156 247.202 183.819 245.885 183.033 244.837Z" fill="black"/>
<path d="M159.344 212.195C159.269 212.121 159.206 212.062 159.204 212.094C159.276 212.181 159.323 212.204 159.344 212.195Z" fill="#7F77FF"/>
<path d="M158.083 210.212C158.075 210.161 158.048 210.115 158.007 210.084L158.083 210.212Z" fill="#7F77FF"/>
<path d="M167.114 222.737C167.038 222.761 167.185 222.925 167.282 223.083L167.114 222.737Z" fill="#7F77FF"/>
<path d="M171.023 227.767L171.094 227.862C171.139 227.873 171.185 227.88 171.231 227.882L171.023 227.767Z" fill="#7F77FF"/>
<path d="M173.493 231.452C173.54 231.452 173.586 231.462 173.629 231.48C173.672 231.499 173.711 231.526 173.743 231.559C173.783 231.528 173.812 231.485 173.826 231.436C173.768 231.345 173.587 231.433 173.493 231.452Z" fill="#7F77FF"/>
<path d="M181.159 242.096L181.119 242.166C181.143 242.196 181.17 242.223 181.2 242.248L181.159 242.096Z" fill="#7F77FF"/>
<path d="M155.65 206.53L155.66 206.55C155.755 206.636 155.709 206.582 155.65 206.53Z" fill="#7F77FF"/>
<path d="M133.212 213.852C133.083 213.395 133.819 214.297 133.571 213.65C133.549 213.744 132.97 213.344 133.212 213.852Z" fill="#7F77FF"/>
<path d="M149.677 198.75C149.664 198.795 149.661 198.844 149.67 198.891C149.685 198.875 149.691 198.84 149.677 198.75Z" fill="#7F77FF"/>
<path d="M146.553 196.498C146.442 196.568 146.343 196.657 146.262 196.761C146.281 196.758 146.298 196.751 146.315 196.743C146.371 196.641 146.454 196.557 146.553 196.498V196.498Z" fill="#7F77FF"/>
<path d="M143.432 199.435C143.461 199.43 143.49 199.423 143.518 199.414L143.61 199.317L143.432 199.435Z" fill="#7F77FF"/>
<path d="M181.34 242.252C181.235 242.379 181.028 242.546 180.936 242.49L181.119 242.161C181.106 242.146 181.094 242.129 181.081 242.112C181.093 242.097 181.105 242.082 181.117 242.067L178.479 238.546L178.547 238.55L178.426 238.476L178.092 238.03C178.134 238.02 178.189 238.034 178.268 238.112C178.132 237.698 177.968 237.88 177.88 237.503C177.876 237.457 177.897 237.463 177.928 237.485L177.619 237.213C177.714 237.24 177.738 237.039 177.854 237.262C177.55 236.585 176.984 236.454 176.992 236.108L177.042 236.146C176.534 235.587 176.66 235.89 176.486 235.887L176.204 235.511L176.276 235.022L176.051 235.068C175.995 234.98 175.884 234.807 175.973 234.787C175.628 234.564 175.941 234.894 175.699 234.795C175.551 234.283 174.803 233.747 175 233.459C174.767 233.41 175.189 233.914 174.782 233.553C174.975 233.218 174.364 233.097 174.221 232.634C174.452 232.636 174.633 233.04 174.49 232.577C174.077 232.543 174.012 231.826 173.734 231.554C173.526 231.687 173.15 230.946 172.698 230.479C172.429 229.931 172.126 229.401 171.789 228.892L171.833 228.881C171.564 228.938 171.23 228.414 170.919 228.084C171.049 228.009 171.144 228.039 171.344 228.194L171.089 227.855C170.92 227.794 170.772 227.685 170.665 227.54L170.878 227.513C170.426 227.083 170.026 226.602 169.685 226.08C169.574 226.129 169.59 226.451 169.442 226.487L169.212 226.18C169.246 226.165 169.284 226.162 169.32 226.171C169.356 226.18 169.388 226.199 169.412 226.228C169.362 226.182 169.208 226.087 169.161 225.957L169.472 226.107C169.329 225.801 169.262 226.048 169.115 225.828C169.226 225.751 169.075 225.614 169.183 225.58C169.233 225.626 169.277 225.798 169.379 225.847C169.223 225.625 169.12 225.371 169.077 225.102C169.032 225.169 168.933 225.211 168.788 225.046C168.442 224.601 168.801 224.795 168.659 224.49C168.503 224.437 168.364 224.091 168.198 224.204C168.1 224.071 168.156 223.991 168.162 223.907C167.916 223.726 167.324 222.831 167.35 223.222L167.384 223.29L167.348 223.257C166.615 222.611 166.247 221.599 165.609 220.89L165.663 220.851C165.312 220.416 164.927 220.008 164.513 219.631C164.412 219.497 164.373 219.241 164.48 219.251C164.192 219.013 163.961 218.713 163.804 218.373C164.159 218.652 163.797 218.191 164.14 218.679C163.849 218.194 163.858 218.027 163.349 217.654C163.61 217.715 163.268 217.185 163.067 217.001L163.205 217.391C163.024 217.18 162.859 216.957 162.71 216.723L162.978 216.703C162.507 215.616 161.357 215.321 161.2 214.343C160.89 214.194 161.486 214.91 161.174 214.803C160.985 214.413 160.83 214.008 160.711 213.591C160.375 212.935 160.04 213.247 159.653 212.588C159.647 212.714 159.53 212.916 159.129 212.508C158.834 212.065 159.008 211.783 159.261 212.012C159.342 212.11 159.359 212.175 159.334 212.187C159.46 212.306 159.622 212.465 159.566 212.245L159.461 212.238C159.369 211.978 158.924 211.4 159.133 211.457C158.831 211.183 158.924 211.4 159.069 211.662C158.754 211.048 158.434 210.81 158.077 210.202C158.108 210.318 158.094 210.457 158.028 210.368C157.493 209.486 157.635 210.098 157.189 209.562C157.051 209.172 157.509 209.499 157.007 209.001C156.817 208.608 157.124 208.8 157.278 208.897C156.916 208.515 156.634 208.065 156.449 207.572L156.703 207.802C156.572 207.68 156.455 207.544 156.353 207.398L156.339 207.648C156.243 207.473 156.144 207.339 156.2 207.302C155.993 207.203 156.078 207.587 155.721 207.351C155.628 207.091 155.17 206.762 155.287 206.561C155.725 207.267 155.404 206.359 155.851 206.899C155.732 206.783 155.632 206.647 155.556 206.499C155.557 206.46 155.608 206.494 155.65 206.53C155.328 205.782 155.238 206.384 154.75 205.724C154.909 205.735 154.819 205.435 154.718 205.343C154.915 205.609 154.652 205.59 154.396 205.403C154.156 204.926 153.997 204.987 153.841 204.76L153.994 205.038C153.834 205.025 153.689 204.805 153.438 204.535C153.495 204.453 153.69 204.762 153.644 204.633C153.231 204.434 153.268 203.765 152.813 203.396C152.721 203.136 152.979 203.24 152.885 203.022C152.378 202.606 152.604 202.371 152.099 201.913C152.085 202.164 152.137 202.168 151.728 201.885L152.479 202.697L151.867 202.274C152.064 202.541 152.369 202.773 152.466 202.949C152.158 202.759 152.211 202.762 152.199 202.97C152.121 202.461 151.546 202.335 151.362 201.816L151.693 201.588C151.363 200.849 150.687 200.589 150.153 199.709L150.295 200.014C150.085 200 149.898 199.521 149.647 199.294C149.773 199.238 149.688 199.043 149.669 198.88C149.6 198.953 149.227 198.274 148.957 198.36L148.824 197.888C148.416 197.223 147.868 197.25 147.336 196.464C147.448 196.492 147.445 196.388 147.466 196.323C147.488 196.262 147.536 196.242 147.815 196.527C147.562 196.188 147.334 195.843 147.314 195.971C147.296 195.929 147.273 195.889 147.246 195.852L147.198 195.791C147.181 195.773 147.159 195.824 147.138 195.841L146.851 196.194C146.711 196.409 146.528 196.593 146.313 196.734C146.219 196.909 146.25 197.075 145.973 197.329C145.926 197.338 145.932 197.277 145.932 197.277C145.945 197.36 145.635 197.686 145.925 197.616C145.049 197.877 144.285 199.204 143.512 199.408C143.114 199.826 142.621 200.318 142.228 200.665C142.227 200.612 142.186 200.613 142.27 200.559C141.642 200.934 142.185 201.144 141.462 201.565C141 201.666 141.722 201.195 141.469 201.3C141.099 201.033 140.747 201.982 140.15 202.123L140.238 202.019C139.819 202.168 139.539 202.791 138.971 203.185C138.971 203.185 138.974 203.134 138.934 203.13C138.543 203.7 138.065 204.206 137.516 204.626C137.585 204.366 137.709 204.377 137.504 204.307C137.276 204.5 137.74 204.486 137.282 204.87C137.07 204.906 136.672 205.086 136.518 204.961L136.97 204.633C136.6 204.602 136.382 205.052 136.113 205.182L136.085 205.073C135.399 205.583 135.53 205.805 134.746 206.292L134.869 206.308C134.584 206.803 134.431 206.405 134.107 206.837L133.838 206.688C133.41 207.104 132.955 207.49 132.474 207.844C132.793 207.447 133.147 207.08 133.532 206.747C133.145 206.945 132.795 207.209 132.497 207.527C132.6 207.439 132.711 207.297 132.844 207.267C132.526 207.72 132.096 208.082 131.595 208.319C131.547 208.052 130.976 208.311 130.284 208.649L130.023 208.777L129.89 208.842C129.847 208.864 129.777 208.88 129.834 208.925C129.94 209.077 130.043 209.228 130.133 209.372C130.293 209.597 130.407 209.851 130.469 210.121C130.615 210.287 130.759 210.451 130.904 210.616C131 210.726 131.092 210.84 131.181 210.957C131.358 211.191 131.524 211.437 131.689 211.691C132.019 212.199 132.347 212.738 132.768 213.274C132.802 212.645 133.015 213.586 133.298 213.27C133.506 213.505 133.574 213.605 133.571 213.645L133.546 213.583L133.571 213.65L133.572 213.649L133.95 214.566C133.99 214.821 133.696 214.38 133.639 214.459C134.03 215.034 133.673 214.798 133.86 215.232C133.923 215.068 134.175 215.298 134.368 215.649L134.186 215.088C134.946 215.732 134.411 215.969 135.173 216.621L134.883 216.451C135.246 216.807 135.992 217.936 136.554 218.13C136.569 218.23 136.549 218.392 136.392 218.233C137.072 219.224 138.279 220.159 138.674 221.029L138.538 221.017C138.696 221.179 138.925 221.215 139.011 221.5C138.969 221.514 138.876 221.489 138.934 221.575C139.184 221.746 139.398 221.964 139.563 222.218L139.32 222.083C139.916 223.1 140.62 223.355 141.265 224.099C141.024 224.276 141.499 225.072 141.736 225.469L141.693 225.482C142.444 226.418 143.259 227.302 144.131 228.127C144.342 228.949 145.615 230.334 146.225 231.451C146.153 231.264 146.43 231.336 146.588 231.498C146.717 231.77 147.245 232.027 146.997 232.154L146.938 232.067C146.856 232.406 147.278 232.85 147.557 233.234L147.891 233.081C148.217 234.387 149.994 235.568 150.026 236.391C150.277 236.576 150.499 236.874 150.749 237.058L150.585 237.16C150.992 237.799 151.439 238.411 151.924 238.993L151.689 238.908C152.026 239.378 152.571 239.16 152.9 239.58L152.766 239.881C153.375 240.686 153.786 241.654 154.592 242.296C154.549 242.308 154.465 242.334 154.357 242.211C154.636 242.595 155.304 243.798 155.516 243.423C155.317 243.587 156.12 244.272 156.537 244.64L156.335 244.686C156.716 244.812 157.052 245.044 157.305 245.355C157.377 245.491 157.264 245.552 157.181 245.362C157.406 245.827 157.562 245.57 157.85 246.123L157.616 246.012C157.679 246.132 157.766 246.238 157.872 246.324C157.977 246.41 158.099 246.474 158.229 246.512C158.487 246.729 158.785 247.333 158.694 247.497C158.813 247.518 158.925 247.566 159.021 247.638C159.117 247.71 159.195 247.804 159.248 247.912C159.221 247.984 159.122 247.918 159.072 247.885C159.493 248.661 160.027 248.792 160.238 249.383C160.22 249.403 160.207 249.427 160.202 249.454C160.197 249.48 160.199 249.507 160.208 249.532C159.796 248.975 159.47 248.522 159.512 248.555C159.372 248.66 159.684 249.126 159.224 248.914C159.739 249.23 160.189 249.641 160.55 250.125C160.554 250.156 160.553 250.188 160.545 250.219L160.495 250.186C160.553 250.287 160.631 250.375 160.725 250.445C160.79 250.582 160.867 250.714 160.954 250.838C160.877 250.976 161.277 251.399 161.439 251.626C161.578 251.493 161.772 251.804 161.693 251.436C161.709 251.48 161.643 251.407 161.526 251.263C161.499 251.233 161.47 251.205 161.438 251.18L161.463 251.185L161.037 250.637C161.156 250.691 161.264 250.769 161.352 250.866C161.441 250.963 161.508 251.078 161.55 251.202C161.735 251.243 161.93 251.294 162.031 251.329C162.047 251.795 162.374 252.471 162.304 252.651C162.602 252.96 162.917 253.351 163.234 253.692C163.387 253.858 163.549 254.015 163.719 254.163C163.876 254.332 164.065 254.469 164.275 254.566C164.362 254.648 164.423 254.753 164.451 254.869C164.478 254.968 164.52 254.959 164.57 254.986C164.522 255.016 164.47 255.038 164.416 255.054L164.315 254.944C164.267 254.883 164.208 254.831 164.142 254.79C164.276 254.88 164.367 255.209 164.629 255.001L165.305 254.726C165.462 254.668 165.612 254.592 165.752 254.5C165.85 254.433 165.912 254.365 165.917 254.296C166.532 254.173 165.675 254.641 166.452 254.287L166.373 254.401C168.109 254.14 168.616 252.764 170.461 252.318C170.332 252.352 170.269 252.37 170.225 252.346C172.205 251.513 173.771 249.842 175.578 248.771C176.082 248.445 176.015 248.271 176.202 247.941L176.435 248.006L176.73 247.417C177.231 246.689 178.172 246.713 178.694 245.672L178.494 245.682C178.789 245.413 179.269 244.69 179.348 244.847C179.34 244.795 179.348 244.741 179.373 244.694C179.397 244.647 179.436 244.609 179.483 244.586L179.572 244.647C179.741 244.362 179.895 244.068 180.056 243.78C180.593 243.243 180.321 244.15 181.023 243.29C181.245 242.936 181.492 242.172 181.34 242.252ZM177.69 237.444C177.695 237.463 177.697 237.483 177.696 237.502L177.561 237.322C177.603 237.361 177.644 237.398 177.69 237.444ZM161.214 251.144L161.245 251.148C161.206 251.158 161.164 251.157 161.125 251.146C160.992 251.014 160.984 250.942 161.001 250.898C161.056 250.966 161.122 251.044 161.214 251.144V251.144Z" fill="#85CBF9"/>
<path d="M161.531 251.27C161.553 251.287 161.573 251.307 161.593 251.327C161.583 251.285 161.572 251.244 161.558 251.203L161.463 251.185L161.531 251.27Z" fill="#7F77FF"/>
<path d="M167.339 223.2C167.347 223.22 167.35 223.243 167.349 223.265C167.349 223.252 167.349 223.238 167.352 223.225L167.339 223.2Z" fill="#7F77FF"/>
<path d="M175.982 234.442C175.612 233.58 175.963 234.691 175.418 233.915L175.808 234.527C175.791 234.381 175.771 234.189 175.982 234.442Z" fill="#7F77FF"/>
<path d="M174.295 231.983C174.085 231.82 174.034 231.781 174.161 232.063C174.431 232.364 174.247 231.992 174.295 231.983Z" fill="#7F77FF"/>
<path d="M164.436 219.091L164.61 219.013C164.396 218.773 164.551 219.054 164.436 219.091Z" fill="#7F77FF"/>
<path d="M161.863 215.034L161.5 214.658L161.761 214.941L161.863 215.034Z" fill="#7F77FF"/>
<path d="M143.837 198.84L144.055 198.941C144.182 198.77 144.045 198.557 143.837 198.84Z" fill="#7F77FF"/>
<path d="M134.175 206.421C134.381 206.341 134.579 206.245 134.769 206.133C134.655 206.13 134.541 206.155 134.437 206.205C134.334 206.255 134.244 206.329 134.175 206.421V206.421Z" fill="#7F77FF"/>
<path d="M147.829 233.569L148.155 233.901L148.036 233.721L147.829 233.569Z" fill="#7F77FF"/>
<path d="M61.0366 180.424L62.2736 216.067L81.6289 261.51C81.6289 261.51 76.5797 285.073 86.6781 284.231C96.7765 283.39 87.5196 260.669 87.5196 260.669L78.2627 212.701L76.5797 173.149L61.0366 180.424Z" fill="#A0616A"/>
<path d="M68.1644 155.476L68.627 152.297L72.3719 153.794L84.1534 172.307L59.7487 184.93L68.1644 155.476Z" fill="#CFCCE0"/>
</g>
<defs>
<clipPath id="clip0">
<rect width="600.894" height="427" fill="white" transform="translate(0 0.5)"/>
</clipPath>
</defs>
</svg>
