<svg width="686" height="502" viewBox="0 0 686 502" fill="none" xmlns="http://www.w3.org/2000/svg">
<g clip-path="url(#clip0)">
<path d="M382.976 493.484C519.133 493.484 629.51 383.107 629.51 246.95C629.51 110.793 519.133 0.415649 382.976 0.415649C246.819 0.415649 136.442 110.793 136.442 246.95C136.442 383.107 246.819 493.484 382.976 493.484Z" fill="#F2F2F2"/>
<path d="M475.553 170.546C508.675 168.745 534.066 140.434 532.265 107.312C530.465 74.1894 502.154 48.7982 469.032 50.599C435.909 52.3997 410.518 80.7105 412.319 113.833C414.119 146.955 442.43 172.347 475.553 170.546Z" fill="url(#paint0_radial)"/>
<path d="M189.555 48.3235L191.307 84.8585C198.571 94.5473 206.408 105.635 214.143 117.718L215.247 61.9806L215.857 62.37C206.91 55.9788 197.815 51.0889 188.945 47.9849L189.555 48.3235Z" fill="url(#paint1_linear)"/>
<path d="M190.03 83.1612L188.333 47.7708C178.371 44.3735 168.706 43.2465 159.871 44.8221C159.411 44.9041 158.959 44.9984 158.509 45.0941C160.753 47.5025 173.835 61.7257 190.03 83.1612Z" fill="url(#paint2_linear)"/>
<path d="M270.463 126.749L271.051 127.31C268.636 122.769 266.077 118.354 263.373 114.065L246.899 178.886L246.621 178.641C247.812 181.484 248.944 184.308 250.019 187.113L270.463 126.749Z" fill="url(#paint3_linear)"/>
<path d="M245.366 89.8969L245.973 90.3824C237.263 80.0628 227.362 70.811 216.476 62.8204L215.35 119.62C222.548 130.979 228.992 142.167 234.683 153.185L245.366 89.8969Z" fill="url(#paint4_linear)"/>
<path d="M125.865 107.63C126.79 117.204 128.68 126.659 131.507 135.853L229.745 145.986C224.616 136.529 219.322 127.656 214.183 119.569L126.114 108.402L125.865 107.63Z" fill="url(#paint5_linear)"/>
<path d="M135.081 146.455L134.816 145.684L234.242 154.522C233.041 152.172 231.827 149.854 230.599 147.567L131.998 137.397L131.739 136.625C132.733 139.865 133.847 143.142 135.081 146.455Z" fill="url(#paint6_linear)"/>
<path d="M262.254 112.714L262.852 113.241C257.922 105.488 252.475 98.0768 246.548 91.0575L235.72 155.201C239.473 162.569 242.872 169.834 245.917 176.994L262.254 112.714Z" fill="url(#paint7_linear)"/>
<path d="M260.151 219.863C264.103 236.962 265.6 253.13 264.612 268.187C270.171 256.34 291.316 207.262 283.412 161.523L260.151 219.863Z" fill="url(#paint8_linear)"/>
<path d="M153.32 181.024C158.581 188.111 164.311 194.837 170.471 201.157L170.231 200.3L258.674 218.495C256.373 208.947 253.501 199.546 250.075 190.342L153.32 181.024Z" fill="url(#paint9_linear)"/>
<path d="M189.267 83.758C171.739 60.5707 157.91 45.9154 157.711 45.7056L157.938 45.2172C144.638 48.2367 135.247 57.2861 130.08 70.3844L189.267 83.758Z" fill="url(#paint10_linear)"/>
<path d="M250.837 189.289C251.164 190.161 251.496 191.036 251.811 191.904C254.849 200.225 257.431 208.705 259.546 217.307L282.586 159.521L283.149 160.085C281.691 152.044 279.219 144.221 275.793 136.801C274.434 133.892 273.012 131.026 271.525 128.205L250.837 189.289Z" fill="url(#paint11_linear)"/>
<path d="M213.154 117.958C205.499 106.017 197.75 95.063 190.569 85.4882L130.024 71.8073L129.819 71.0432C126.039 80.9968 124.657 93.2247 125.802 106.882L213.154 117.958Z" fill="url(#paint12_linear)"/>
<path d="M259.032 220.013L171.237 201.951C208.165 239.86 259.83 268.933 263.128 270.77C264.666 254.069 262.921 236.913 259.032 220.013Z" fill="url(#paint13_linear)"/>
<path d="M249.453 188.785L249.472 188.727C245.251 177.598 240.433 166.704 235.04 156.093L135.37 147.234C137.062 151.715 138.974 156.244 141.107 160.821C144.213 167.342 147.908 173.566 152.145 179.415L249.453 188.785Z" fill="url(#paint14_linear)"/>
<path d="M376.238 171.384L354.285 200.64C353.7 212.736 352.664 226.273 350.914 240.513L387.315 198.289L387.536 198.978C384.722 188.349 380.836 178.782 375.984 170.734L376.238 171.384Z" fill="url(#paint15_linear)"/>
<path d="M354.384 198.518L375.649 170.178C370.144 161.208 363.418 154.175 355.609 149.754C355.203 149.524 354.795 149.308 354.386 149.095C354.579 152.381 355.583 171.68 354.384 198.518Z" fill="url(#paint16_linear)"/>
<path d="M388.532 283.39L388.627 284.197C389.663 279.16 390.508 274.128 391.161 269.1L337.129 308.517L337.071 308.15C336.175 311.1 335.246 313.997 334.284 316.843L388.532 283.39Z" fill="url(#paint17_linear)"/>
<path d="M392.707 239L392.865 239.761C392.739 226.258 391.014 212.817 387.726 199.72L350.631 242.748C348.93 256.087 346.757 268.815 344.113 280.93L392.707 239Z" fill="url(#paint18_linear)"/>
<path d="M289.358 176.438C283.964 184.402 279.389 192.891 275.702 201.774L344.901 272.236C346.983 261.681 348.565 251.471 349.764 241.965L289.057 177.192L289.358 176.438Z" fill="url(#paint19_linear)"/>
<path d="M271.693 212.219L271.981 211.457L342.921 281.679C343.495 279.103 344.038 276.543 344.551 273.998L275.096 203.276L275.389 202.516C274.088 205.646 272.856 208.88 271.693 212.219Z" fill="url(#paint20_linear)"/>
<path d="M391.161 267.345L391.285 268.132C392.433 259.017 392.965 249.835 392.877 240.648L343.626 283.144C341.817 291.213 339.801 298.976 337.579 306.433L391.161 267.345Z" fill="url(#paint21_linear)"/>
<path d="M321.2 348.529C313.337 364.219 304.179 377.626 293.813 388.592C305.652 383.015 353.24 358.702 376.325 318.433L321.2 348.529Z" fill="url(#paint22_linear)"/>
<path d="M353.415 198.491C354.705 169.453 353.401 149.345 353.382 149.057L353.869 148.826C341.699 142.668 328.694 143.648 316.36 150.441L353.415 198.491Z" fill="url(#paint23_linear)"/>
<path d="M333.527 319.041C333.222 319.921 332.92 320.806 332.609 321.676C329.641 330.022 326.221 338.2 322.364 346.175L376.967 316.364L377.04 317.157C381.045 310.034 384.132 302.432 386.226 294.532C387.035 291.425 387.766 288.31 388.421 285.189L333.527 319.041Z" fill="url(#paint24_linear)"/>
<path d="M349.999 240.067C351.72 225.988 352.739 212.609 353.315 200.654L315.41 151.501L315.739 150.782C306.48 156.037 297.616 164.574 289.787 175.822L349.999 240.067Z" fill="url(#paint25_linear)"/>
<path d="M259.203 325.564C259.784 326.293 260.37 327.021 260.938 327.75C266.399 334.725 271.476 341.992 276.146 349.518L280.197 287.44L280.906 287.803C277.034 280.607 272.265 273.93 266.714 267.932C264.522 265.586 262.283 263.3 259.998 261.077L259.203 325.564Z" fill="url(#paint26_linear)"/>
<path d="M263.692 250.478C263.224 259.291 263.347 268.126 264.06 276.923L264.422 276.11L320.934 346.533C325.252 337.712 329.037 328.639 332.268 319.365L263.692 250.478Z" fill="url(#paint27_linear)"/>
<path d="M320.242 347.931L264.143 278.023C268.406 330.773 289.655 386.117 291.023 389.636C302.861 377.754 312.459 363.427 320.242 347.931Z" fill="url(#paint28_linear)"/>
<path d="M332.782 317.769L332.834 317.737C336.681 306.473 339.919 295.01 342.533 283.398L271.418 213.003C269.864 217.534 268.448 222.242 267.171 227.127C265.405 234.131 264.281 241.281 263.813 248.489L332.782 317.769Z" fill="url(#paint29_linear)"/>
<path d="M157.35 210.444L170.31 244.648C180.213 251.617 191.093 259.739 202.184 268.84L186.006 215.491L186.706 215.673C176.221 212.36 166.061 210.521 156.666 210.31L157.35 210.444Z" fill="url(#paint30_linear)"/>
<path d="M168.57 243.429L156.017 210.296C145.493 210.144 135.953 212.06 128.037 216.289C127.626 216.509 127.225 216.739 126.826 216.969C129.705 218.565 146.543 228.049 168.57 243.429Z" fill="url(#paint31_linear)"/>
<path d="M258.537 260.02L259.27 260.372C255.57 256.8 251.772 253.392 247.874 250.149L252.243 316.888L251.902 316.74C253.914 319.077 255.864 321.413 257.753 323.748L258.537 260.02Z" fill="url(#paint32_linear)"/>
<path d="M223.279 232.73L224.006 233.004C212.533 225.882 200.257 220.144 187.434 215.91L203.92 270.276C214.276 278.854 223.863 287.502 232.68 296.221L223.279 232.73Z" fill="url(#paint33_linear)"/>
<path d="M115.11 286.533C118.95 295.351 123.67 303.76 129.2 311.63L225.759 290.901C217.959 283.492 210.181 276.69 202.794 270.588L115.586 287.19L115.11 286.533Z" fill="url(#paint34_linear)"/>
<path d="M135.876 320.607L135.386 319.956L232.675 297.629C230.806 295.766 228.935 293.936 227.06 292.141L130.144 312.946L129.659 312.292C131.606 315.066 133.678 317.838 135.876 320.607Z" fill="url(#paint35_linear)"/>
<path d="M246.392 249.21L247.123 249.527C240.039 243.677 232.568 238.312 224.761 233.469L234.29 297.818C240.137 303.666 245.615 309.524 250.724 315.393L246.392 249.21Z" fill="url(#paint36_linear)"/>
<path d="M163.907 347.846C171.101 352.96 178.629 357.585 186.441 361.692L185.948 360.951L275.684 350.918C270.544 342.549 264.907 334.495 258.804 326.801L163.907 347.846Z" fill="url(#paint37_linear)"/>
<path d="M168.029 244.232C144.193 227.598 126.51 217.935 126.256 217.797L126.322 217.262C114.606 224.245 108.472 235.754 107.607 249.808L168.029 244.232Z" fill="url(#paint38_linear)"/>
<path d="M201.317 269.374C190.346 260.384 179.591 252.361 169.802 245.475L107.994 251.178L107.562 250.515C107.044 261.15 109.51 273.206 114.82 285.84L201.317 269.374Z" fill="url(#paint39_linear)"/>
<path d="M276.494 352.251L187.415 362.211C234.252 386.848 292.374 398.528 296.078 399.256C292.379 382.897 285.417 367.121 276.494 352.251Z" fill="url(#paint40_linear)"/>
<path d="M257.731 325.513L257.732 325.452C250.277 316.173 242.328 307.301 233.919 298.877L136.391 321.259C139.386 324.998 142.604 328.714 146.047 332.407C151.017 337.649 156.455 342.426 162.292 346.679L257.731 325.513Z" fill="url(#paint41_linear)"/>
<path d="M685.692 419.458C685.692 449.026 533.591 501.416 345.964 501.416C158.338 501.416 6.23669 449.026 6.23669 419.458C6.23669 389.89 158.338 394.342 345.964 394.342C533.591 394.342 685.692 389.89 685.692 419.458Z" fill="#3F3D56"/>
<path opacity="0.1" d="M685.692 419.458C685.692 449.026 533.591 501.416 345.964 501.416C158.338 501.416 6.23669 449.026 6.23669 419.458C6.23669 389.89 158.338 394.342 345.964 394.342C533.591 394.342 685.692 389.89 685.692 419.458Z" fill="black"/>
<path d="M345.964 472.995C533.591 472.995 685.692 449.026 685.692 419.458C685.692 389.89 533.591 365.921 345.964 365.921C158.338 365.921 6.23669 389.89 6.23669 419.458C6.23669 449.026 158.338 472.995 345.964 472.995Z" fill="url(#paint42_linear)"/>
<path opacity="0.1" d="M557.729 392.167C557.729 424.38 512.828 414.417 457.851 414.417C402.874 414.417 358.64 424.38 358.64 392.167C358.64 359.954 403.535 352.948 458.512 352.948C513.489 352.948 557.729 359.954 557.729 392.167Z" fill="black"/>
<path d="M557.729 384.236C557.729 416.449 512.828 406.485 457.851 406.485C402.874 406.485 358.64 416.449 358.64 384.236C358.64 352.023 403.535 345.017 458.512 345.017C513.489 345.017 557.729 352.023 557.729 384.236Z" fill="#3F3D56"/>
<path d="M444.634 290.918C445.953 290.009 447.408 289.303 448.949 288.823C458.72 285.304 468.958 283.148 479.356 282.417C488.397 281.796 498.196 282.533 505.258 288.033C506.356 288.813 507.255 289.827 507.885 290.996C508.774 292.851 508.504 295.008 508.217 297.034C508.152 297.82 507.948 298.589 507.612 299.307C506.662 301.058 504.322 301.672 502.29 301.462C500.258 301.252 498.351 300.42 496.346 300.034C495.106 299.825 493.851 299.701 492.593 299.664L480.021 299.005C472.204 298.596 464.284 298.193 456.616 299.72C454.255 300.13 451.974 300.891 449.854 301.975C448.102 302.927 446.923 304.292 445.298 302.535C442.443 299.446 440.862 293.77 444.634 290.918Z" fill="#2F2E41"/>
<path d="M464.114 296.298C464.114 296.298 481.023 288.962 487.437 297.427C493.85 305.892 483.938 302.506 483.938 302.506L472.86 305.892L460.616 303.634L464.114 296.298Z" fill="#4B90D2"/>
<path d="M464.989 290.937C464.989 290.937 467.321 301.659 465.572 304.481C463.823 307.302 475.484 311.252 475.484 311.252L486.562 306.738C486.562 306.738 483.647 289.244 486.562 285.858L464.989 290.937Z" fill="#FFB9B9"/>
<path opacity="0.1" d="M464.989 290.937C464.989 290.937 467.321 301.659 465.572 304.481C463.823 307.302 475.484 311.252 475.484 311.252L486.562 306.738C486.562 306.738 483.647 289.244 486.562 285.858L464.989 290.937Z" fill="black"/>
<path d="M454.063 419.862C455.631 423.008 456.92 426.277 457.916 429.634C457.933 429.745 457.973 429.851 458.035 429.946C458.097 430.041 458.178 430.122 458.275 430.184C458.371 430.246 458.48 430.288 458.594 430.306C458.708 430.325 458.825 430.319 458.937 430.291L469.308 430.28C470.588 430.279 472.305 429.881 472.292 428.642C472.283 427.772 471.363 427.229 470.679 426.664C468.781 425.096 468.287 422.511 467.5 420.219C465.972 415.803 463.027 411.974 459.093 409.291C458.562 408.888 457.95 408.595 457.296 408.431C456.639 408.339 455.969 408.374 455.326 408.535C453.505 408.89 446.707 410.107 447.991 412.669C448.544 413.773 450.593 414.922 451.453 415.953C452.454 417.169 453.328 418.479 454.063 419.862Z" fill="#575A89"/>
<path d="M490.128 408.22C489.762 408.964 489.355 409.688 488.908 410.389C487.406 412.788 485.633 415.025 484.233 417.481C483.29 418.982 482.708 420.668 482.53 422.416C482.45 423.29 482.588 424.17 482.932 424.982C483.277 425.793 483.817 426.513 484.509 427.08C486.014 428.186 488.079 428.237 489.95 427.98C491.821 427.722 493.681 427.203 495.566 427.34C494.93 423.859 497.963 420.797 498.721 417.34C498.934 416.369 498.966 415.362 499.251 414.409C499.559 413.537 499.952 412.695 500.425 411.896C501.935 409.05 503.003 406.004 503.592 402.855C503.664 402.474 494.373 402.411 493.502 402.593C490.782 403.163 491.18 406.037 490.128 408.22Z" fill="#575A89"/>
<path d="M418.521 353.547C415.869 357.564 416.48 362.887 418.343 367.3C420.206 371.713 423.171 375.615 425.2 379.958C426.493 382.728 427.4 385.664 428.857 388.356C430.661 391.69 433.295 394.629 434.505 398.205C435.277 400.485 435.454 402.983 436.704 405.055C437.459 406.162 438.321 407.197 439.279 408.147C441.971 411.132 443.992 414.626 445.214 418.408C446.356 415.114 449.777 412.955 453.29 412.243C456.804 411.53 460.444 412.014 463.999 412.5C462.016 409.527 460.014 406.517 458.832 403.168C457.689 399.93 457.352 396.485 456.582 393.145C455.003 386.296 451.63 379.978 448.291 373.749L465.454 372.431C468.255 372.159 471.072 372.058 473.887 372.129C478.317 372.331 482.657 373.382 487.063 373.868C491.47 374.353 496.131 374.226 500.058 372.231C492.549 382.659 488.638 395.118 488.885 407.826C490.563 406.567 492.511 405.688 494.586 405.252C496.661 404.816 498.81 404.835 500.877 405.307C502.943 405.779 504.874 406.692 506.529 407.98C508.183 409.267 509.52 410.897 510.439 412.749C517.166 403.853 516.366 391.468 521.696 381.726C522.792 379.723 524.135 377.857 525.318 375.9C527.553 371.971 529.466 367.879 531.041 363.66C532.531 359.97 534.033 355.863 532.603 352.15C532.01 350.741 531.145 349.454 530.055 348.358C526.98 345.076 522.7 342.649 518.124 342.548C511.099 342.393 505.296 347.432 499.134 350.7C491.777 354.484 483.457 356.155 475.152 355.514C466.688 354.934 458.604 352.252 450.54 349.89C446.505 348.654 442.405 347.63 438.256 346.824C434.798 346.196 431.504 346.891 428.096 347.747C424.386 348.679 420.657 350.313 418.521 353.547Z" fill="#2F2E41"/>
<path d="M491.81 280.215C491.806 284.704 489.962 289.008 486.682 292.182C483.403 295.356 478.956 297.141 474.318 297.145C473.276 297.146 472.235 297.056 471.21 296.874C467.937 296.302 464.9 294.838 462.455 292.654C460.011 290.47 458.26 287.657 457.409 284.545C456.558 281.433 456.642 278.15 457.651 275.082C458.659 272.014 460.551 269.288 463.103 267.224C465.656 265.159 468.764 263.842 472.063 263.427C475.362 263.012 478.714 263.516 481.728 264.88C484.741 266.243 487.29 268.41 489.076 271.127C490.862 273.843 491.81 276.996 491.81 280.215V280.215Z" fill="#FFB9B9"/>
<path d="M464.114 296.298C464.114 296.298 467.321 297.709 468.487 298.838C469.653 299.966 473.152 306.174 478.982 302.224C484.813 298.273 485.396 296.016 487.145 296.016C488.894 296.016 491.227 299.402 491.227 299.402L507.261 345.958C502.939 350.679 497.931 354.766 492.393 358.091C483.064 363.734 471.986 366.555 466.738 364.298C461.49 362.041 451.578 360.348 449.829 355.833C448.08 351.319 445.165 337.775 445.165 337.775L453.328 303.352L464.114 296.298Z" fill="#8EC6FC"/>
<path d="M461.863 343.383C463.134 340.726 463.319 337.718 463.427 334.791C463.598 331.893 463.519 328.985 463.189 326.1C462.673 322.325 461.403 318.688 460.6 314.96C459.897 311.691 459.556 308.358 459.581 305.019C459.593 303.495 459.707 301.891 460.564 300.613C461.163 299.722 462.099 299.031 462.473 298.032C463.207 296.072 461.395 294.02 459.409 293.212C456.99 292.335 454.345 292.232 451.861 292.919C449.398 293.608 447.018 294.551 444.761 295.73C443.055 296.434 441.486 297.416 440.123 298.632C438.313 300.445 437.517 302.97 436.874 305.413C436.36 307.368 435.903 309.407 436.294 311.388C436.93 314.606 439.64 317.027 441.085 319.989C442.763 323.43 442.65 327.439 441.983 331.188C441.315 334.938 440.131 338.604 439.765 342.392C439.4 346.18 439.961 350.251 442.413 353.225C443.412 354.437 446.123 357.308 447.952 356.984C449.389 356.728 451.473 353.666 452.63 352.696C455.975 349.892 459.943 347.398 461.863 343.383Z" fill="#2F2E41"/>
<path d="M492.411 294.458C492.462 297.605 491.029 300.597 489.343 303.289C487.657 305.981 485.677 308.527 484.435 311.436C482.891 315.077 482.576 319.098 483.534 322.923C483.89 324.226 484.32 325.509 484.821 326.767L488.015 335.248C488.445 336.581 489.069 337.849 489.868 339.012C490.59 339.903 491.437 340.692 492.385 341.356C494.812 343.253 497.604 344.663 500.6 345.504C503.616 346.339 506.835 346.161 509.734 344.999C510.042 333.502 511.95 322.098 515.408 311.095C516.046 309.063 516.744 306.925 516.252 304.856C515.7 302.538 513.777 300.798 511.948 299.209C506.357 294.35 500.208 289.245 492.724 288.59C488.392 288.211 492.374 292.182 492.411 294.458Z" fill="#2F2E41"/>
<path d="M454.148 360.068C454.592 360.908 454.868 361.823 455.306 362.665C455.953 363.795 456.753 364.837 457.685 365.762C461.584 369.945 466.349 374.113 472.164 374.366C472.742 374.418 473.325 374.347 473.871 374.158C474.363 373.914 474.785 373.558 475.102 373.12C475.418 372.682 475.619 372.175 475.687 371.644C476.099 369.459 475.103 367.278 474.105 365.278C471.942 360.942 469.508 356.496 465.458 353.7C463.436 352.358 461.126 351.478 458.702 351.125C456.278 350.772 453.802 350.956 451.462 351.662C449.352 352.29 445.854 353.389 448.647 355.252C450.766 356.665 452.92 357.74 454.148 360.068Z" fill="#FFB9B9"/>
<path d="M479.286 304.865C478.679 303.279 477.749 301.827 476.55 300.595C475.341 299.606 473.909 298.904 472.37 298.546C470.375 297.994 468.313 297.708 466.238 297.695C463.769 297.68 460.906 298.322 459.857 300.485C459.025 302.204 459.67 304.238 460.509 305.954C460.867 306.843 461.463 307.623 462.237 308.214C463.302 308.91 464.679 308.888 465.942 309.121C467.899 309.602 469.753 310.415 471.417 311.523L475.742 314.053L483.17 318.399C482.975 318.284 483.044 313.354 482.816 312.546C482.081 309.943 480.426 307.331 479.286 304.865Z" fill="#FFB9B9"/>
<path d="M457.646 428.357C455.908 430.643 456.256 433.911 454.717 436.327C453.382 438.421 450.867 439.519 449.197 441.374C448.664 441.991 448.189 442.652 447.778 443.35C446.229 445.861 444.971 449.079 446.496 451.603C447.723 453.633 450.302 454.427 452.667 454.967C455.656 455.651 458.763 456.198 461.787 455.676C464.811 455.153 467.766 453.361 468.844 450.577C469.056 449.877 469.308 449.189 469.599 448.516C471.238 445.393 476.379 445.36 478.056 442.256C479.23 440.084 478.151 437.458 477.073 435.24L473.778 428.466C472.685 426.218 468.253 427.511 465.942 426.972C462.929 426.27 459.814 425.496 457.646 428.357Z" fill="#2F2E41"/>
<path d="M483.128 422.537C481.779 423.565 480.748 424.933 480.147 426.489C478.517 430.13 477.957 434.121 477.413 438.054C477.103 439.618 477.071 441.222 477.319 442.797C478.022 446.009 481.029 448.374 484.266 449.356C487.502 450.338 490.974 450.187 494.362 450.026C495.455 450.053 496.54 449.84 497.536 449.403C499.239 448.494 499.904 446.358 499.612 444.497C499.32 442.637 498.27 440.981 497.242 439.384C496.214 437.787 495.162 436.132 494.868 434.272C494.373 431.143 495.77 426.55 493.784 423.719C491.794 420.882 485.785 420.735 483.128 422.537Z" fill="#2F2E41"/>
<path d="M491.37 271.392C491.058 270.38 490.373 269.514 489.444 268.96C489.492 267.875 489.355 266.79 489.037 265.749C487.978 262.718 485.469 262.892 483.101 261.552C482.074 260.971 482.137 260.457 481.602 259.502C480.902 258.25 479.852 257.214 478.573 256.51C477.054 255.574 475.451 254.609 473.654 254.49C469.877 254.241 466.982 257.679 463.372 258.782C461.781 259.269 460.072 259.289 458.472 259.749C456.873 260.208 455.277 261.306 455.039 262.904C454.929 263.642 455.123 264.399 455.012 265.137C454.79 266.603 453.461 267.629 452.571 268.835C450.604 271.502 450.829 275.269 452.402 278.17C452.734 278.771 453.113 279.345 453.536 279.889C453.668 281.26 454.075 282.593 454.734 283.814C456.307 286.715 459.015 288.883 461.843 290.684C461.611 289.722 461.471 288.741 461.423 287.754C461.383 287.425 461.428 287.092 461.552 286.784C461.867 286.146 462.699 285.977 463.334 285.628C464.648 284.905 465.163 283.305 465.201 281.843C465.239 280.38 464.919 278.915 465.077 277.46C465.084 277.126 465.162 276.796 465.308 276.493C465.454 276.189 465.664 275.919 465.924 275.699C466.409 275.431 466.963 275.303 467.521 275.331C470.214 275.224 473.027 275.176 475.403 273.944C476.169 273.451 476.992 273.048 477.856 272.743C479.874 272.233 481.937 273.603 483.1 275.279C484.264 276.954 484.844 278.949 485.917 280.68C486.99 282.411 488.845 283.955 490.92 283.75C491.037 283.75 491.152 283.726 491.259 283.68C491.366 283.635 491.461 283.567 491.54 283.483C491.629 283.327 491.669 283.15 491.654 282.972L491.77 275.295C491.866 273.981 491.731 272.662 491.37 271.392Z" fill="#2F2E41"/>
<path d="M436.013 311.552C434.344 313.935 432.42 316.226 431.503 318.965C430.964 320.575 430.796 322.276 430.406 323.925C429.106 329.419 425.349 334.299 424.972 339.923C424.839 341.172 425.029 342.434 425.524 343.596C426.601 345.864 429.18 347.06 431.64 347.812C434.1 348.564 436.741 349.106 438.705 350.725C439.693 351.642 440.59 352.648 441.382 353.729C444.585 357.585 448.895 360.439 453.769 361.932C453.384 359.364 453.203 356.269 455.324 354.682C456.472 353.823 458.006 353.67 459.452 353.549L466.284 352.977C461.728 348.701 456.707 344.915 451.308 341.686C449.419 340.557 447.363 339.365 446.5 337.385C446.055 336.109 445.87 334.761 445.956 333.417C445.909 328.5 445.478 323.592 444.669 318.738C444.106 315.367 443.361 312.026 442.51 308.712C442.271 307.782 440.857 303.609 439.118 304.586C438.708 304.816 438.325 307.463 438.086 308.012C437.516 309.255 436.822 310.441 436.013 311.552V311.552Z" fill="#2F2E41"/>
<path d="M514.698 302.547L517.487 308.163C518.832 310.472 519.443 313.113 519.246 315.756L519.412 332.601C519.541 334.852 519.348 337.109 518.84 339.309C518.666 340.034 518.338 340.716 517.877 341.312C517.404 341.825 516.847 342.26 516.227 342.598C510.947 345.791 504.101 347.606 498.522 344.93C497.245 344.271 496.03 343.504 494.892 342.637C492.669 341.043 490.413 339.419 488.75 337.279C487.009 335.04 486.011 332.359 484.84 329.796C482.739 325.198 480.023 320.887 476.763 316.973C476.223 316.456 475.872 315.782 475.763 315.054C475.728 313.578 477.538 312.851 478.949 312.289C481.36 311.329 483.634 309.477 484.037 306.985C489.164 313.492 494.822 320.367 502.912 322.745C503.039 322.823 503.186 322.867 503.336 322.872C503.487 322.876 503.636 322.841 503.767 322.77C503.899 322.7 504.008 322.596 504.084 322.47C504.159 322.344 504.198 322.2 504.197 322.054C504.656 320.195 504.818 318.28 505.154 316.395C505.77 312.964 506.957 309.652 508.667 306.589C509.626 304.871 512.728 298.583 514.698 302.547Z" fill="#2F2E41"/>
<path opacity="0.1" d="M445.467 318.786C445.544 322.773 444.669 326.722 442.911 330.328C442.453 331.125 442.116 331.981 441.91 332.87C441.603 334.767 442.719 336.604 443.994 338.075C446.51 340.969 449.772 343.165 453.449 344.442" fill="black"/>
<path opacity="0.1" d="M506.048 315.426C505.637 316.496 506.011 317.68 506.327 318.779C507.245 321.968 507.674 325.271 507.599 328.581C507.613 328.638 507.611 328.699 507.594 328.756C507.578 328.813 507.546 328.865 507.504 328.907C507.461 328.95 507.408 328.981 507.349 328.999C507.291 329.016 507.229 329.02 507.168 329.008C505.823 329.088 504.282 329.096 503.369 328.136" fill="black"/>
<path d="M0.547241 320.751C0.547241 363.062 27.0912 397.3 59.8944 397.3Z" fill="#3F3D56"/>
<path d="M59.8944 397.3C59.8944 354.514 89.5159 319.891 126.122 319.891Z" fill="url(#paint43_radial)"/>
<path d="M22.0498 324.587C22.0498 364.778 38.9764 397.3 59.8944 397.3Z" fill="url(#paint44_radial)"/>
<path d="M59.8944 397.3C59.8944 342.628 94.1321 298.389 136.443 298.389Z" fill="#3F3D56"/>
<path d="M47.4093 397.84C47.4093 397.84 55.8257 397.581 58.3622 395.775C60.8987 393.968 71.3087 391.812 71.938 394.708C72.5672 397.605 84.5862 409.116 75.0842 409.192C65.5821 409.269 53.0056 407.712 50.474 406.17C47.9424 404.628 47.4093 397.84 47.4093 397.84Z" fill="#A8A8A8"/>
<path opacity="0.2" d="M75.2538 408.184C65.7517 408.26 53.1752 406.704 50.6436 405.162C48.7156 403.987 47.9473 399.773 47.6903 397.829C47.5123 397.837 47.4093 397.84 47.4093 397.84C47.4093 397.84 47.9424 404.628 50.474 406.17C53.0056 407.712 65.5821 409.269 75.0842 409.192C77.8271 409.17 78.7745 408.194 78.7225 406.749C78.3414 407.622 77.2953 408.167 75.2538 408.184Z" fill="black"/>
</g>
<defs>
<radialGradient id="paint0_radial" cx="0" cy="0" r="1" gradientUnits="userSpaceOnUse" gradientTransform="translate(474.321 22.7159) rotate(30.5553) scale(304.374 755.413)">
<stop stop-color="#8EC5FC"/>
<stop offset="1" stop-color="#8AD4FF"/>
<stop offset="1" stop-color="#E0C3FC"/>
</radialGradient>
<linearGradient id="paint1_linear" x1="182.94" y1="60.0475" x2="218.589" y2="62.6436" gradientUnits="userSpaceOnUse">
<stop stop-color="#0093E9"/>
<stop offset="1" stop-color="#80D0C7"/>
</linearGradient>
<linearGradient id="paint2_linear" x1="151.474" y1="50.8752" x2="192.5" y2="57.1258" gradientUnits="userSpaceOnUse">
<stop stop-color="#0093E9"/>
<stop offset="1" stop-color="#80D0C7"/>
</linearGradient>
<linearGradient id="paint3_linear" x1="241.169" y1="126.701" x2="273.574" y2="128.746" gradientUnits="userSpaceOnUse">
<stop stop-color="#0093E9"/>
<stop offset="1" stop-color="#80D0C7"/>
</linearGradient>
<linearGradient id="paint4_linear" x1="208.517" y1="78.4519" x2="249.132" y2="81.049" gradientUnits="userSpaceOnUse">
<stop stop-color="#0093E9"/>
<stop offset="1" stop-color="#80D0C7"/>
</linearGradient>
<linearGradient id="paint5_linear" x1="102.683" y1="114.265" x2="212.375" y2="170.323" gradientUnits="userSpaceOnUse">
<stop stop-color="#0093E9"/>
<stop offset="1" stop-color="#80D0C7"/>
</linearGradient>
<linearGradient id="paint6_linear" x1="108.865" y1="139.72" x2="171.83" y2="207.768" gradientUnits="userSpaceOnUse">
<stop stop-color="#0093E9"/>
<stop offset="1" stop-color="#80D0C7"/>
</linearGradient>
<linearGradient id="paint7_linear" x1="229.665" y1="105.923" x2="265.67" y2="108.068" gradientUnits="userSpaceOnUse">
<stop stop-color="#0093E9"/>
<stop offset="1" stop-color="#80D0C7"/>
</linearGradient>
<linearGradient id="paint8_linear" x1="254.57" y1="179.974" x2="287.81" y2="181.445" gradientUnits="userSpaceOnUse">
<stop stop-color="#0093E9"/>
<stop offset="1" stop-color="#80D0C7"/>
</linearGradient>
<linearGradient id="paint9_linear" x1="129.81" y1="187.506" x2="239.295" y2="245.593" gradientUnits="userSpaceOnUse">
<stop stop-color="#0093E9"/>
<stop offset="1" stop-color="#80D0C7"/>
</linearGradient>
<linearGradient id="paint10_linear" x1="116.872" y1="51.884" x2="189.587" y2="72.9554" gradientUnits="userSpaceOnUse">
<stop stop-color="#0093E9"/>
<stop offset="1" stop-color="#80D0C7"/>
</linearGradient>
<linearGradient id="paint11_linear" x1="243.627" y1="143.618" x2="286.457" y2="146.549" gradientUnits="userSpaceOnUse">
<stop stop-color="#0093E9"/>
<stop offset="1" stop-color="#80D0C7"/>
</linearGradient>
<linearGradient id="paint12_linear" x1="105.832" y1="79.1587" x2="209.739" y2="115.828" gradientUnits="userSpaceOnUse">
<stop stop-color="#0093E9"/>
<stop offset="1" stop-color="#80D0C7"/>
</linearGradient>
<linearGradient id="paint13_linear" x1="150.607" y1="213.856" x2="266.289" y2="243.179" gradientUnits="userSpaceOnUse">
<stop stop-color="#0093E9"/>
<stop offset="1" stop-color="#80D0C7"/>
</linearGradient>
<linearGradient id="paint14_linear" x1="109.907" y1="154.422" x2="229.697" y2="216.493" gradientUnits="userSpaceOnUse">
<stop stop-color="#0093E9"/>
<stop offset="1" stop-color="#80D0C7"/>
</linearGradient>
<linearGradient id="paint15_linear" x1="342.742" y1="182.805" x2="391.038" y2="187.588" gradientUnits="userSpaceOnUse">
<stop stop-color="#0093E9"/>
<stop offset="1" stop-color="#80D0C7"/>
</linearGradient>
<linearGradient id="paint16_linear" x1="349.638" y1="157.644" x2="377.773" y2="159.928" gradientUnits="userSpaceOnUse">
<stop stop-color="#0093E9"/>
<stop offset="1" stop-color="#80D0C7"/>
</linearGradient>
<linearGradient id="paint17_linear" x1="321.592" y1="277.359" x2="393.693" y2="293.567" gradientUnits="userSpaceOnUse">
<stop stop-color="#0093E9"/>
<stop offset="1" stop-color="#80D0C7"/>
</linearGradient>
<linearGradient id="paint18_linear" x1="333.234" y1="213.768" x2="397.336" y2="221.029" gradientUnits="userSpaceOnUse">
<stop stop-color="#0093E9"/>
<stop offset="1" stop-color="#80D0C7"/>
</linearGradient>
<linearGradient id="paint19_linear" x1="259.175" y1="193.01" x2="355.75" y2="207.098" gradientUnits="userSpaceOnUse">
<stop stop-color="#0093E9"/>
<stop offset="1" stop-color="#80D0C7"/>
</linearGradient>
<linearGradient id="paint20_linear" x1="255.435" y1="216.21" x2="349.621" y2="232.567" gradientUnits="userSpaceOnUse">
<stop stop-color="#0093E9"/>
<stop offset="1" stop-color="#80D0C7"/>
</linearGradient>
<linearGradient id="paint21_linear" x1="325.237" y1="252.028" x2="397.083" y2="263.425" gradientUnits="userSpaceOnUse">
<stop stop-color="#0093E9"/>
<stop offset="1" stop-color="#80D0C7"/>
</linearGradient>
<linearGradient id="paint22_linear" x1="275.401" y1="330.569" x2="380.126" y2="353.81" gradientUnits="userSpaceOnUse">
<stop stop-color="#0093E9"/>
<stop offset="1" stop-color="#80D0C7"/>
</linearGradient>
<linearGradient id="paint23_linear" x1="307.964" y1="154.028" x2="357.21" y2="160.531" gradientUnits="userSpaceOnUse">
<stop stop-color="#0093E9"/>
<stop offset="1" stop-color="#80D0C7"/>
</linearGradient>
<linearGradient id="paint24_linear" x1="307.623" y1="295.739" x2="392.066" y2="312.998" gradientUnits="userSpaceOnUse">
<stop stop-color="#0093E9"/>
<stop offset="1" stop-color="#80D0C7"/>
</linearGradient>
<linearGradient id="paint25_linear" x1="275.61" y1="166.227" x2="358.714" y2="177.384" gradientUnits="userSpaceOnUse">
<stop stop-color="#0093E9"/>
<stop offset="1" stop-color="#80D0C7"/>
</linearGradient>
<linearGradient id="paint26_linear" x1="254.36" y1="276.375" x2="283.201" y2="277.711" gradientUnits="userSpaceOnUse">
<stop stop-color="#0093E9"/>
<stop offset="1" stop-color="#80D0C7"/>
</linearGradient>
<linearGradient id="paint27_linear" x1="248.049" y1="267.093" x2="338.097" y2="279.274" gradientUnits="userSpaceOnUse">
<stop stop-color="#0093E9"/>
<stop offset="1" stop-color="#80D0C7"/>
</linearGradient>
<linearGradient id="paint28_linear" x1="251.625" y1="297.33" x2="325.667" y2="304.352" gradientUnits="userSpaceOnUse">
<stop stop-color="#0093E9"/>
<stop offset="1" stop-color="#80D0C7"/>
</linearGradient>
<linearGradient id="paint29_linear" x1="246.247" y1="231.126" x2="349.014" y2="245.697" gradientUnits="userSpaceOnUse">
<stop stop-color="#0093E9"/>
<stop offset="1" stop-color="#80D0C7"/>
</linearGradient>
<linearGradient id="paint30_linear" x1="146.508" y1="220.435" x2="205.848" y2="229.143" gradientUnits="userSpaceOnUse">
<stop stop-color="#0093E9"/>
<stop offset="1" stop-color="#80D0C7"/>
</linearGradient>
<linearGradient id="paint31_linear" x1="117.511" y1="216.021" x2="170.13" y2="228.527" gradientUnits="userSpaceOnUse">
<stop stop-color="#0093E9"/>
<stop offset="1" stop-color="#80D0C7"/>
</linearGradient>
<linearGradient id="paint32_linear" x1="245.331" y1="262.881" x2="260.494" y2="263.324" gradientUnits="userSpaceOnUse">
<stop stop-color="#0093E9"/>
<stop offset="1" stop-color="#80D0C7"/>
</linearGradient>
<linearGradient id="paint33_linear" x1="177.337" y1="229.802" x2="236.92" y2="236.136" gradientUnits="userSpaceOnUse">
<stop stop-color="#0093E9"/>
<stop offset="1" stop-color="#80D0C7"/>
</linearGradient>
<linearGradient id="paint34_linear" x1="90.4183" y1="277.688" x2="207.477" y2="337.24" gradientUnits="userSpaceOnUse">
<stop stop-color="#0093E9"/>
<stop offset="1" stop-color="#80D0C7"/>
</linearGradient>
<linearGradient id="paint35_linear" x1="106.671" y1="297.065" x2="200.232" y2="360.954" gradientUnits="userSpaceOnUse">
<stop stop-color="#0093E9"/>
<stop offset="1" stop-color="#80D0C7"/>
</linearGradient>
<linearGradient id="paint36_linear" x1="218.967" y1="247.64" x2="253.42" y2="249.701" gradientUnits="userSpaceOnUse">
<stop stop-color="#0093E9"/>
<stop offset="1" stop-color="#80D0C7"/>
</linearGradient>
<linearGradient id="paint37_linear" x1="138.964" y1="332.837" x2="247.982" y2="398.739" gradientUnits="userSpaceOnUse">
<stop stop-color="#0093E9"/>
<stop offset="1" stop-color="#80D0C7"/>
</linearGradient>
<linearGradient id="paint38_linear" x1="94.1231" y1="222.892" x2="165.793" y2="247.999" gradientUnits="userSpaceOnUse">
<stop stop-color="#0093E9"/>
<stop offset="1" stop-color="#80D0C7"/>
</linearGradient>
<linearGradient id="paint39_linear" x1="86.5579" y1="252.458" x2="191.346" y2="298.417" gradientUnits="userSpaceOnUse">
<stop stop-color="#0093E9"/>
<stop offset="1" stop-color="#80D0C7"/>
</linearGradient>
<linearGradient id="paint40_linear" x1="163.167" y1="360.382" x2="284.743" y2="413.415" gradientUnits="userSpaceOnUse">
<stop stop-color="#0093E9"/>
<stop offset="1" stop-color="#80D0C7"/>
</linearGradient>
<linearGradient id="paint41_linear" x1="109.314" y1="307.146" x2="240.751" y2="370.103" gradientUnits="userSpaceOnUse">
<stop stop-color="#0093E9"/>
<stop offset="1" stop-color="#80D0C7"/>
</linearGradient>
<linearGradient id="paint42_linear" x1="435.324" y1="601.184" x2="443.83" y2="55.1008" gradientUnits="userSpaceOnUse">
<stop offset="0.114583" stop-color="#8EC6FC"/>
<stop offset="0.9999" stop-color="#0082FF"/>
</linearGradient>
<radialGradient id="paint43_radial" cx="0" cy="0" r="1" gradientUnits="userSpaceOnUse" gradientTransform="translate(96.755 302.135) rotate(37.9023) scale(177.001 461.521)">
<stop stop-color="#8EC5FC"/>
<stop offset="1" stop-color="#8AD4FF"/>
<stop offset="1" stop-color="#E0C3FC"/>
</radialGradient>
<radialGradient id="paint44_radial" cx="0" cy="0" r="1" gradientUnits="userSpaceOnUse" gradientTransform="translate(43.113 307.907) rotate(51.997) scale(129.621 338.279)">
<stop stop-color="#8EC5FC"/>
<stop offset="1" stop-color="#8AD4FF"/>
<stop offset="1" stop-color="#E0C3FC"/>
</radialGradient>
<clipPath id="clip0">
<rect width="685.145" height="501" fill="white" transform="translate(0.547241 0.415649)"/>
</clipPath>
</defs>
</svg>
