<?xml version="1.0" encoding="utf-8"?>
<!-- Generator: Adobe Illustrator 24.2.3, SVG Export Plug-In . SVG Version: 6.00 Build 0)  -->
<svg version="1.1" id="Layer_1" xmlns="http://www.w3.org/2000/svg" xmlns:xlink="http://www.w3.org/1999/xlink" x="0px" y="0px"
	 viewBox="0 0 200 200" style="enable-background:new 0 0 200 200;" xml:space="preserve">
<style type="text/css">
	.st0{fill:#FFFFFF;}
</style>
<g>
	<g>
		<path class="st0" d="M154.94,156c-26.8,0-46.25-20.73-46.25-49.29c0-28.45,19.45-49.09,46.25-49.09
			c26.69,0,46.06,20.65,46.06,49.09v3.79h-67.03l0.07,0.77c1.31,14.07,10.1,24.27,20.9,24.27c10.13,0,17.08-6.7,19.56-18.88
			c0.08-0.39,0.39-0.65,0.76-0.65h24.02c0.24,0,0.46,0.11,0.61,0.31c0.15,0.2,0.21,0.45,0.16,0.7
			C196.62,134.8,186.03,156,154.94,156z M154.94,78.07c-9.92,0-17.8,7.07-19.6,17.58l-0.14,0.83h39.28l-0.17-0.85
			C172.18,84.97,164.57,78.07,154.94,78.07z M5.78,156C5.35,156,5,155.62,5,155.17V25.83C5,25.38,5.35,25,5.78,25h60.67
			C83.46,25,97.3,39.84,97.3,58.08c0,10.57-4.85,20.58-12.97,26.78l-0.95,0.73l1.08,0.49c11.59,5.26,19.07,17.19,19.07,30.4
			c0,21.79-16.63,39.52-37.08,39.52H5.78z M30.25,129.08h33c4.04,0,7.98-1.78,10.8-4.89c2.74-3.01,4.17-6.92,4.05-11.01
			c-0.46-14.99-14.97-15.75-17.87-15.75H30.25V129.08z M30.25,77.14h29.98c3.57,0,6.92-1.71,9.19-4.69
			c2.25-2.96,3.13-6.81,2.39-10.58c-1.13-5.77-6.24-9.95-12.16-9.95h-29.4V77.14z M127.8,51.92c-0.43,0-0.78-0.38-0.78-0.84v-18.8
			c0-0.46,0.35-0.83,0.78-0.83h54.11c0.43,0,0.78,0.37,0.78,0.83v18.8c0,0.46-0.35,0.84-0.78,0.84H127.8z"/>
	</g>
</g>
</svg>
