<?xml version="1.0" encoding="utf-8"?>
<!-- Generator: Adobe Illustrator 24.2.3, SVG Export Plug-In . SVG Version: 6.00 Build 0)  -->
<svg version="1.1" id="Layer_1" xmlns="http://www.w3.org/2000/svg" xmlns:xlink="http://www.w3.org/1999/xlink" x="0px" y="0px"
	 viewBox="0 0 200 200" style="enable-background:new 0 0 200 200;" xml:space="preserve">
<style type="text/css">
	.st0{display:none;}
	.st1{display:inline;fill:none;stroke:#1C1C1C;stroke-width:4;stroke-miterlimit:10;}
	.st2{fill:#FFFFFF;}
</style>
<g>
	<g class="st0">
		<path class="st1" d="M100,200L100,200C44.77,200,0,155.23,0,100v0C0,44.77,44.77,0,100,0h0c55.23,0,100,44.77,100,100v0
			C200,155.23,155.23,200,100,200z"/>
	</g>
	<g>
		<g>
			<path class="st2" d="M144.87,0H55.13C24.68,0,0,24.68,0,55.13v89.74C0,175.32,24.68,200,55.13,200h89.74
				c30.45,0,55.13-24.68,55.13-55.13V55.13C200,24.68,175.32,0,144.87,0z M183.84,144.64c0,21.65-17.55,39.2-39.2,39.2H55.36
				c-21.65,0-39.2-17.55-39.2-39.2V55.36c0-21.65,17.55-39.2,39.2-39.2h89.28c21.65,0,39.2,17.55,39.2,39.2V144.64z"/>
			<path class="st2" d="M100,47.29c-29.11,0-52.71,23.6-52.71,52.71c0,29.11,23.6,52.7,52.71,52.7c29.11,0,52.71-23.6,52.71-52.7
				C152.71,70.89,129.11,47.29,100,47.29z M100,134.38c-18.99,0-34.38-15.39-34.38-34.38c0-18.99,15.39-34.38,34.38-34.38
				s34.38,15.39,34.38,34.38C134.38,118.99,118.99,134.38,100,134.38z"/>
			<path class="st2" d="M166.32,45.54c0,6.53-5.29,11.82-11.82,11.82c-6.53,0-11.82-5.29-11.82-11.82c0-6.53,5.29-11.82,11.82-11.82
				C161.03,33.72,166.32,39.01,166.32,45.54z"/>
		</g>
	</g>
</g>
</svg>
